<svg viewBox="60 160 1700 1840"
    xmlns="http://www.w3.org/2000/svg"
    xmlns:xlink="http://www.w3.org/1999/xlink" xml:space="preserve" overflow="hidden">
    <style>
    :root {
        --s-deco: #561504;
        --s-bg: #FFBEAD;
    }
    </style>
    <g transform="translate(-4376 -663)">
        <path d="M1037.88 861.159 1038.15 855.476 1039.51 853.04 1044.92 849.251 1049.25 848.71 1088.76 854.393 1094.45 844.109 1098.78 838.967 1103.92 834.366 1111.77 830.307 1117.18 828.413 1133.15 826.518 1146.41 828.142 1153.44 830.307 1160.21 833.284 1166.16 837.073 1171.85 842.215 1176.45 847.898 1179.97 854.664 1182.4 862.783 1212.17 865.219 1223.27 867.655 1226.52 870.09 1228.95 873.879 1230.58 879.833 1235.45 880.104 1240.32 882.81 1244.11 889.305 1245.19 894.447 1248.71 933.419 1248.98 953.175 1248.44 974.826 1244.38 1012.44 1241.4 1028.95 1235.45 1051.14 1228.95 1070.36 1221.64 1087.14 1212.98 1103.38 1204.32 1117.45 1195.66 1129.36 1177.26 1149.93 1156.42 1166.98 1146.95 1172.66 1135.58 1177.53 968.06 1127.19 965.895 1162.65 965.624 1186.19 966.166 1207.3 969.413 1258.45 978.615 1343.43 985.922 1397.83 1000.27 1492.55 1118.53 1474.15 1125.03 1475.77 1127.73 1477.94 1130.98 1483.62 1130.71 1491.2 1129.09 1494.44 1126.11 1496.61 1119.89 1499.05 1099.05 1503.38 1004.6 1518.53 1011.63 1555.07 1020.02 1590.79 1029.76 1625.97 1041.13 1660.61 1054.12 1694.98 1068.74 1728.81 1087.14 1709.87 1125.57 1674.42 1120.43 1664.13 1120.7 1659.8 1122.59 1657.37 1131.79 1651.14 1154.26 1640.32 1149.66 1625.97 1149.66 1619.75 1151.55 1617.31 1154.53 1615.69 1161.02 1614.34 1220.83 1608.38 1215.69 1595.66 1211.09 1577.53 1209.47 1566.97 1208.92 1554.53 1209.2 1545.05 1211.36 1529.36 1217.04 1510.95 1221.64 1502.02 1227.6 1493.63 1231.93 1481.45 1234.91 1475.23 1241.13 1467.92 1246 1464.67 1251.41 1462.24 1258.72 1460.61 1273.61 1459.8 1286.33 1453.31 1298.5 1449.79 1296.34 1415.69 1296.88 1403.24 1299.59 1384.3 1302.29 1375.64 1307.98 1363.73 1311.5 1358.86 1318.53 1352.9 1323.94 1350.2 1328.55 1349.38 1333.15 1350.47 1338.02 1353.17 1342.89 1357.77 1346.95 1363.46 1355.34 1379.7 1365.89 1409.74 1374.28 1443.02 1380.51 1474.42 1387.54 1516.1 1391.6 1523.67 1396.47 1528 1398.64 1528.54 1401.08 1528 1405.68 1523.4 1421.1 1489.84 1431.93 1473.06 1443.02 1460.34 1448.44 1455.47 1455.74 1451.41 1458.45 1450.87 1464.13 1452.5 1470.36 1457.37 1473.33 1461.7 1474.96 1467.38 1475.77 1477.12 1477.12 1480.1 1490.93 1476.04 1504.73 1473.88 1519.07 1473.06 1533.96 1473.88 1548.57 1476.31 1553.17 1435.72 1440.32 1440.05 1435.72 1439.51 1432.74 1437.88 1430.85 1435.18 1429.76 1430.57 1426.24 1387.27 1418.67 1267.65 1412.17 1143.97 1409.74 1064.95 1410.55 1034.09 1412.44 1005.68 1415.69 979.697 1420.02 955.34 1425.7 930.712 1432.47 907.979 1440.05 887.14 1448.44 867.655 1457.91 848.71 1468.19 830.848 1479.29 814.61 1490.66 799.725 1516.1 772.391 1542.89 749.387 1562.1 735.855 1581.59 724.218 1601.34 713.934 1621.64 705.274 1641.67 697.696 1661.43 691.742 1681.72 686.6 1719.61 679.834 1738.29 677.94 1771.57 676.316 1799.45 677.128 1825.43 679.293 1849.52 682.54 1871.44 686.871 1893.9 692.554 1914.74 699.32 1933.68 706.627 1951.55 715.017 1968.87 724.218 1984.83 734.232 2013.25 755.071 2030.57 770.767 2046 786.464 2059.26 802.432 2071.71 819.211 2082.26 835.449 2091.46 851.417 2099.58 867.655 2111.76 896.883 2118.53 917.451 2122.59 933.689 2125.56 956.693 2144.78 1400.53 2143.16 1403.51 2140.18 1404.86 2128.81 1407.84 1971.3 1437.34 1969.14 1438.15 1972.39 1452.23 2007.84 1451.95 2033.01 1452.5 2057.36 1454.39 2081.18 1457.37 2104.18 1461.43 2126.65 1466.57 2149.11 1473.06 2170.76 1480.37 2191.87 1488.49 2212.44 1497.96 2232.46 1508.25 2256.82 1522.32 2280.37 1537.75 2302.83 1554.53 2324.48 1572.66 2345.05 1591.87 2364.81 1612.17 2383.75 1633.55 2401.61 1656.28 2418.39 1679.56 2434.09 1703.92 2448.7 1729.08 2462.5 1755.07 2470.89 1740.72 2480.1 1721.51 2490.92 1692.55 2496.33 1674.96 2504.99 1637.88 2508.51 1616.77 2512.57 1572.66 2513.11 1548.3 2512.57 1534.77 2414.06 1540.99 2410.54 1540.72 2404.59 1537.48 2401.34 1531.79 2401.34 1524.48 2402.96 1521.51 2405.4 1519.07 2409.19 1516.91 2414.87 1515.28 2432.46 1513.39 2487.94 1510.95 2511.22 1508.25 2495.25 1395.66 2459.26 1167.79 2372.38 1191.06 2368.59 1191.6 2363.72 1190.79 2357.23 1188.09 2349.38 1183.21 2334.22 1169.95 2316.9 1149.39 2299.85 1123.13 2292 1108.52 2277.12 1074.42 2270.62 1056.29 2265.21 1036.8 2260.61 1015.69 2257.09 994.582 2254.93 972.39 2254.12 948.845 2254.93 925.3 2257.9 899.589 2260.07 886.87 2263.05 875.774 2268.46 862.783 2274.95 854.393 2278.74 852.228 2292.28 850.605 2324.21 850.875 2329.35 837.885 2333.95 831.119 2342.61 822.729 2348.84 818.94 2355.6 815.963 2363.72 813.798 2374.01 812.716 2359.66 781.863 2349.65 762.919 2337.2 741.539 2323.4 719.888 2307.16 697.967 2295.52 683.623 2269.81 657.371 2230.57 686.6 2175.63 729.631 2169.14 733.69 2162.1 736.126 2158.85 735.855 2153.17 732.608 2149.92 726.925 2149.38 723.677 2151.27 717.452 2153.71 714.205 2249.24 640.321 2220.83 617.047 2203.78 605.41 2185.1 593.502 2159.93 578.887 2132.06 564.544 2101.75 550.471 2070.9 537.48 2038.15 524.76 2003.51 513.123 1968.6 502.298 1932.33 492.555 1894.71 483.624 1857.09 475.776 1818.66 469.551 1779.96 464.409 1740.99 460.349 1702.02 458.184 1663.32 457.372 1612.98 458.726 1592.41 460.62 1609.73 541.269 1609.19 544.787 1605.95 550.471 1603.24 552.636 1596.74 554.26 1593.23 553.718 1589.98 551.824 1587.27 548.306 1584.02 542.081 1578.88 523.137 1572.12 487.142 1565.62 463.056 1537.48 466.845 1509.33 471.445 1481.72 477.399 1454.12 484.165 1460.34 492.555 1466.03 502.027 1470.63 512.582 1473.88 523.949 1476.04 536.939 1476.85 551.553 1476.04 566.438 1473.88 580.511 1470.36 593.502 1465.76 606.492 1454.66 629.225 1444.65 644.652 1434.9 657.371 1405.95 689.036 1412.71 698.508 1418.94 705.003 1422.73 706.898 1432.2 707.709 1434.63 709.063 1436.26 711.228 1437.07 713.934 1441.13 715.558 1444.11 718.535 1446.27 722.053 1447.08 726.383 1446.27 730.443 1440.59 738.562 1431.39 744.245 1425.97 746.14 1409.46 748.034 1397.56 747.222 1388.63 745.057 1366.98 736.667 1329.63 751.823 1305.81 757.236 1282.27 759.13 1269.55 758.589 1247.9 754.8 1238.69 751.823 1226.79 746.681 1216.23 740.727 1207.3 733.961 1191.87 718.535 1185.92 710.686 1178.34 698.237 1172.93 687.141 1168.6 676.586 1164.54 660.89 1156.15 666.573 1148.3 674.692 1137.21 688.224 1122.86 707.709 1091.47 755.612 1058.45 813.257 1042.21 844.109 1027.06 876.044 1013.26 907.979 1001.35 939.102 994.582 959.941 985.11 997.83 1005.41 963.73 1022.19 927.735 1028.68 909.874 1033.55 892.824 1035.99 881.457 1037.88 861.159ZM2251.68 1267.38 2253.84 1260.62 2261.15 1253.31 2267.11 1250.06 2273.87 1248.17 2280.37 1247.35 2290.38 1249.25 2306.35 1256.83 2316.36 1263.86 2325.83 1272.25 2334.49 1282.27 2339.37 1289.57 2343.43 1297.15 2349.92 1313.12 2367.24 1335.85 2379.15 1357.23 2387.27 1379.97 2389.97 1392.42 2391.87 1407.03 2392.14 1427.87 2389.97 1431.39 2388.89 1437.34 2387.54 1440.32 2385.1 1443.29 2381.85 1444.92 2376.98 1445.73 2372.11 1445.19 2369.14 1443.84 2366.97 1441.67 2365.08 1437.07 2361.83 1401.35 2359.12 1388.63 2352.09 1370.76 2346.4 1360.48 2333.14 1374.28 2323.13 1381.05 2317.44 1383.21 2311.49 1384.03 2300.39 1381.59 2293.9 1378.61 2283.07 1370.49 2276.31 1361.02 2272.52 1349.38 2271.71 1342.08 2272.52 1332.33 2274.41 1325.84 2277.12 1320.7 2280.1 1317.18 2285.51 1312.85 2294.17 1307.71 2303.64 1304.19 2313.38 1301.75 2308.78 1295.53 2303.37 1290.39 2297.15 1286.33 2291.46 1283.62 2281.18 1281.18 2276.04 1281.73 2273.6 1282.81 2268.19 1293.36 2265.21 1296.34 2261.69 1297.96 2257.9 1298.78 2253.84 1297.96 2250.06 1296.07 2247.35 1293.36 2245.73 1289.84 2244.91 1285.79 2246.81 1276.31 2251.68 1267.38ZM1790.79 537.48 1800.26 538.292 1811.36 540.999 1832.47 537.21 1850.6 537.48 1860.34 539.104 1877.93 545.87 1892.28 554.53 1901.21 562.108 1907.16 568.874 1912.03 577.805 1912.3 582.676 1915.55 587.277 1917.72 592.148 1918.8 597.561 1916.9 604.056 1912.3 608.657 1909.33 610.01 1905.81 610.281 1901.75 609.74 1898.5 607.845 1886.05 592.148 1880.91 587.548 1873.6 582.676 1864.94 578.617 1852.49 574.557 1852.49 585.112 1849.25 598.102 1846 605.41 1838.96 613.799 1834.09 617.318 1828.41 620.024 1821.64 621.648 1812.98 622.46 1805.13 621.918 1797.56 619.753 1790.25 616.776 1783.48 612.446 1779.15 608.116 1776.17 602.974 1774.28 597.561 1772.39 583.488 1762.1 589.983 1751.82 600.268 1743.7 612.717 1741.53 619.483 1740.99 630.308 1739.1 636.533 1734.23 641.133 1728 642.757 1721.51 641.404 1717.18 636.803 1715.01 628.955 1715.55 618.4 1713.12 612.175 1713.66 598.914 1715.55 590.254 1718.8 582.676 1722.86 575.099 1733.41 562.649 1742.89 554.801 1752.9 548.576 1763.45 543.434 1773.47 540.187 1783.21 538.022 1790.79 537.48ZM1182.13 1298.23 1181.32 1299.59 1192.96 1311.5 1196.75 1317.72 1199.72 1328 1200.26 1335.04 1199.45 1344.24 1197.83 1351.82 1195.66 1357.5 1188.63 1366.98 1178.07 1373.47 1172.12 1375.37 1162.65 1376.45 1155.34 1374.82 1150.74 1372.12 1146.41 1368.33 1141.54 1362.1 1136.67 1350.47 1134.77 1342.08 1131.79 1347.22 1128.55 1358.32 1128.82 1373.47 1131.79 1384.03 1136.94 1392.42 1138.56 1398.91 1138.02 1402.43 1134.77 1408.11 1129.36 1411.36 1125.84 1411.9 1119.62 1410.01 1116.64 1407.84 1112.85 1403.51 1109.33 1397.83 1102.29 1379.42 1099.32 1365.62 1099.05 1356.42 1099.59 1343.16 1101.48 1332.6 1104.19 1323.94 1107.71 1315.83 1112.04 1309.33 1121.51 1299.86 1131.25 1294.45 1138.56 1291.74 1149.93 1289.84 1157.23 1279.02 1171.31 1262.51 1179.16 1255.74 1193.23 1246 1203.78 1240.59 1212.71 1237.34 1221.1 1235.18 1232.47 1233.55 1235.72 1234.09 1238.15 1235.45 1240.05 1238.15 1240.59 1241.13 1240.05 1243.57 1238.42 1245.73 1243.3 1246.54 1246.27 1248.44 1250.33 1253.85 1251.41 1258.72 1249.79 1266.03 1247.9 1268.19 1244.11 1270.36 1223.54 1274.42 1214.88 1277.12 1204.32 1281.73 1190.25 1290.93 1182.13 1298.23Z" style="fill: var(--s-bg)" transform="matrix(1 0 0 1.00012 3543.52 379.38)"/>
        <path d="M1444.65 1585.38 1504.46 1579.69 1508.52 1582.13 1517.45 1595.39 1526.11 1613.79 1538.56 1644.65 1551.28 1680.64 1566.7 1729.9 1571.3 1736.12 1582.4 1742.89 1596.74 1748.57 1616.5 1754.52 1688.22 1773.47 1740.45 1789.44 1765.08 1798.91 1781.05 1806.22 1795.12 1814.06 1808.11 1822.18 1807.84 1807.84 1810.27 1803.24 1813.79 1800.26 1826.24 1794.31 1835.71 1791.87 1849.79 1789.44 1865.48 1788.08 1887.41 1787.54 1931.52 1789.44 1970.49 1794.58 1995.93 1799.72 2018.93 1805.67 2040.04 1812.44 2079.02 1827.87 2119.07 1848.16 2167.78 1877.93 2165.89 1832.2 2166.43 1814.06 2169.95 1777.53 2174.55 1750.19 2180.23 1724.75 2186.73 1700.4 2193.22 1680.1 2200.26 1661.7 2205.94 1649.25 2210.54 1641.67 2213.79 1638.42 2215.69 1637.61 2218.66 1638.15 2222.18 1641.94 2222.72 1644.65 2201.88 1700.94 2195.39 1723.13 2189.7 1746.95 2185.1 1774.28 2181.31 1813.25 2180.5 1834.63 2181.31 1855.47 2184.02 1887.14 2191.33 1895.52 2233.01 1934.23 2245.18 1947.22 2256.55 1961.02 2269.54 1980.5 2274.41 1990.52 2278.47 2000.8 2280.91 2010.82 2281.45 2025.43 2278.2 2036.8 2275.5 2042.75 2271.71 2047.89 2263.05 2053.85 2253.84 2055.74 2246.81 2055.2 2234.09 2051.14 2228.41 2047.62 2221.1 2041.94 2214.6 2035.17 2208.38 2026.78 2200.53 2013.25 2193.76 1998.1 2188.08 1982.4 2179.42 1950.73 2171.57 1903.1 2169.95 1900.4 2161.56 1892.82 2151 1884.7 2134.5 1873.33 2115.55 1862.24 2074.96 1841.67 2035.44 1826.51 2014.6 1820.02 1992.14 1814.06 1967.78 1808.92 1943.43 1805.4 1917.45 1802.97 1890.38 1802.16 1866.84 1802.7 1837.34 1805.94 1823.27 1809.46 1823.27 1828.14 1828.68 1948.57 1831.11 1975.9 1832.74 1984.56 1834.9 1989.43 1837.88 1993.22 1841.67 1995.66 1860.07 2004.59 1870.09 2011.09 1880.64 2019.48 1975.36 2113.39 2035.44 2169.41 2077.93 2205.67 2105.54 2226.78 2129.35 2243.29 2130.98 2247.89 2129.35 2251.14 2125.83 2251.95 2119.07 2251.14 2110.41 2248.16 2099.85 2242.75 2078.47 2228.13 2065.48 2217.85 2025.43 2182.13 1916.63 2075.5 1876.31 2038.15 1846.81 2014.87 1824.08 2001.34 1821.37 1998.91 1819.48 1996.2 1818.12 1991.33 1815.96 1963.45 1800.26 1974.01 1789.98 1979.69 1778.61 1984.83 1755.07 1991.87 1733.69 1993.77 1700.13 1991.6 1681.72 1991.06 1672.79 1991.87 1664.13 1993.77 1655.74 1996.74 1647.89 2001.07 1648.98 2056.82 1648.16 2080.37 1646 2103.91 1637.88 2150.19 1634.63 2156.96 1631.93 2158.85 1622.72 2160.75 1279.29 2189.98 1266.57 2191.06 1262.78 2190.79 1259.26 2188.08 1257.91 2184.83 1254.66 2163.99 1251.69 2154.25 1246 2141.8 1204.59 2142.61 1194.85 2136.93 1192.15 2133.14 1191.33 2128.54 1195.12 2037.88 1195.12 1980.23 1193.23 1928.81 1187.27 1879.02 1178.07 1834.9 1171.85 1812.71 1164.27 1789.17 1154.8 1764.27 1143.97 1739.91 1131.25 1714.47 1116.37 1687.95 1096.88 1704.46 1083.08 1717.45 1068.74 1732.33 1040.59 1764.27 1017.59 1795.39 1006.76 1812.17 986.463 1849.52 977.803 1869.27 970.225 1890.11 964 1912.03 957.505 1945.59 955.07 1981.59 955.881 2001.61 957.776 2020.29 960.753 2037.61 965.083 2053.58 970.225 2069.54 976.45 2084.43 983.486 2098.23 991.335 2110.95 1003.24 2127.46 1015.96 2142.07 1029.49 2155.33 1044.11 2167.78 1059.26 2178.88 1074.96 2188.62 1090.93 2197.82 1122.59 2212.71 1146.14 2221.64 1167.79 2228.95 1238.97 2248.7 1242.21 2251.14 1241.67 2254.12 1239.78 2256.55 1237.34 2257.9 1234.36 2258.45 1212.17 2255.74 1174.55 2247.35 1152.09 2240.31 1126.92 2231.11 1092.82 2215.41 1075.23 2205.67 1057.91 2194.85 1041.4 2182.94 1024.89 2169.41 1013.26 2158.58 991.876 2134.22 981.862 2120.69 972.931 2106.62 965.083 2091.73 958.047 2075.5 951.822 2058.18 947.221 2040.58 943.703 2021.91 941.538 2001.61 940.455 1979.96 941.267 1962.37 945.056 1928.54 948.574 1912.57 954.258 1891.19 961.294 1870.9 969.413 1851.41 978.615 1832.74 998.642 1798.1 1009.74 1781.59 1031.66 1752.63 1064.14 1716.36 1079.29 1701.48 1109.06 1674.42 1103.92 1664.13 1104.46 1659.8 1106.08 1657.37 1115.29 1651.14 1137.75 1640.32 1133.15 1625.97 1133.42 1619.75 1135.04 1617.31 1138.02 1615.69 1144.78 1614.34 1204.32 1608.38 1199.45 1595.66 1194.58 1577.53 1192.96 1566.97 1192.42 1554.53 1192.69 1545.05 1195.12 1529.36 1200.54 1510.95 1205.14 1502.02 1211.09 1493.63 1215.42 1481.45 1218.4 1475.23 1224.89 1467.92 1235.18 1462.24 1242.21 1460.61 1257.1 1459.8 1269.82 1453.31 1282 1449.79 1279.83 1415.69 1281.45 1392.69 1283.35 1384.3 1288.49 1369.14 1291.47 1363.73 1298.78 1355.34 1307.44 1350.2 1312.04 1349.38 1316.91 1350.47 1321.51 1353.17 1326.38 1357.77 1334.77 1370.76 1344.24 1393.5 1353.98 1426.24 1364.27 1474.42 1371.03 1516.1 1375.09 1523.67 1380.24 1528 1384.57 1528 1389.17 1523.4 1404.59 1489.84 1415.69 1473.06 1426.51 1460.34 1431.93 1455.47 1439.23 1451.41 1442.21 1450.87 1447.62 1452.5 1454.12 1457.37 1456.83 1461.7 1458.72 1467.38 1459.53 1480.64 1473.61 1476.31 1487.95 1473.88 1502.56 1473.06 1517.45 1473.88 1532.06 1476.31 1536.66 1435.72 1424.08 1440.05 1419.21 1439.51 1416.23 1437.88 1414.34 1435.18 1413.52 1430.57 1405.95 1330.98 1395.93 1143.97 1393.23 1064.95 1394.04 1034.09 1396.2 1005.68 1399.18 979.697 1403.51 955.34 1409.46 930.712 1415.96 907.979 1423.54 887.14 1431.93 867.655 1441.67 848.71 1451.95 830.848 1462.78 814.61 1474.42 799.725 1499.59 772.391 1526.65 749.387 1545.86 735.855 1565.08 724.218 1584.84 713.934 1605.13 705.274 1625.16 697.696 1644.92 691.742 1665.21 686.6 1684.7 682.54 1722.05 677.94 1755.34 676.316 1783.21 677.128 1808.92 679.293 1833.01 682.54 1855.2 686.871 1877.66 692.554 1898.23 699.32 1917.45 706.627 1935.04 715.017 1952.36 724.218 1983.48 744.516 1997.01 755.071 2014.33 770.767 2029.49 786.464 2043.02 802.432 2055.2 819.211 2066.02 835.449 2074.96 851.417 2090.11 882.81 2102.02 917.451 2106.08 933.689 2109.33 956.693 2128.54 1398.1 2128 1401.35 2126.65 1403.51 2124.21 1404.86 2119.88 1406.22 1954.79 1437.34 1952.63 1438.15 1955.88 1452.23 1991.6 1451.95 2019.48 1452.77 2046.81 1454.93 2073.06 1458.72 2098.5 1463.59 2123.4 1470.09 2148.03 1477.94 2171.84 1487.14 2195.12 1497.42 2217.31 1508.79 2239.23 1521.51 2260.07 1535.04 2280.37 1549.92 2300.12 1565.62 2318.8 1582.4 2337.2 1600.26 2354.52 1618.67 2371.03 1638.15 2386.73 1658.18 2401.61 1679.29 2415.96 1701.21 2432.46 1729.08 2447.62 1758.04 2461.42 1788.08 2474.14 1818.94 2485.24 1850.33 2494.98 1882.26 2503.1 1914.74 2510.14 1948.03 2515.55 1981.32 2519.34 2014.87 2521.5 2048.97 2522.31 2083.07 2522.04 2087.95 2520.15 2092.28 2518.25 2093.63 2515.28 2094.17 2513.38 2089.84 2502.02 2012.71 2489.57 1944.78 2480.37 1905.54 2465.21 1851.68 2445.18 1794.85 2433.28 1766.43 2419.74 1737.74 2404.86 1709.6 2388.62 1681.99 2370.49 1655.2 2355.6 1635.72 2339.91 1616.77 2323.13 1598.64 2305.27 1581.05 2286.32 1564.54 2266.29 1549.11 2244.64 1534.77 2221.91 1521.24 2203.24 1511.49 2183.48 1502.56 2162.91 1494.71 2140.99 1487.41 2117.99 1481.18 2095.52 1476.04 2071.44 1471.98 2046.27 1469 2019.75 1467.11 1991.6 1466.57 1959.12 1467.38 1956.69 1484.16 1953.71 1499.59 1949.65 1513.93 1944.78 1526.92 1939.1 1539.64 1925.57 1562.37 1917.99 1572.12 1906.62 1584.57 1894.98 1595.66 1882.53 1605.13 1869.27 1613.79 1842.75 1627.87 1828.95 1633.28 1802.7 1641.67 1783.21 1646 1766.43 1648.44 1738.02 1650.6 1718.53 1649.79 1700.67 1647.89 1684.43 1645.19 1669.54 1641.67 1654.66 1636.8 1641.13 1631.39 1617.85 1618.94 1603.51 1608.92 1591.06 1598.37 1580.24 1587.81 1561.83 1564.81 1554.53 1553.71 1545.32 1536.93 1538.83 1522.32 1527.46 1490.38 1514.74 1488.22 1501.75 1487.41 1491.74 1487.95 1472.25 1491.74 1462.78 1495.26 1459.26 1497.69 1455.2 1506.08 1450.6 1525.3 1446.54 1559.67 1444.65 1585.38ZM1581.32 843.568 1565.62 855.476 1550.19 868.737 1535.04 883.622 1520.7 899.319 1506.89 916.098 1494.17 933.689 1481.99 952.363 1471.17 971.308 1461.43 991.064 1452.77 1011.09 1445.73 1031.39 1440.05 1051.69 1435.72 1072.52 1433.01 1092.82 1432.2 1112.85 1432.74 1126.38 1434.36 1139.64 1439.23 1160.48 1440.05 1163.19 1442.48 1165.89 1470.09 1174.01 1486.6 1176.99 1503.38 1178.88 1538.83 1179.43 1544.78 1180.51 1548.3 1182.13 1550.74 1184.3 1552.36 1187.82 1555.34 1199.45 1560.75 1232.47 1563.19 1260.89 1563.46 1275.5 1562.91 1304.46 1559.67 1359.67 1546.68 1474.15 1546.14 1480.64 1546.95 1484.43 1549.11 1489.03 1559.4 1500.13 1576.45 1512.58 1598.64 1523.94 1613.25 1529.63 1644.65 1538.83 1663.32 1542.62 1682.26 1545.32 1703.37 1547.22 1726.38 1547.76 1748.3 1547.22 1787 1543.7 1804.05 1540.99 1827.05 1535.58 1846.81 1529.9 1864.13 1523.13 1881.18 1515.28 1895.25 1507.71 1907.16 1499.86 1918.26 1490.93 1926.65 1482.81 1932.6 1475.5 1937.74 1467.38 1940.45 1460.89 1941.26 1455.47 1929.35 1393.77 1925.29 1365.35 1919.61 1303.11 1917.72 1240.86 1917.99 1218.94 1920.69 1175.37 1921.78 1171.04 1924.21 1167.52 1928 1164.81 1940.99 1160.48 1964.54 1156.42 1963.18 1133.15 1963.45 1130.17 1965.08 1127.73 1967.51 1125.84 1973.2 1125.84 1976.17 1128.82 1978.34 1137.75 1979.15 1150.47 1984.56 1146.68 1993.49 1137.75 2001.88 1124.76 2005.13 1116.91 2007.03 1107.98 2022.72 967.248 2026.51 927.735 2025.7 915.557 2023.81 906.626 2020.83 900.131 2016.77 894.447 2011.63 890.388 2005.4 887.682 1998.64 885.787 1981.86 884.705 1974.82 885.246 1968.6 886.87 1963.18 889.576 1958.04 893.365 1952.09 899.319 1946.67 906.897 1941.8 915.827 1936.39 930.171 1931.79 946.409 1928 963.189 1920.96 1010.55 1916.36 1033.01 1914.2 1038.43 1912.03 1040.86 1909.87 1041.67 1905 1041.4 1897.42 1038.43 1893.36 1035.18 1872.52 1011.63 1861.97 1001.62 1851.68 993.77 1840.32 987.275 1829.22 982.133 1817.85 978.344 1800.26 974.014 1745.05 965.895 1726.11 962.377 1706.35 956.693 1693.36 952.093 1679.83 945.597 1666.03 937.478 1652.77 928.277 1638.96 916.369 1624.35 901.755 1603.78 876.856 1581.32 843.568ZM1586.73 2109.06 1591.87 2078.2 1594.85 2045.73 1594.58 1997.01 1592.96 1965.08 1591.33 1962.91 1576.45 1956.15 1571.3 1952.9 1566.16 1948.3 1560.48 1939.91 1556.42 1931.25 1540.18 1919.07 1536.39 1915.01 1533.42 1908.24 1532.87 1903.91 1534.77 1894.98 1542.08 1881.45 1571.03 1842.75 1574.55 1836.8 1575.36 1833.01 1567.24 1791.33 1556.69 1747.76 1541.81 1696.61 1532.87 1670.09 1522.86 1643.83 1515.28 1626.51 1499.05 1594.85 1148.84 1628.41 1172.93 1710.68 1188.09 1772.39 1195.39 1807.84 1201.62 1844.65 1206.49 1884.16 1210.28 1938.01 1210.82 1965.62 1206.49 2128 1586.73 2109.06ZM1597.29 1949.65 1615.69 1928.54 1629.76 1917.18 1644.11 1910.14 1651.95 1907.7 1661.16 1906.08 1671.71 1905.54 1681.45 1906.08 1693.36 1908.24 1696.61 1912.03 1696.88 1914.47 1696.34 1917.45 1694.71 1919.88 1692.01 1921.51 1689.03 1921.78 1671.17 1919.88 1663.05 1920.42 1650.6 1922.86 1642.21 1926.38 1635.17 1930.98 1628.95 1936.66 1608.92 1959.12 1608.11 1962.1 1613.25 1977.53 1616.5 1982.67 1622.72 1987.54 1630.3 1988.89 1638.15 1988.08 1659.26 1979.96 1667.11 1977.8 1677.12 1976.72 1734.5 1979.15 1753.17 1977.26 1762.64 1974.82 1776.45 1969.95 1788.62 1964 1799.72 1957.23 1807.57 1951.28 1811.9 1946.4 1814.88 1940.18 1814.88 1877.66 1812.17 1856.55 1807.03 1843.56 1802.97 1837.88 1797.83 1832.47 1784.29 1822.72 1763.73 1813.25 1720.42 1798.64 1574.01 1755.88 1588.08 1819.75 1597.01 1811.63 1606.49 1805.4 1621.1 1801.34 1645.19 1799.72 1655.47 1800.26 1689.84 1804.05 1693.36 1805.13 1696.07 1808.11 1695.26 1813.79 1692.01 1816.23 1688.49 1816.77 1648.16 1814.33 1635.99 1814.6 1620.56 1816.23 1612.44 1818.39 1607.84 1821.64 1593.77 1837.34 1562.91 1876.58 1552.09 1893.09 1547.76 1902.83 1548.57 1906.35 1551.01 1909.6 1561.02 1916.09 1570.76 1901.48 1579.69 1889.84 1587.81 1880.91 1597.01 1872.52 1612.71 1861.97 1628.14 1855.74 1644.38 1853.31 1671.17 1853.85 1676.85 1855.2 1679.56 1856.55 1681.18 1858.45 1681.18 1863.59 1678.75 1866.03 1676.31 1866.84 1646.54 1867.38 1636.53 1868.73 1627.87 1870.9 1619.48 1874.69 1611.63 1879.83 1587.27 1903.91 1581.59 1910.68 1574.28 1921.78 1572.39 1929.08 1573.47 1933.41 1575.91 1937.47 1579.42 1940.72 1583.75 1943.7 1597.29 1949.65ZM1444.11 1473.88 1443.57 1467.92 1432.74 1476.31 1428.41 1481.99 1422.46 1491.47 1407.84 1522.32 1402.7 1531.52 1397.29 1538.29 1392.96 1541.81 1388.08 1543.97 1382.67 1544.78 1378.34 1543.97 1374.01 1542.35 1370.22 1539.37 1362.37 1528.27 1358.32 1519.88 1349.93 1492.82 1335.31 1417.58 1327.73 1386.19 1323.4 1375.64 1320.7 1371.03 1317.99 1368.06 1312.31 1365.89 1306.89 1370.22 1303.65 1375.09 1300.94 1381.05 1298.23 1390.52 1296.61 1401.35 1296.07 1416.77 1296.61 1431.93 1300.4 1458.45 1305.27 1477.12 1322.59 1531.25 1324.76 1546.14 1323.67 1555.88 1322.05 1560.75 1319.34 1565.35 1313.39 1570.22 1293.9 1576.72 1287.68 1577.8 1275.23 1576.45 1268.46 1578.07 1258.99 1577.8 1252.23 1576.18 1245.19 1573.47 1237.34 1568.33 1227.87 1558.58 1219.48 1543.7 1216.23 1534.23 1213.25 1522.59 1210.55 1532.33 1208.92 1542.08 1208.92 1561.56 1211.63 1580.51 1217.86 1598.91 1222.19 1606.76 1427.87 1587 1432.47 1545.86 1436.26 1519.34 1443.57 1484.7 1444.11 1473.88ZM2267.11 2020.02 2266.29 2012.71 2261.69 1998.1 2257.09 1988.89 2249.51 1976.72 2240.31 1964 2226.51 1948.03 2210.54 1931.79 2188.62 1912.57 2187.27 1912.85 2191.6 1936.66 2200.8 1972.39 2211.63 2000.26 2222.45 2018.93 2232.46 2030.57 2240.04 2036.53 2245.73 2039.23 2253.57 2041.13 2259.26 2039.5 2264.13 2033.28 2265.75 2028.95 2267.11 2020.02ZM1285.51 1465.22 1276.04 1466.3 1272.79 1467.92 1270.36 1470.9 1269.28 1475.23 1269.01 1500.67 1270.36 1515.82 1274.42 1539.37 1279.29 1553.71 1282.54 1559.13 1286.6 1562.1 1304.73 1556.42 1307.44 1554.53 1309.33 1552.36 1309.87 1548.84 1309.6 1541.81 1307.44 1530.98 1293.9 1493.63 1285.51 1465.22ZM1261.7 1561.83 1264.4 1561.56 1259.8 1547.49 1256.56 1533.15 1253.58 1504.19 1252.5 1474.96 1244.92 1475.23 1237.34 1477.94 1233.82 1480.37 1230.85 1484.7 1228.41 1492.01 1228.14 1497.42 1229.76 1519.07 1230.85 1527.73 1233.01 1535.85 1235.72 1542.35 1239.24 1547.76 1243.57 1552.63 1251.69 1558.58 1257.91 1561.29 1261.7 1561.83Z" style="fill: var(--s-deco)" transform="matrix(1 0 0 1.00012 3543.52 379.38)"/>
        <path d="M2295.79 850.875 2307.7 850.875 2311.22 841.403 2317.99 830.848 2323.13 825.165 2329.35 820.564 2337.74 816.505 2343.97 814.61 2359.93 812.716 2368.05 813.257 2375.9 814.61 2383.21 817.317 2389.97 820.835 2396.2 825.436 2401.88 831.119 2406.75 837.343 2410.27 844.109 2413.25 851.958 2448.7 852.228 2453.84 854.664 2455.47 857.1 2456.01 861.159 2455.47 870.09 2457.36 903.108 2462.5 931.795 2467.92 950.198 2473.87 966.707 2480.91 981.592 2489.03 996.206 2506.35 1020.83 2525.02 1041.94 2547.48 1061.97 2584.83 1089.03 2581.31 1092.28 2563.99 1100.13 2511.22 1119.62 2425.97 1147.76 2352.36 1171.04 2342.34 1164.54 2322.86 1145.87 2311.76 1132.34 2299.04 1114.47 2290.92 1101.48 2275.5 1070.63 2268.73 1053.85 2262.78 1035.18 2257.63 1014.61 2253.84 993.77 2251.41 971.037 2250.6 946.139 2251.14 926.112 2253.03 906.085 2255.74 886.058 2261.96 854.935 2264.13 852.77 2267.65 851.417 2295.79 850.875ZM2267.65 945.597 2269 974.285 2274.14 1008.38 2282.8 1041.94 2293.9 1070.63 2300.94 1084.97 2309.05 1099.32 2318.8 1113.39 2329.35 1126.92 2341.53 1139.91 2355.6 1152.63 2551.27 1087.68 2549.65 1085.52 2525.29 1067.11 2513.92 1057.1 2500.93 1043.03 2483.88 1019.75 2474.95 1004.33 2467.38 988.358 2459.8 969.684 2452.49 947.492 2444.1 912.58 2437.88 869.008 2277.93 867.925 2274.95 877.127 2271.71 895.259 2268.73 918.805 2267.65 945.056ZM2394.85 851.417 2389.43 842.485 2385.91 838.967 2379.42 834.908 2372.65 832.201 2359.39 830.036 2345.86 831.931 2340.72 834.096 2334.22 838.155 2329.89 842.485 2327.19 847.086 2326.65 851.417Z" style="fill: var(--s-deco)" transform="matrix(1 0 0 1.00012 3543.52 379.38)"/>
        <path d="M1033.28 848.71 1072.25 854.393 1078.21 844.109 1082.27 838.967 1087.68 834.366 1095.26 830.307 1107.98 827.059 1123.13 826.789 1136.94 830.307 1143.7 833.284 1149.93 837.073 1155.61 842.215 1160.21 847.898 1163.46 854.664 1165.89 862.783 1198.91 865.489 1204.59 866.843 1210.28 870.361 1212.17 873.338 1214.07 879.021 1215.15 888.223 1215.69 916.098 1214.88 942.079 1212.44 966.166 1208.92 988.087 1204.05 1010.01 1198.1 1029.76 1191.87 1047.36 1176.72 1080.1 1169.14 1093.63 1156.96 1112.58 1146.14 1126.65 1135.31 1138.83 1127.19 1146.68 1117.45 1153.17 1046.54 1132.34 964.542 1106.35 913.933 1088.49 897.154 1080.91 894.177 1077.67 894.447 1074.96 897.424 1070.9 906.897 1065.76 915.016 1060.08 923.947 1052.23 936.937 1039.24 950.739 1022.73 964 1004.6 976.991 984.569 988.899 963.73 999.724 942.079 1011.09 913.392 1018.67 885.787 1020.56 872.797 1021.92 855.476 1024.89 851.146 1028.68 849.251 1033.28 848.71ZM1037.07 867.655 1031.66 899.048 1025.16 926.924 1020.56 940.455 1014.34 955.07 1006.76 969.684 996.206 986.734 983.757 1004.05 967.248 1025.43 923.947 1075.23 1113.39 1134.23 1116.64 1133.15 1119.07 1130.98 1152.9 1086.33 1169.95 1057.37 1181.86 1028.95 1186.73 1013.53 1190.79 995.935 1194.31 975.908 1196.75 955.881 1198.37 932.336 1199.18 905.543 1198.1 883.351ZM1147.22 861.159 1144.78 856.017 1141 851.958 1135.58 848.439 1129.9 845.733 1123.13 844.38 1115.56 843.568 1105 845.192 1096.88 849.251 1091.47 855.747Z" style="fill: var(--s-deco)" transform="matrix(1 0 0 1.00012 3543.52 379.38)"/>
        <path d="M1389.44 689.036 1396.2 698.508 1402.7 705.003 1406.22 706.898 1415.96 707.709 1418.4 709.333 1420.02 711.769 1420.83 714.475 1418.4 719.347 1410.01 723.948 1397.02 726.925 1383.48 726.925 1372.12 723.948 1354.8 715.558 1350.47 714.746 1312.58 728.548 1299.05 731.796 1279.02 734.502 1267.11 735.044 1253.58 734.232 1238.97 731.796 1229.22 729.09 1210.28 720.971 1201.08 715.558 1192.69 709.063 1184.84 701.214 1177.8 692.825 1171.85 682.811 1166.71 671.444 1161.56 652.771 1159.67 630.037 1160.48 615.694 1162.92 601.621 1167.25 587.006 1172.66 572.933 1179.43 558.86 1187.82 545.058 1197.02 531.797 1207.57 519.348 1219.21 507.169 1231.39 495.803 1244.65 485.518 1258.72 476.317 1273.07 468.198 1288.22 461.161 1303.65 455.478 1319.61 451.419 1335.58 448.983 1351.82 447.9 1364.81 448.712 1379.15 451.148 1388.9 453.584 1408.11 461.432 1417.31 466.574 1425.97 472.799 1434.36 480.376 1441.4 488.766 1447.9 498.509 1453.31 509.876 1456.28 518.807 1459.8 539.375 1460.34 551.553 1459.53 566.438 1457.37 580.511 1454.12 593.502 1449.52 606.492 1438.15 629.225 1428.41 644.652 1418.67 657.371 1389.44 689.036ZM1386.73 711.769 1379.7 700.944 1375.37 692.554 1373.47 684.435 1378.88 677.398 1400.26 655.477 1409.46 644.652 1418.13 632.744 1426.79 618.941 1436.26 598.914 1440.05 587.818 1443.02 576.452 1444.65 564.003 1445.46 551.012 1444.92 539.645 1441.13 520.972 1438.42 513.123 1433.28 503.38 1427.33 494.991 1420.56 487.954 1405.13 476.588 1397.02 472.528 1384.3 467.927 1372.66 464.95 1352.09 463.056 1339.1 463.597 1326.38 465.492 1313.39 468.469 1300.67 472.528 1283.89 479.565 1267.92 488.225 1252.5 498.238 1237.88 509.876 1224.62 522.325 1212.44 536.127 1196.75 558.319 1185.11 581.594 1180.51 594.043 1177.53 606.221 1175.64 618.671 1174.82 630.849 1175.64 645.464 1177.8 657.642 1181.32 667.926 1185.92 677.94 1191.33 686.059 1197.29 693.095 1211.36 704.191 1229.76 713.393 1240.32 716.37 1257.91 719.617 1267.38 719.888 1291.47 718.264 1315.28 712.04 1326.38 707.709 1349.93 696.343 1353.71 695.531 1358.59 697.155 1364.27 703.379 1369.14 706.356 1386.73 711.769Z" style="fill: var(--s-deco)" transform="matrix(1 0 0 1.00012 3543.52 379.38)"/>
        <path d="M2313.66 1304.73 2307.7 1293.36 2296.33 1280.91 2288.76 1274.42 2273.87 1265.49 2263.86 1261.97 2256.28 1263.32 2250.6 1267.11 2248.43 1274.69 2244.37 1277.67 2239.77 1276.85 2237.34 1274.69 2235.98 1271.17 2235.44 1267.38 2235.98 1263.86 2240.04 1257.37 2244.64 1253.31 2250.87 1250.06 2257.36 1248.17 2264.13 1247.35 2274.41 1249.25 2290.92 1257.37 2301.48 1264.95 2313.93 1277.4 2324.48 1292.28 2333.14 1312.31 2354.79 1342.08 2361.29 1354.26 2368.59 1372.66 2374.01 1395.66 2376.17 1423.81 2374.55 1430.3 2371.3 1432.74 2368.86 1433.28 2365.62 1432.74 2363.45 1431.39 2362.1 1429.22 2361.02 1424.62 2358.31 1395.93 2356.14 1384.3 2352.9 1373.47 2344.51 1354.8 2336.39 1341.81 2331.25 1335.85 2326.1 1345.32 2316.36 1357.5 2310.95 1361.83 2302.29 1366.43 2292.82 1368.33 2287.13 1367.52 2279.56 1364 2276.04 1361.02 2273.06 1356.69 2271.17 1351.28 2270.35 1343.97 2270.89 1338.02 2272.25 1332.33 2277.39 1321.78 2285.24 1313.12 2295.25 1307.17 2300.94 1305.54 2313.66 1304.73ZM2317.44 1322.59 2312.57 1320.7 2307.16 1320.16 2299.31 1321.78 2292 1327.73 2288.76 1332.88 2286.86 1338.56 2286.32 1347.49 2287.95 1351.55 2292 1352.9 2297.15 1352.09 2302.83 1349.11 2307.97 1344.78 2312.84 1338.56 2316.63 1328.55 2317.44 1322.59Z" style="fill: var(--s-deco)" transform="matrix(1 0 0 1.00012 3543.52 379.38)"/>
        <path d="M1822.99 551.824 1810.55 553.718 1815.96 564.003 1817.85 569.956 1818.39 576.993 1816.5 587.006 1814.06 590.795 1809.46 595.125 1804.05 598.102 1798.1 599.997 1788.35 600.268 1783.21 599.185 1778.07 597.02 1773.47 592.96 1771.3 589.713 1769.68 585.112 1768.87 578.617 1769.95 571.039 1772.12 564.544 1778.34 553.718 1773.2 552.636 1768.06 553.448 1746.13 560.484 1738.83 564.544 1726.11 574.016 1722.05 578.617 1717.18 586.195 1714.2 593.231 1708.79 616.235 1707.7 618.4 1703.64 620.024 1699.31 618.671 1696.88 613.529 1697.42 598.914 1699.31 590.254 1702.29 582.676 1711.49 568.603 1717.18 562.649 1726.65 554.801 1736.66 548.576 1747.22 543.434 1756.96 540.187 1766.7 538.022 1779.69 537.751 1794.85 540.999 1810 537.751 1823.81 536.668 1834.36 537.48 1844.1 539.104 1853.04 542.081 1861.42 545.87 1875.77 554.53 1884.7 562.108 1890.92 568.874 1894.17 574.016 1896.34 580.511 1894.17 586.465 1891.74 588.36 1888.76 589.172 1886.05 588.36 1870.63 570.768 1864.4 565.085 1857.09 559.943 1847.62 555.613 1840.86 553.718 1822.99 551.824ZM1794.58 559.402 1790.25 563.461 1787.27 568.333 1785.11 573.475 1784.02 579.158 1784.84 582.676 1786.73 584.029 1789.17 584.841 1795.93 584.571 1801.07 582.406 1802.7 580.511 1803.24 577.534 1800.8 567.521 1794.58 559.402Z" style="fill: var(--s-deco)" transform="matrix(1 0 0 1.00012 3543.52 379.38)"/>
        <path d="M1133.69 1289.84 1140.72 1279.02 1155.07 1262.51 1162.65 1255.74 1176.99 1246 1187.54 1240.59 1196.48 1237.34 1204.87 1235.18 1216.23 1233.55 1219.21 1234.09 1221.92 1235.45 1223.54 1238.15 1224.08 1241.13 1223.54 1243.84 1221.92 1246 1218.94 1247.9 1196.75 1253.85 1180.24 1260.62 1166.98 1270.09 1160.75 1276.31 1154.8 1284.16 1148.84 1294.17 1159.94 1302.83 1164 1308.52 1167.52 1318.26 1168.06 1324.76 1167.52 1330.71 1164.27 1339.64 1160.48 1345.05 1155.88 1348.84 1146.95 1353.17 1141 1354.26 1136.12 1353.71 1131.79 1351.55 1128.01 1348.03 1125.3 1343.43 1123.4 1337.48 1122.59 1329.9 1123.95 1317.72 1126.92 1306.08 1117.99 1309.87 1113.12 1312.85 1108.25 1317.72 1102.84 1326.65 1098.78 1339.37 1097.15 1357.77 1097.69 1367.25 1098.51 1372.39 1102.29 1383.75 1100.13 1388.08 1095.8 1389.98 1092.55 1389.17 1089.57 1386.46 1086.6 1381.05 1083.08 1367.25 1082.54 1356.42 1083.35 1343.16 1084.97 1332.6 1087.68 1323.94 1091.47 1315.83 1095.53 1309.33 1105 1299.86 1114.74 1294.45 1122.05 1291.74 1133.69 1289.84ZM1138.02 1329.09 1138.56 1333.96 1139.91 1338.83 1145.6 1336.93 1149.39 1334.23 1152.09 1328.55 1152.63 1324.49 1152.09 1319.61 1149.93 1315.28 1146.68 1311.5 1142.35 1309.06 1138.29 1323.94 1138.02 1329.09Z" style="fill: var(--s-deco)" transform="matrix(1 0 0 1.00012 3543.52 379.38)"/>
        <path d="M1970.49 1039.78 1956.69 1037.88 1953.98 1036.53 1952.36 1034.37 1951.82 1030.58 1959.67 943.703 1960.75 941.538 1964.27 938.831 1966.7 938.29 1970.22 939.102 1972.11 941.267 1973.74 946.68 1966.7 1025.16 1976.44 1027.6 1979.15 1029.76 1981.59 1032.47 1983.75 1038.15 1986.46 1056.83 1987.54 1089.57 1986.46 1098.78 1982.94 1103.38 1977.26 1103.65 1974.01 1101.48 1972.39 1091.47 1971.84 1058.45 1970.49 1039.78Z" style="fill: var(--s-deco)" transform="matrix(1 0 0 1.00012 3543.52 379.38)"/>
        <path d="M1694.71 1199.18 1681.99 1196.75 1676.04 1192.96 1674.15 1188.36 1674.69 1185.65 1676.31 1183.49 1678.48 1181.86 1681.18 1181.32 1696.07 1184.3 1701.48 1183.76 1706.35 1181.59 1710.68 1178.07 1715.01 1172.66 1717.99 1166.44 1722.86 1152.36 1725.84 1149.39 1728.54 1149.11 1731.25 1149.39 1734.77 1152.9 1735.31 1155.61 1734.77 1162.1 1732.87 1169.41 1729.63 1176.72 1725.03 1183.49 1719.34 1189.71 1712.31 1194.58 1701.21 1198.64 1694.71 1199.18Z" style="fill: var(--s-deco)" transform="matrix(1 0 0 1.00012 3543.52 379.38)"/>
        <path d="M1616.77 959.4 1622.45 961.023 1627.33 963.189 1628.95 965.354 1629.49 968.331 1627.6 973.202 1623 975.367 1617.31 974.555 1613.52 975.096 1606.49 978.615 1596.74 987.275 1587.54 1001.35 1583.75 1004.33 1578.88 1004.33 1576.45 1002.7 1574.28 997.83 1577.26 990.793 1585.38 978.615 1591.33 972.12 1598.64 966.166 1610.01 960.753 1616.77 959.4Z" style="fill: var(--s-deco)" transform="matrix(1 0 0 1.00012 3543.52 379.38)"/>
        <path d="M1766.7 1073.34 1771.03 1074.15 1773.2 1076.04 1774.55 1078.48 1774.28 1083.08 1772.93 1084.97 1768.33 1088.22 1751.82 1096.61 1746.41 1098.24 1741.26 1096.07 1739.37 1091.2 1740.18 1087.95 1742.62 1085.24 1766.7 1073.34Z" style="fill: var(--s-deco)" transform="matrix(1 0 0 1.00012 3543.52 379.38)"/>
        <path d="M1587.27 1109.87 1582.67 1107.71 1570.22 1097.96 1565.08 1092.82 1564.27 1089.3 1564.81 1086.6 1568.6 1082.81 1571.3 1082.27 1576.72 1084.43 1589.44 1094.72 1594.31 1099.86 1595.12 1102.57 1593.5 1107.17 1591.33 1108.79 1587.27 1109.87Z" style="fill: var(--s-deco)" transform="matrix(1 0 0 1.00012 3543.52 379.38)"/>
        <path d="M1615.69 1037.07 1617.04 1030.31 1620.29 1027.33 1623 1026.79 1625.97 1027.33 1629.76 1031.12 1630.57 1033.82 1632.74 1051.69 1632.2 1054.39 1630.84 1057.1 1628.41 1058.45 1625.43 1058.99 1622.18 1058.45 1620.29 1056.56 1617.58 1049.25 1615.69 1037.07Z" style="fill: var(--s-deco)" transform="matrix(1 0 0 1.00012 3543.52 379.38)"/>
        <path d="M1705.81 1051.42 1705.27 1054.39 1701.75 1058.18 1699.04 1058.72 1694.98 1057.37 1692.82 1053.58 1691.74 1042.76 1691.47 1031.93 1691.74 1029.22 1693.09 1027.06 1695.26 1025.43 1697.96 1024.89 1702.02 1026.25 1704.46 1031.66 1705.81 1051.42Z" style="fill: var(--s-deco)" transform="matrix(1 0 0 1.00012 3543.52 379.38)"/>
        <path d="M2373.47 1043.3 2420.29 1028.41 2426.78 1028.68 2429.22 1030.58 2431.11 1033.28 2431.65 1036.26 2430.03 1041.13 2427.86 1043.03 2420.29 1046 2386.73 1057.1 2362.64 1063.86 2358.58 1063.05 2355.87 1061.16 2353.98 1058.45 2353.17 1054.12 2353.71 1049.79 2372.11 986.734 2374.01 978.885 2374.55 973.473 2372.65 959.4 2370.76 954.528 2367.51 952.904 2362.37 953.987 2356.69 957.505 2354.25 960.212 2352.63 964 2352.09 979.968 2350.46 982.674 2348.03 984.298 2345.05 984.839 2340.45 983.486 2337.74 979.427 2336.39 966.977 2336.93 961.023 2340.18 951.822 2344.24 946.409 2349.11 942.35 2354.52 939.373 2364.81 936.125 2371.03 935.854 2378.34 938.561 2382.4 941.808 2385.64 946.139 2388.62 952.904 2390.52 961.023 2391.33 972.661 2390.52 983.486 2388.08 994.853 2376.71 1030.31 2373.47 1043.3Z" style="fill: var(--s-deco)" transform="matrix(1 0 0 1.00012 3543.52 379.38)"/>
        <path d="M1088.22 1018.4 1106.62 1022.46 1109.87 1024.08 1112.04 1026.52 1112.58 1030.04 1112.04 1033.55 1110.14 1036.26 1107.17 1038.15 1103.92 1038.7 1067.65 1032.47 1050.33 1028.95 1044.92 1027.06 1042.48 1025.43 1041.13 1023.27 1041.4 1016.77 1043.03 1014.07 1045.73 1012.44 1049.25 1011.63 1070.63 1015.15 1082 986.734 1092.28 957.776 1086.87 957.776 1084.16 957.235 1081.73 955.611 1079.56 950.469 1080.37 947.762 1081.73 945.597 1093.09 937.478 1101.75 932.066 1107.44 929.63 1111.23 930.712 1113.12 932.336 1114.2 934.501 1115.01 938.29 1107.98 962.377 1088.22 1018.4Z" style="fill: var(--s-deco)" transform="matrix(1 0 0 1.00012 3543.52 379.38)"/>
        <path d="M1291.47 571.039 1297.96 557.507 1303.38 548.306 1308.25 542.081 1316.91 535.586 1320.7 534.233 1327.73 534.233 1335.31 538.022 1339.1 542.352 1342.35 547.764 1345.05 556.154 1346.95 565.897 1347.76 579.699 1346.95 592.419 1345.32 603.786 1340.72 623.271 1335.58 637.886 1332.88 639.51 1316.64 640.321 1302.02 639.51 1288.22 637.344 1274.96 634.097 1263.32 629.496 1256.02 625.707 1245.73 617.318 1241.94 612.446 1239.78 607.304 1238.97 601.891 1239.51 597.02 1241.4 592.69 1244.11 588.901 1249.52 584.029 1256.29 579.97 1263.86 576.993 1271.17 574.828 1291.47 571.039Z" style="fill: var(--s-deco)" transform="matrix(1 0 0 1.00012 3543.52 379.38)"/>
    </g>
</svg>