<svg xmlns="http://www.w3.org/2000/svg" xmlns:xlink="http://www.w3.org/1999/xlink" width="78"
    zoomAndPan="magnify" viewBox="0 0 58.5 57.749998" height="77"
    preserveAspectRatio="xMidYMid meet" version="1.0">
    <style>
        :root {
            --s-bg: #ffb39f;
            --s-deco: #eb9983;
        }
    </style>
    <defs>
        <clipPath id="13b26fb1d6">
            <path d="M 4 8 L 52 8 L 52 54 L 4 54 Z M 4 8 " clip-rule="nonzero" />
        </clipPath>
        <clipPath id="9f1b602f12">
            <path
                d="M 3.921875 8.679688 L 51.457031 8.535156 L 51.59375 53.804688 L 4.058594 53.949219 Z M 3.921875 8.679688 "
                clip-rule="nonzero" />
        </clipPath>
        <clipPath id="3b7ac77a32">
            <path
                d="M 29.472656 9.945312 L 32.332031 18.730469 C 33.429688 22.101562 36.574219 24.382812 40.121094 24.371094 L 49.378906 24.34375 C 50.214844 24.339844 50.957031 24.875 51.214844 25.667969 C 51.472656 26.460938 51.191406 27.332031 50.515625 27.820312 L 43.082031 33.226562 C 40.214844 35.3125 39.019531 39.007812 40.128906 42.375 L 43.03125 51.175781 C 43.289062 51.964844 43.011719 52.835938 42.339844 53.324219 C 41.667969 53.816406 40.753906 53.816406 40.082031 53.328125 L 32.566406 47.855469 C 29.703125 45.773438 25.816406 45.785156 22.964844 47.886719 L 15.484375 53.402344 C 14.8125 53.894531 13.902344 53.898438 13.226562 53.414062 C 12.550781 52.925781 12.265625 52.0625 12.523438 51.269531 L 15.371094 42.449219 C 16.457031 39.078125 15.242188 35.386719 12.363281 33.320312 L 4.894531 27.960938 C 4.214844 27.472656 3.929688 26.605469 4.183594 25.8125 C 4.4375 25.015625 5.175781 24.476562 6.011719 24.472656 L 15.269531 24.445312 C 18.816406 24.433594 21.949219 22.136719 23.023438 18.757812 L 25.828125 9.957031 C 26.082031 9.164062 26.816406 8.625 27.648438 8.621094 C 28.480469 8.617188 29.21875 9.152344 29.472656 9.945312 Z M 29.472656 9.945312 "
                clip-rule="nonzero" />
        </clipPath>
        <clipPath id="02f87b756f">
            <path
                d="M 0 0.449219 L 47.636719 0.449219 L 47.636719 45.902344 L 0 45.902344 Z M 0 0.449219 "
                clip-rule="nonzero" />
        </clipPath>
        <clipPath id="dffffa76b4">
            <path
                d="M -0.078125 0.679688 L 47.457031 0.535156 L 47.59375 45.804688 L 0.0585938 45.949219 Z M -0.078125 0.679688 "
                clip-rule="nonzero" />
        </clipPath>
        <clipPath id="422f51146d">
            <path
                d="M 25.472656 1.945312 L 28.332031 10.730469 C 29.429688 14.101562 32.574219 16.382812 36.121094 16.371094 L 45.378906 16.34375 C 46.214844 16.339844 46.957031 16.875 47.214844 17.667969 C 47.472656 18.460938 47.191406 19.332031 46.515625 19.820312 L 39.082031 25.226562 C 36.214844 27.3125 35.019531 31.007812 36.128906 34.375 L 39.03125 43.175781 C 39.289062 43.964844 39.011719 44.835938 38.339844 45.324219 C 37.667969 45.816406 36.753906 45.816406 36.082031 45.328125 L 28.566406 39.855469 C 25.703125 37.773438 21.816406 37.785156 18.964844 39.886719 L 11.484375 45.402344 C 10.8125 45.894531 9.902344 45.898438 9.226562 45.414062 C 8.550781 44.925781 8.265625 44.0625 8.523438 43.269531 L 11.371094 34.449219 C 12.457031 31.078125 11.242188 27.386719 8.363281 25.320312 L 0.894531 19.960938 C 0.214844 19.472656 -0.0703125 18.605469 0.183594 17.8125 C 0.4375 17.015625 1.175781 16.476562 2.011719 16.472656 L 11.269531 16.445312 C 14.816406 16.433594 17.949219 14.136719 19.023438 10.757812 L 21.828125 1.957031 C 22.082031 1.164062 22.816406 0.625 23.648438 0.621094 C 24.480469 0.617188 25.21875 1.152344 25.472656 1.945312 Z M 25.472656 1.945312 "
                clip-rule="nonzero" />
        </clipPath>
        <clipPath id="c066815f66">
            <rect x="0" width="48" y="0" height="46" />
        </clipPath>
        <clipPath id="7bc20c8a52">
            <path d="M 15 20 L 40 20 L 40 44 L 15 44 Z M 15 20 " clip-rule="nonzero" />
        </clipPath>
        <clipPath id="4c17a1e6f1">
            <path
                d="M 15.117188 20.453125 L 39.789062 20.378906 L 39.863281 43.953125 L 15.1875 44.027344 Z M 15.117188 20.453125 "
                clip-rule="nonzero" />
        </clipPath>
        <clipPath id="2f9bd76360">
            <path
                d="M 28.628906 21.308594 L 29.828125 24.996094 C 30.511719 27.105469 32.480469 28.527344 34.695312 28.523438 L 38.585938 28.511719 C 39.105469 28.507812 39.570312 28.84375 39.730469 29.339844 C 39.894531 29.835938 39.71875 30.378906 39.296875 30.683594 L 36.175781 32.953125 C 34.386719 34.253906 33.640625 36.566406 34.332031 38.667969 L 35.550781 42.367188 C 35.714844 42.859375 35.539062 43.402344 35.121094 43.710938 C 34.699219 44.015625 34.128906 44.015625 33.710938 43.710938 L 30.546875 41.410156 C 28.757812 40.109375 26.332031 40.117188 24.550781 41.429688 L 21.402344 43.746094 C 20.984375 44.054688 20.414062 44.058594 19.992188 43.753906 C 19.570312 43.453125 19.390625 42.910156 19.550781 42.414062 L 20.746094 38.710938 C 21.429688 36.601562 20.667969 34.296875 18.867188 33.003906 L 15.738281 30.757812 C 15.3125 30.453125 15.132812 29.910156 15.292969 29.414062 C 15.453125 28.917969 15.914062 28.578125 16.433594 28.578125 L 20.324219 28.566406 C 22.539062 28.558594 24.5 27.121094 25.171875 25.011719 L 26.347656 21.316406 C 26.507812 20.820312 26.964844 20.484375 27.484375 20.480469 C 28.003906 20.480469 28.464844 20.8125 28.628906 21.308594 Z M 28.628906 21.308594 "
                clip-rule="nonzero" />
        </clipPath>
        <clipPath id="a2981d8e4e">
            <path d="M 0 0.347656 L 24.976562 0.347656 L 24.976562 24 L 0 24 Z M 0 0.347656 "
                clip-rule="nonzero" />
        </clipPath>
        <clipPath id="a268b8f2da">
            <path
                d="M 0.117188 0.453125 L 24.789062 0.378906 L 24.863281 23.953125 L 0.1875 24.027344 Z M 0.117188 0.453125 "
                clip-rule="nonzero" />
        </clipPath>
        <clipPath id="1f765254de">
            <path
                d="M 13.628906 1.308594 L 14.828125 4.996094 C 15.511719 7.105469 17.480469 8.527344 19.695312 8.523438 L 23.585938 8.511719 C 24.105469 8.507812 24.570312 8.84375 24.730469 9.339844 C 24.894531 9.835938 24.71875 10.378906 24.296875 10.683594 L 21.175781 12.953125 C 19.386719 14.253906 18.640625 16.566406 19.332031 18.667969 L 20.550781 22.367188 C 20.714844 22.859375 20.539062 23.402344 20.121094 23.710938 C 19.699219 24.015625 19.128906 24.015625 18.710938 23.710938 L 15.546875 21.410156 C 13.757812 20.109375 11.332031 20.117188 9.550781 21.429688 L 6.402344 23.746094 C 5.984375 24.054688 5.414062 24.058594 4.992188 23.753906 C 4.570312 23.453125 4.390625 22.910156 4.550781 22.414062 L 5.746094 18.710938 C 6.429688 16.601562 5.667969 14.296875 3.867188 13.003906 L 0.738281 10.757812 C 0.3125 10.453125 0.132812 9.910156 0.292969 9.414062 C 0.453125 8.917969 0.914062 8.578125 1.433594 8.578125 L 5.324219 8.566406 C 7.539062 8.558594 9.5 7.121094 10.171875 5.011719 L 11.347656 1.316406 C 11.507812 0.820312 11.964844 0.484375 12.484375 0.480469 C 13.003906 0.480469 13.464844 0.8125 13.628906 1.308594 Z M 13.628906 1.308594 "
                clip-rule="nonzero" />
        </clipPath>
        <clipPath id="5c306bd24a">
            <rect x="0" width="25" y="0" height="24" />
        </clipPath>
        <clipPath id="1c70ed080c">
            <path d="M 25 6 L 50 6 L 50 34 L 25 34 Z M 25 6 " clip-rule="nonzero" />
        </clipPath>
        <clipPath id="8395214cf6">
            <path
                d="M 36.605469 2.53125 L 54.257812 15.34375 L 37.796875 38.019531 L 20.144531 25.210938 Z M 36.605469 2.53125 "
                clip-rule="nonzero" />
        </clipPath>
        <clipPath id="12e22309fd">
            <path
                d="M 38.234375 31.628906 L 45.382812 26.5 C 48.210938 24.472656 49.890625 21.210938 49.898438 17.730469 C 49.910156 14.253906 48.246094 10.980469 45.429688 8.9375 C 42.617188 6.894531 38.988281 6.328125 35.683594 7.414062 C 32.378906 8.5 29.800781 11.109375 28.746094 14.425781 L 26.085938 22.8125 C 25.058594 26.0625 26.222656 29.601562 28.980469 31.605469 C 31.734375 33.605469 35.464844 33.617188 38.234375 31.628906 Z M 38.234375 31.628906 "
                clip-rule="nonzero" />
        </clipPath>
        <clipPath id="0858fa0ae8">
            <path
                d="M 0 0.308594 L 24.972656 0.308594 L 24.972656 27.675781 L 0 27.675781 Z M 0 0.308594 "
                clip-rule="nonzero" />
        </clipPath>
        <clipPath id="d46e8e67a0">
            <path
                d="M 11.605469 -3.46875 L 29.257812 9.34375 L 12.796875 32.019531 L -4.855469 19.210938 Z M 11.605469 -3.46875 "
                clip-rule="nonzero" />
        </clipPath>
        <clipPath id="9f83b73eb8">
            <path
                d="M 13.234375 25.628906 L 20.382812 20.5 C 23.210938 18.472656 24.890625 15.210938 24.898438 11.730469 C 24.910156 8.253906 23.246094 4.980469 20.429688 2.9375 C 17.617188 0.894531 13.988281 0.328125 10.683594 1.414062 C 7.378906 2.5 4.800781 5.109375 3.746094 8.425781 L 1.085938 16.8125 C 0.0585938 20.0625 1.222656 23.601562 3.980469 25.605469 C 6.734375 27.605469 10.464844 27.617188 13.234375 25.628906 Z M 13.234375 25.628906 "
                clip-rule="nonzero" />
        </clipPath>
        <clipPath id="32ebb41870">
            <rect x="0" width="25" y="0" height="28" />
        </clipPath>
        <clipPath id="8f930f411b">
            <path d="M 19 6 L 32 6 L 32 28 L 19 28 Z M 19 6 " clip-rule="nonzero" />
        </clipPath>
        <clipPath id="29d018cc51">
            <path
                d="M 26.996094 5.597656 L 32.617188 8.007812 L 23.738281 28.742188 L 18.117188 26.332031 Z M 26.996094 5.597656 "
                clip-rule="nonzero" />
        </clipPath>
        <clipPath id="09f215532a">
            <path
                d="M 29.808594 6.800781 C 30.550781 7.121094 31.140625 7.722656 31.441406 8.476562 C 31.742188 9.230469 31.734375 10.070312 31.414062 10.816406 L 24.949219 25.914062 C 24.628906 26.660156 24.027344 27.25 23.273438 27.550781 C 22.519531 27.851562 21.679688 27.839844 20.933594 27.523438 C 20.1875 27.203125 19.601562 26.601562 19.296875 25.847656 C 18.996094 25.09375 19.007812 24.253906 19.328125 23.507812 L 25.792969 8.410156 C 26.109375 7.664062 26.714844 7.074219 27.464844 6.773438 C 28.21875 6.472656 29.0625 6.484375 29.808594 6.800781 Z M 29.808594 6.800781 "
                clip-rule="nonzero" />
        </clipPath>
        <clipPath id="6c72a05439">
            <path
                d="M 0 0.308594 L 12.886719 0.308594 L 12.886719 21.960938 L 0 21.960938 Z M 0 0.308594 "
                clip-rule="nonzero" />
        </clipPath>
        <clipPath id="2e286e06c2">
            <path
                d="M 7.996094 -0.402344 L 13.617188 2.007812 L 4.738281 22.742188 L -0.882812 20.332031 Z M 7.996094 -0.402344 "
                clip-rule="nonzero" />
        </clipPath>
        <clipPath id="44994d4731">
            <path
                d="M 10.808594 0.800781 C 11.550781 1.121094 12.140625 1.722656 12.441406 2.476562 C 12.742188 3.230469 12.734375 4.070312 12.414062 4.816406 L 5.949219 19.914062 C 5.628906 20.660156 5.027344 21.25 4.273438 21.550781 C 3.519531 21.851562 2.679688 21.839844 1.933594 21.523438 C 1.1875 21.203125 0.601562 20.601562 0.296875 19.847656 C -0.00390625 19.09375 0.0078125 18.253906 0.328125 17.507812 L 6.792969 2.410156 C 7.109375 1.664062 7.714844 1.074219 8.464844 0.773438 C 9.21875 0.472656 10.0625 0.484375 10.808594 0.800781 Z M 10.808594 0.800781 "
                clip-rule="nonzero" />
        </clipPath>
        <clipPath id="a8bd64230c">
            <rect x="0" width="13" y="0" height="22" />
        </clipPath>
        <clipPath id="4c66529e21">
            <path d="M 35 13 L 52 13 L 52 30 L 35 30 Z M 35 13 " clip-rule="nonzero" />
        </clipPath>
        <clipPath id="b142722f75">
            <path
                d="M 34.660156 16.945312 L 39.1875 12.398438 L 52.722656 25.882812 L 48.195312 30.429688 Z M 34.660156 16.945312 "
                clip-rule="nonzero" />
        </clipPath>
        <clipPath id="169a62c309">
            <path
                d="M 36.921875 14.671875 C 37.523438 14.070312 38.339844 13.730469 39.191406 13.726562 C 40.042969 13.726562 40.859375 14.0625 41.460938 14.664062 L 50.445312 23.613281 C 51.050781 24.214844 51.390625 25.027344 51.390625 25.878906 C 51.394531 26.730469 51.054688 27.546875 50.457031 28.152344 C 49.855469 28.753906 49.039062 29.09375 48.1875 29.097656 C 47.335938 29.097656 46.519531 28.761719 45.917969 28.160156 L 36.933594 19.210938 C 36.328125 18.609375 35.988281 17.792969 35.988281 16.945312 C 35.984375 16.09375 36.324219 15.273438 36.921875 14.671875 Z M 36.921875 14.671875 "
                clip-rule="nonzero" />
        </clipPath>
        <clipPath id="828ad4633e">
            <path
                d="M 0.933594 0.683594 L 16.402344 0.683594 L 16.402344 16.152344 L 0.933594 16.152344 Z M 0.933594 0.683594 "
                clip-rule="nonzero" />
        </clipPath>
        <clipPath id="672d4fcd4a">
            <path
                d="M -0.339844 3.945312 L 4.1875 -0.601562 L 17.722656 12.882812 L 13.195312 17.429688 Z M -0.339844 3.945312 "
                clip-rule="nonzero" />
        </clipPath>
        <clipPath id="dc257ab05b">
            <path
                d="M 1.921875 1.671875 C 2.523438 1.070312 3.339844 0.730469 4.191406 0.726562 C 5.042969 0.726562 5.859375 1.0625 6.460938 1.664062 L 15.445312 10.613281 C 16.050781 11.214844 16.390625 12.027344 16.390625 12.878906 C 16.394531 13.730469 16.054688 14.546875 15.457031 15.152344 C 14.855469 15.753906 14.039062 16.09375 13.1875 16.097656 C 12.335938 16.097656 11.519531 15.761719 10.917969 15.160156 L 1.933594 6.210938 C 1.328125 5.609375 0.988281 4.792969 0.988281 3.945312 C 0.984375 3.09375 1.324219 2.273438 1.921875 1.671875 Z M 1.921875 1.671875 "
                clip-rule="nonzero" />
        </clipPath>
        <clipPath id="8e5850b163">
            <rect x="0" width="17" y="0" height="17" />
        </clipPath>
        <clipPath id="0648d5ea1a">
            <path d="M 27 13 L 44 13 L 44 33 L 27 33 Z M 27 13 " clip-rule="nonzero" />
        </clipPath>
        <clipPath id="513230c344">
            <path
                d="M 37.457031 11.839844 L 45.179688 17.652344 L 32.027344 35.140625 L 24.300781 29.332031 Z M 37.457031 11.839844 "
                clip-rule="nonzero" />
        </clipPath>
        <clipPath id="1e01218139">
            <path
                d="M 29.996094 32.175781 L 41.566406 22.203125 C 42.664062 21.257812 43.273438 19.863281 43.226562 18.414062 C 43.179688 16.964844 42.476562 15.617188 41.320312 14.746094 C 40.160156 13.875 38.667969 13.574219 37.265625 13.929688 C 35.859375 14.285156 34.691406 15.257812 34.085938 16.578125 L 27.714844 30.460938 C 27.429688 31.082031 27.617188 31.824219 28.164062 32.234375 C 28.714844 32.648438 29.476562 32.621094 29.996094 32.175781 Z M 29.996094 32.175781 "
                clip-rule="nonzero" />
        </clipPath>
        <clipPath id="1776bcaa96">
            <path
                d="M 0.367188 0.445312 L 16.308594 0.445312 L 16.308594 19.722656 L 0.367188 19.722656 Z M 0.367188 0.445312 "
                clip-rule="nonzero" />
        </clipPath>
        <clipPath id="d9ae01483a">
            <path
                d="M 10.457031 -1.160156 L 18.179688 4.652344 L 5.027344 22.140625 L -2.699219 16.332031 Z M 10.457031 -1.160156 "
                clip-rule="nonzero" />
        </clipPath>
        <clipPath id="51857eef66">
            <path
                d="M 2.996094 19.175781 L 14.566406 9.203125 C 15.664062 8.257812 16.273438 6.863281 16.226562 5.414062 C 16.179688 3.964844 15.476562 2.617188 14.320312 1.746094 C 13.160156 0.875 11.667969 0.574219 10.265625 0.929688 C 8.859375 1.285156 7.691406 2.257812 7.085938 3.578125 L 0.714844 17.460938 C 0.429688 18.082031 0.617188 18.824219 1.164062 19.234375 C 1.714844 19.648438 2.476562 19.621094 2.996094 19.175781 Z M 2.996094 19.175781 "
                clip-rule="nonzero" />
        </clipPath>
        <clipPath id="9d2cb0ec4d">
            <rect x="0" width="17" y="0" height="20" />
        </clipPath>
        <clipPath id="5d148d9bb4">
            <path d="M 13 4 L 26 4 L 26 25 L 13 25 Z M 13 4 " clip-rule="nonzero" />
        </clipPath>
        <clipPath id="81817d8316">
            <path
                d="M 19.078125 3.75 L 26.382812 6.097656 L 20.175781 25.414062 L 12.871094 23.066406 Z M 19.078125 3.75 "
                clip-rule="nonzero" />
        </clipPath>
        <clipPath id="a2b6cd6c86">
            <path
                d="M 22.730469 4.925781 C 23.699219 5.234375 24.507812 5.917969 24.972656 6.824219 C 25.433594 7.730469 25.523438 8.78125 25.210938 9.75 L 21.359375 21.734375 C 21.046875 22.703125 20.363281 23.507812 19.457031 23.972656 C 18.554688 24.4375 17.5 24.523438 16.53125 24.214844 C 15.5625 23.902344 14.757812 23.21875 14.292969 22.3125 C 13.828125 21.410156 13.742188 20.355469 14.054688 19.386719 L 17.90625 7.402344 C 18.21875 6.433594 18.902344 5.628906 19.804688 5.164062 C 20.710938 4.699219 21.761719 4.613281 22.730469 4.925781 Z M 22.730469 4.925781 "
                clip-rule="nonzero" />
        </clipPath>
        <clipPath id="c9eba4a3ec">
            <path
                d="M 0.5625 0.402344 L 12.699219 0.402344 L 12.699219 20.632812 L 0.5625 20.632812 Z M 0.5625 0.402344 "
                clip-rule="nonzero" />
        </clipPath>
        <clipPath id="cb5b46a912">
            <path
                d="M 6.078125 -0.25 L 13.382812 2.097656 L 7.175781 21.414062 L -0.128906 19.066406 Z M 6.078125 -0.25 "
                clip-rule="nonzero" />
        </clipPath>
        <clipPath id="3961090e58">
            <path
                d="M 9.730469 0.925781 C 10.699219 1.234375 11.507812 1.917969 11.972656 2.824219 C 12.433594 3.730469 12.523438 4.78125 12.210938 5.75 L 8.359375 17.734375 C 8.046875 18.703125 7.363281 19.507812 6.457031 19.972656 C 5.554688 20.4375 4.5 20.523438 3.53125 20.214844 C 2.5625 19.902344 1.757812 19.21875 1.292969 18.3125 C 0.828125 17.410156 0.742188 16.355469 1.054688 15.386719 L 4.90625 3.402344 C 5.21875 2.433594 5.902344 1.628906 6.804688 1.164062 C 7.710938 0.699219 8.761719 0.613281 9.730469 0.925781 Z M 9.730469 0.925781 "
                clip-rule="nonzero" />
        </clipPath>
        <clipPath id="8a4eb21b2d">
            <rect x="0" width="13" y="0" height="21" />
        </clipPath>
        <clipPath id="61c3a883f2">
            <path d="M 31 20 L 45 20 L 45 36 L 31 36 Z M 31 20 " clip-rule="nonzero" />
        </clipPath>
        <clipPath id="41841ce558">
            <path
                d="M 40.007812 19.53125 L 46.414062 25.546875 L 34.84375 37.867188 L 28.4375 31.847656 Z M 40.007812 19.53125 "
                clip-rule="nonzero" />
        </clipPath>
        <clipPath id="ee9d7aca15">
            <path
                d="M 33.101562 34.980469 L 43.363281 28.597656 C 44.269531 28.035156 44.859375 27.085938 44.964844 26.023438 C 45.070312 24.964844 44.679688 23.917969 43.902344 23.1875 L 42.523438 21.890625 C 41.746094 21.160156 40.675781 20.835938 39.625 21.007812 C 38.570312 21.175781 37.660156 21.828125 37.15625 22.765625 L 31.425781 33.40625 C 31.171875 33.878906 31.265625 34.46875 31.660156 34.835938 C 32.054688 35.203125 32.644531 35.261719 33.101562 34.980469 Z M 33.101562 34.980469 "
                clip-rule="nonzero" />
        </clipPath>
        <clipPath id="e33b7315a6">
            <path d="M 0 0.824219 L 14 0.824219 L 14 15.339844 L 0 15.339844 Z M 0 0.824219 "
                clip-rule="nonzero" />
        </clipPath>
        <clipPath id="6787df5ed6">
            <path
                d="M 9.007812 -0.46875 L 15.414062 5.546875 L 3.84375 17.867188 L -2.5625 11.847656 Z M 9.007812 -0.46875 "
                clip-rule="nonzero" />
        </clipPath>
        <clipPath id="437b5de76b">
            <path
                d="M 2.101562 14.980469 L 12.363281 8.597656 C 13.269531 8.035156 13.859375 7.085938 13.964844 6.023438 C 14.070312 4.964844 13.679688 3.917969 12.902344 3.1875 L 11.523438 1.890625 C 10.746094 1.160156 9.675781 0.835938 8.625 1.007812 C 7.570312 1.175781 6.660156 1.828125 6.15625 2.765625 L 0.425781 13.40625 C 0.171875 13.878906 0.265625 14.46875 0.660156 14.835938 C 1.054688 15.203125 1.644531 15.261719 2.101562 14.980469 Z M 2.101562 14.980469 "
                clip-rule="nonzero" />
        </clipPath>
        <clipPath id="01069d61b2">
            <rect x="0" width="14" y="0" height="16" />
        </clipPath>
        <clipPath id="4fedabafa1">
            <path d="M 30 21 L 41 21 L 41 35 L 30 35 Z M 30 21 " clip-rule="nonzero" />
        </clipPath>
        <clipPath id="b6f87ddbd0">
            <path
                d="M 38.691406 20.382812 L 41.632812 22.523438 L 32.417969 35.203125 L 29.476562 33.0625 Z M 38.691406 20.382812 "
                clip-rule="nonzero" />
        </clipPath>
        <clipPath id="fa83079afd">
            <path
                d="M 40.160156 21.453125 C 40.550781 21.738281 40.8125 22.164062 40.886719 22.640625 C 40.964844 23.117188 40.847656 23.605469 40.5625 23.992188 L 33.496094 33.71875 C 33.210938 34.109375 32.785156 34.371094 32.308594 34.445312 C 31.832031 34.523438 31.34375 34.40625 30.957031 34.121094 C 30.566406 33.835938 30.304688 33.410156 30.226562 32.933594 C 30.152344 32.457031 30.269531 31.972656 30.554688 31.582031 L 37.621094 21.855469 C 37.902344 21.464844 38.332031 21.203125 38.808594 21.128906 C 39.285156 21.054688 39.769531 21.171875 40.160156 21.453125 Z M 40.160156 21.453125 "
                clip-rule="nonzero" />
        </clipPath>
        <clipPath id="8a96b281f0">
            <path d="M 0 0 L 11 0 L 11 13.625 L 0 13.625 Z M 0 0 " clip-rule="nonzero" />
        </clipPath>
        <clipPath id="9a241875c9">
            <path
                d="M 8.691406 -0.617188 L 11.632812 1.523438 L 2.417969 14.203125 L -0.523438 12.0625 Z M 8.691406 -0.617188 "
                clip-rule="nonzero" />
        </clipPath>
        <clipPath id="bc679e40f8">
            <path
                d="M 10.160156 0.453125 C 10.550781 0.738281 10.8125 1.164062 10.886719 1.640625 C 10.964844 2.117188 10.847656 2.605469 10.5625 2.992188 L 3.496094 12.71875 C 3.210938 13.109375 2.785156 13.371094 2.308594 13.445312 C 1.832031 13.523438 1.34375 13.40625 0.957031 13.121094 C 0.566406 12.835938 0.304688 12.410156 0.226562 11.933594 C 0.152344 11.457031 0.269531 10.972656 0.554688 10.582031 L 7.621094 0.855469 C 7.902344 0.464844 8.332031 0.203125 8.808594 0.128906 C 9.285156 0.0546875 9.769531 0.171875 10.160156 0.453125 Z M 10.160156 0.453125 "
                clip-rule="nonzero" />
        </clipPath>
        <clipPath id="ba16939934">
            <rect x="0" width="11" y="0" height="14" />
        </clipPath>
    </defs>
    <g clip-path="url(#13b26fb1d6)">
        <g clip-path="url(#9f1b602f12)">
            <g clip-path="url(#3b7ac77a32)">
                <g transform="matrix(1, 0, 0, 1, 4, 8)">
                    <g clip-path="url(#c066815f66)">
                        <g clip-path="url(#02f87b756f)">
                            <g clip-path="url(#dffffa76b4)">
                                <g clip-path="url(#422f51146d)">
                                    <path style="fill:var(--s-deco);"
                                        d="M -4 -3.628906 L 51.351562 -3.796875 L 51.511719 48.878906 L -3.839844 49.046875 Z M -4 -3.628906 "
                                        fill-opacity="1" fill-rule="nonzero" />
                                </g>
                            </g>
                        </g>
                    </g>
                </g>
            </g>
        </g>
    </g>
    <g clip-path="url(#7bc20c8a52)">
        <g clip-path="url(#4c17a1e6f1)">
            <g clip-path="url(#2f9bd76360)">
                <g transform="matrix(1, 0, 0, 1, 15, 20)">
                    <g clip-path="url(#5c306bd24a)">
                        <g clip-path="url(#a2981d8e4e)">
                            <g clip-path="url(#a268b8f2da)">
                                <g clip-path="url(#1f765254de)">
                                    <path style="fill:var(--s-bg);"
                                        d="M -2.316406 -2.183594 L 27.316406 -2.273438 L 27.402344 25.925781 L -2.230469 26.015625 Z M -2.316406 -2.183594 "
                                        fill-opacity="1" fill-rule="nonzero" />
                                </g>
                            </g>
                        </g>
                    </g>
                </g>
            </g>
        </g>
    </g>
    <g clip-path="url(#1c70ed080c)">
        <g clip-path="url(#8395214cf6)">
            <g clip-path="url(#12e22309fd)">
                <g transform="matrix(1, 0, 0, 1, 25, 6)">
                    <g clip-path="url(#32ebb41870)">
                        <g clip-path="url(#0858fa0ae8)">
                            <g clip-path="url(#d46e8e67a0)">
                                <g clip-path="url(#9f83b73eb8)">
                                    <path style="fill:var(--s-bg);"
                                        d="M 8.285156 -5.878906 L 32.578125 11.753906 L 6.0625 48.285156 L -18.230469 30.652344 Z M 8.285156 -5.878906 "
                                        fill-opacity="1" fill-rule="nonzero" />
                                </g>
                            </g>
                        </g>
                    </g>
                </g>
            </g>
        </g>
    </g>
    <g clip-path="url(#8f930f411b)">
        <g clip-path="url(#29d018cc51)">
            <g clip-path="url(#09f215532a)">
                <g transform="matrix(1, 0, 0, 1, 19, 6)">
                    <g clip-path="url(#a8bd64230c)">
                        <g clip-path="url(#6c72a05439)">
                            <g clip-path="url(#2e286e06c2)">
                                <g clip-path="url(#44994d4731)">
                                    <path style="fill:var(--s-deco);"
                                        d="M 7.996094 -0.402344 L 13.617188 2.007812 L 4.75 22.71875 L -0.875 20.3125 Z M 7.996094 -0.402344 "
                                        fill-opacity="1" fill-rule="nonzero" />
                                </g>
                            </g>
                        </g>
                    </g>
                </g>
            </g>
        </g>
    </g>
    <g clip-path="url(#4c66529e21)">
        <g clip-path="url(#b142722f75)">
            <g clip-path="url(#169a62c309)">
                <g transform="matrix(1, 0, 0, 1, 35, 13)">
                    <g clip-path="url(#8e5850b163)">
                        <g clip-path="url(#828ad4633e)">
                            <g clip-path="url(#672d4fcd4a)">
                                <g clip-path="url(#dc257ab05b)">
                                    <path style="fill:var(--s-deco);"
                                        d="M -0.339844 3.945312 L 4.1875 -0.601562 L 17.722656 12.882812 L 13.195312 17.429688 Z M -0.339844 3.945312 "
                                        fill-opacity="1" fill-rule="nonzero" />
                                </g>
                            </g>
                        </g>
                    </g>
                </g>
            </g>
        </g>
    </g>
    <g clip-path="url(#0648d5ea1a)">
        <g clip-path="url(#513230c344)">
            <g clip-path="url(#1e01218139)">
                <g transform="matrix(1, 0, 0, 1, 27, 13)">
                    <g clip-path="url(#9d2cb0ec4d)">
                        <g clip-path="url(#1776bcaa96)">
                            <g clip-path="url(#d9ae01483a)">
                                <g clip-path="url(#51857eef66)">
                                    <path style="fill:var(--s-deco);"
                                        d="M 9.566406 -1.828125 L 19.070312 5.320312 L 2.679688 27.117188 L -6.828125 19.96875 Z M 9.566406 -1.828125 "
                                        fill-opacity="1" fill-rule="nonzero" />
                                </g>
                            </g>
                        </g>
                    </g>
                </g>
            </g>
        </g>
    </g>
    <g clip-path="url(#5d148d9bb4)">
        <g clip-path="url(#81817d8316)">
            <g clip-path="url(#a2b6cd6c86)">
                <g transform="matrix(1, 0, 0, 1, 13, 4)">
                    <g clip-path="url(#8a4eb21b2d)">
                        <g clip-path="url(#c9eba4a3ec)">
                            <g clip-path="url(#cb5b46a912)">
                                <g clip-path="url(#3961090e58)">
                                    <path style="fill:var(--s-bg);"
                                        d="M 6.078125 -0.25 L 13.382812 2.097656 L 7.183594 21.386719 L -0.121094 19.039062 Z M 6.078125 -0.25 "
                                        fill-opacity="1" fill-rule="nonzero" />
                                </g>
                            </g>
                        </g>
                    </g>
                </g>
            </g>
        </g>
    </g>
    <g clip-path="url(#61c3a883f2)">
        <g clip-path="url(#41841ce558)">
            <g clip-path="url(#ee9d7aca15)">
                <g transform="matrix(1, 0, 0, 1, 31, 20)">
                    <g clip-path="url(#01069d61b2)">
                        <g clip-path="url(#e33b7315a6)">
                            <g clip-path="url(#6787df5ed6)">
                                <g clip-path="url(#437b5de76b)">
                                    <path style="fill:var(--s-bg);"
                                        d="M 8.269531 -1.164062 L 16.152344 6.242188 L 2.265625 21.023438 L -5.617188 13.617188 Z M 8.269531 -1.164062 "
                                        fill-opacity="1" fill-rule="nonzero" />
                                </g>
                            </g>
                        </g>
                    </g>
                </g>
            </g>
        </g>
    </g>
    <g clip-path="url(#4fedabafa1)">
        <g clip-path="url(#b6f87ddbd0)">
            <g clip-path="url(#fa83079afd)">
                <g transform="matrix(1, 0, 0, 1, 30, 21)">
                    <g clip-path="url(#ba16939934)">
                        <g clip-path="url(#8a96b281f0)">
                            <g clip-path="url(#9a241875c9)">
                                <g clip-path="url(#bc679e40f8)">
                                    <path style="fill:var(--s-bg);"
                                        d="M 8.691406 -0.617188 L 11.632812 1.523438 L 2.425781 14.191406 L -0.515625 12.050781 Z M 8.691406 -0.617188 "
                                        fill-opacity="1" fill-rule="nonzero" />
                                </g>
                            </g>
                        </g>
                    </g>
                </g>
            </g>
        </g>
    </g>
</svg>