<svg viewBox="0 0 295 293" xmlns="http://www.w3.org/2000/svg" xmlns:xlink="http://www.w3.org/1999/xlink"
    xml:space="preserve" overflow="hidden">
    <style>
        :root {
            --s-bg: #FFA891;
            --s-deco: #EB9079;
        }
    </style>
    <defs>
        <clipPath id="clip0">
            <rect x="4099" y="3085" width="295" height="293" />
        </clipPath>
        <clipPath id="clip1">
            <rect x="4173" y="3142" width="147" height="173" />
        </clipPath>
        <clipPath id="clip2">
            <rect x="4173" y="3142" width="246" height="173" />
        </clipPath>
        <clipPath id="clip3">
            <rect x="4173" y="3142" width="246" height="173" />
        </clipPath>
        <clipPath id="clip4">
            <rect x="4173" y="3144" width="147" height="168" />
        </clipPath>
        <clipPath id="clip5">
            <path
                d="M4252.66 3146.73 4313.22 3181.92C4317.14 3184.2 4319.56 3188.39 4319.56 3192.92L4319.56 3263.38C4319.56 3267.92 4317.14 3272.11 4313.22 3274.39L4252.66 3309.57C4248.74 3311.85 4243.89 3311.85 4239.97 3309.57L4179.41 3274.39C4175.48 3272.11 4173.07 3267.92 4173.07 3263.38L4173.07 3192.92C4173.07 3188.39 4175.48 3184.2 4179.41 3181.92L4239.97 3146.73C4243.89 3144.46 4248.74 3144.46 4252.66 3146.73Z" />
        </clipPath>
        <clipPath id="clip6">
            <rect x="4204" y="3086" width="84" height="53" />
        </clipPath>
        <clipPath id="clip7">
            <path
                d="M4204.81 3134.22 4204.81 3116.17C4204.81 3111.65 4207.23 3107.47 4211.16 3105.22L4239.65 3088.88C4243.58 3086.63 4248.41 3086.63 4252.34 3088.88L4280.83 3105.22C4284.76 3107.47 4287.18 3111.65 4287.18 3116.17L4287.18 3134.22C4287.18 3135.73 4286.37 3137.12 4285.07 3137.88 4283.76 3138.64 4282.14 3138.64 4280.83 3137.89L4252.34 3121.55C4248.41 3119.29 4243.58 3119.29 4239.65 3121.55L4211.16 3137.89C4209.85 3138.64 4208.23 3138.64 4206.92 3137.88 4205.61 3137.12 4204.81 3135.73 4204.81 3134.22Z" />
        </clipPath>
        <clipPath id="clip8">
            <rect x="4118" y="3135" width="69" height="85" />
        </clipPath>
        <clipPath id="clip9">
            <path d="M4145.35 3220.51 4100.76 3194.4 4142.44 3123.25 4187.03 3149.36Z" />
        </clipPath>
        <clipPath id="clip10">
            <path
                d="M4141.51 3218.26 4125.94 3209.14C4122.04 3206.86 4119.65 3202.66 4119.7 3198.13L4119.99 3165.29C4120.03 3160.76 4122.47 3156.59 4126.4 3154.34L4154.91 3138.02C4158.84 3135.77 4163.67 3135.79 4167.57 3138.08L4183.14 3147.2C4184.44 3147.96 4185.24 3149.36 4185.23 3150.88 4185.23 3152.39 4184.41 3153.78 4183.1 3154.53L4154.6 3170.86C4150.67 3173.11 4148.23 3177.27 4148.18 3181.8L4147.89 3214.65C4147.87 3216.16 4147.06 3217.54 4145.74 3218.29 4144.43 3219.04 4142.81 3219.02 4141.51 3218.26Z" />
        </clipPath>
        <clipPath id="clip11">
            <rect x="4118" y="3245" width="68" height="84" />
        </clipPath>
        <clipPath id="clip12">
            <path d="M4186.8 3314.78 4142.1 3340.72 4100.71 3269.4 4145.41 3243.47Z" />
        </clipPath>
        <clipPath id="clip13">
            <path
                d="M4182.95 3317.02 4167.34 3326.08C4163.43 3328.35 4158.6 3328.35 4154.68 3326.08L4126.24 3309.64C4122.32 3307.38 4119.9 3303.2 4119.88 3298.67L4119.71 3265.83C4119.69 3261.31 4122.09 3257.11 4126 3254.84L4141.61 3245.79C4142.92 3245.03 4144.53 3245.03 4145.84 3245.78 4147.15 3246.53 4147.96 3247.92 4147.97 3249.43L4148.13 3282.28C4148.16 3286.81 4150.58 3290.99 4154.5 3293.25L4182.94 3309.69C4184.25 3310.45 4185.06 3311.84 4185.06 3313.35 4185.06 3314.86 4184.25 3316.26 4182.95 3317.02Z" />
        </clipPath>
        <clipPath id="clip14">
            <rect x="4204" y="3324" width="84" height="52" />
        </clipPath>
        <clipPath id="clip15">
            <path
                d="M4287.18 3328.78 4287.18 3346.82C4287.18 3351.35 4284.75 3355.52 4280.83 3357.78L4252.33 3374.12C4248.4 3376.37 4243.58 3376.37 4239.65 3374.12L4211.15 3357.78C4207.23 3355.52 4204.81 3351.35 4204.81 3346.82L4204.81 3328.78C4204.81 3327.27 4205.61 3325.87 4206.92 3325.11 4208.23 3324.36 4209.84 3324.36 4211.15 3325.11L4239.65 3341.45C4243.58 3343.7 4248.4 3343.7 4252.33 3341.45L4280.83 3325.11C4282.14 3324.36 4283.75 3324.36 4285.06 3325.11 4286.37 3325.87 4287.18 3327.27 4287.18 3328.78Z" />
        </clipPath>
        <clipPath id="clip16">
            <rect x="4306" y="3245" width="67" height="84" />
        </clipPath>
        <clipPath id="clip17">
            <path d="M4346.96 3243.57 4391.49 3269.79 4349.65 3340.84 4305.11 3314.62Z" />
        </clipPath>
        <clipPath id="clip18">
            <path
                d="M4350.79 3245.83 4366.34 3254.99C4370.24 3257.28 4372.62 3261.49 4372.56 3266.01L4372.19 3298.86C4372.14 3303.38 4369.69 3307.54 4365.75 3309.79L4337.21 3326.05C4333.28 3328.28 4328.45 3328.25 4324.55 3325.95L4309 3316.8C4307.7 3316.03 4306.91 3314.63 4306.92 3313.12 4306.93 3311.61 4307.74 3310.22 4309.05 3309.47L4337.6 3293.21C4341.53 3290.97 4343.98 3286.81 4344.04 3282.28L4344.41 3249.43C4344.43 3247.92 4345.25 3246.54 4346.56 3245.8 4347.88 3245.05 4349.49 3245.07 4350.79 3245.83Z" />
        </clipPath>
        <clipPath id="clip19">
            <rect x="4307" y="3135" width="66" height="85" />
        </clipPath>
        <clipPath id="clip20">
            <path d="M4305.59 3149.12 4350.38 3123.33 4391.53 3194.78 4346.75 3220.57Z" />
        </clipPath>
        <clipPath id="clip21">
            <path
                d="M4309.46 3146.89 4325.09 3137.89C4329.01 3135.63 4333.84 3135.64 4337.75 3137.92L4366.13 3154.45C4370.05 3156.73 4372.46 3160.92 4372.47 3165.45L4372.52 3198.29C4372.53 3202.81 4370.12 3207 4366.2 3209.25L4350.56 3218.26C4349.25 3219.01 4347.64 3219.01 4346.33 3218.26 4345.02 3217.5 4344.21 3216.11 4344.21 3214.6L4344.15 3181.75C4344.14 3177.22 4341.74 3173.03 4337.82 3170.76L4309.44 3154.22C4308.13 3153.46 4307.33 3152.06 4307.33 3150.55 4307.34 3149.04 4308.14 3147.65 4309.46 3146.89Z" />
        </clipPath>
        <clipPath id="clip22">
            <path
                d="M4253.56 3166.75 4311.47 3200.88C4316.15 3203.64 4319.03 3208.67 4319.03 3214.11L4319.03 3242.53C4319.03 3247.97 4316.15 3253 4311.47 3255.76L4253.56 3289.89C4248.89 3292.64 4243.1 3292.64 4238.43 3289.89L4180.52 3255.76C4175.84 3253 4172.96 3247.97 4172.96 3242.53L4172.96 3214.11C4172.96 3208.67 4175.84 3203.64 4180.52 3200.88L4238.43 3166.75C4243.1 3164 4248.89 3164 4253.56 3166.75Z" />
        </clipPath>
    </defs>
    <g clip-path="url(#clip0)" transform="translate(-4099 -3085)">
        <g clip-path="url(#clip1)">
            <g clip-path="url(#clip2)">
                <g clip-path="url(#clip3)">
                    <g clip-path="url(#clip4)">
                        <g clip-path="url(#clip5)">
                            <path d="M0 0.0496915 146.273 0.0496915 146.273 170.32 0 170.32Z"
                                style="fill:var(--s-deco);" transform="matrix(1.00148 0 0 1 4173.07 3143)" />
                        </g>
                    </g>
                </g>
            </g>
        </g>
        <g clip-path="url(#clip6)">
            <g clip-path="url(#clip7)">
                <path d="M105.548 56.5283 105.548 0.240351 188.004 0.240351 188.004 56.5283Z"
                    style="fill:var(--s-deco);" transform="matrix(1.00016 0 0 1 4099.24 3085)" />
            </g>
        </g>
        <g clip-path="url(#clip8)">
            <g clip-path="url(#clip9)">
                <g clip-path="url(#clip10)">
                    <path d="M48.57 136.958 0 108.509 41.6723 37.3613 90.2423 65.8104Z" style="fill:var(--s-bg);"
                        transform="matrix(1.00016 0 0 1 4099.24 3085)" />
                </g>
            </g>
        </g>
        <g clip-path="url(#clip11)">
            <g clip-path="url(#clip12)">
                <g clip-path="url(#clip13)">
                    <path d="M90.0172 228.349 41.329 256.6-0.0534114 185.284 48.6311 157.033Z"
                        style="fill:var(--s-deco);" transform="matrix(1.00016 0 0 1 4099.24 3085)" />
                </g>
            </g>
        </g>
        <g clip-path="url(#clip14)">
            <g clip-path="url(#clip15)">
                <path d="M187.901 236.467 187.901 292.755 105.445 292.755 105.445 236.467Z" style="fill:var(--s-bg);"
                    transform="matrix(1.00016 0 0 1 4099.24 3085)" />
            </g>
        </g>
        <g clip-path="url(#clip16)">
            <g clip-path="url(#clip17)">
                <g clip-path="url(#clip18)">
                    <path d="M245.208 157.125 293.713 185.685 251.877 256.733 203.371 228.173Z"
                        style="fill:var(--s-deco);" transform="matrix(1.00016 0 0 1 4099.24 3085)" />
                </g>
            </g>
        </g>
        <g clip-path="url(#clip19)">
            <g clip-path="url(#clip20)">
                <g clip-path="url(#clip21)">
                    <path d="M203.841 65.5396 252.617 37.4528 293.766 108.902 244.986 136.993Z"
                        style="fill:var(--s-bg);" transform="matrix(1.00016 0 0 1 4099.24 3085)" />
                </g>
            </g>
        </g>
        <g>
            <g clip-path="url(#clip22)">
                <path d="M73.7039 79.6898 219.677 79.6898 219.677 206.893 73.7039 206.893Z" style="fill:var(--s-bg);"
                    transform="matrix(1.00016 0 0 1 4099.24 3085)" />
            </g>
        </g>
    </g>
</svg>