<svg viewBox="0 0 400 300" fill="none" xmlns="http://www.w3.org/2000/svg">
  <rect x="30" y="50" width="100" height="200" rx="12" fill="currentColor" fill-opacity="0.15" />
  <rect x="45" y="65" width="70" height="50" rx="8" fill="currentColor" fill-opacity="0.2" />
  <rect x="45" y="125" width="70" height="30" rx="6" fill="currentColor" fill-opacity="0.15" />
  <rect x="45" y="165" width="70" height="30" rx="6" fill="currentColor" fill-opacity="0.15" />
  <rect x="45" y="205" width="70" height="30" rx="6" fill="currentColor" fill-opacity="0.15" />
  
  <rect x="150" y="50" width="100" height="200" rx="12" fill="currentColor" fill-opacity="0.18" />
  <rect x="165" y="65" width="70" height="50" rx="8" fill="currentColor" fill-opacity="0.25" />
  <rect x="165" y="125" width="70" height="30" rx="6" fill="currentColor" fill-opacity="0.18" />
  <rect x="165" y="165" width="70" height="30" rx="6" fill="currentColor" fill-opacity="0.18" />
  <rect x="165" y="205" width="70" height="30" rx="6" fill="currentColor" fill-opacity="0.18" />
  
  <rect x="270" y="50" width="100" height="200" rx="12" fill="currentColor" fill-opacity="0.15" />
  <rect x="285" y="65" width="70" height="50" rx="8" fill="currentColor" fill-opacity="0.2" />
  <rect x="285" y="125" width="70" height="30" rx="6" fill="currentColor" fill-opacity="0.15" />
  <rect x="285" y="165" width="70" height="30" rx="6" fill="currentColor" fill-opacity="0.15" />
  <rect x="285" y="205" width="70" height="30" rx="6" fill="currentColor" fill-opacity="0.15" />
  
  <path d="M 130 150 L 150 150" stroke="currentColor" stroke-width="3" stroke-opacity="0.3" />
  <path d="M 250 150 L 270 150" stroke="currentColor" stroke-width="3" stroke-opacity="0.3" />
  
  <circle cx="200" cy="280" r="15" fill="currentColor" fill-opacity="0.2" />
  <circle cx="200" cy="280" r="8" fill="currentColor" fill-opacity="0.3" />
</svg>
