<svg viewBox="0 0 800 800" xmlns="http://www.w3.org/2000/svg">

  <defs>
    <radialGradient id="glow" cx="50%" cy="50%" r="50%">
      <stop offset="0%" stop-color="var(--s-bg)" stop-opacity="0.8"/>
      <stop offset="100%" stop-color="var(--s-bg)" stop-opacity="0"/>
    </radialGradient>
    <linearGradient id="glass" x1="0%" y1="0%" x2="100%" y2="100%">
      <stop offset="0%" stop-color="var(--s-bg)" stop-opacity="0.9" />
      <stop offset="100%" stop-color="var(--s-bg-2)" stop-opacity="0.3" />
    </linearGradient>
    <filter id="shadow" x="-50%" y="-50%" width="200%" height="200%">
      <feDropShadow dx="0" dy="25" stdDeviation="30" flood-opacity="0.1" />
    </filter>
  </defs>
  
  <rect x="0" y="0" width="800" height="800" fill="url(#glow)" />
  
  <!-- Base Device Layer -->
  <g transform="translate(150, 200) rotate(-10)" filter="url(#shadow)">
    <rect width="500" height="400" rx="40" fill="url(#glass)" stroke="var(--s-bg-3)" stroke-width="4"/>
    <rect x="30" y="30" width="440" height="340" rx="24" fill="var(--s-bg)"/>
    
    <!-- UI elements representing customization -->
    <rect x="50" y="50" width="200" height="30" rx="15" fill="var(--s-bg-2)" />
    <!-- Content Cards -->
    <rect x="50" y="110" width="180" height="120" rx="20" fill="var(--s-deco)" opacity="0.8" />
    <rect x="250" y="110" width="120" height="120" rx="20" fill="var(--s-bg-3)" />
    <rect x="390" y="110" width="60" height="120" rx="20" fill="var(--s-bg-2)" />
    <!-- Bottom Dashboard elements -->
    <circle cx="100" cy="290" r="40" fill="var(--s-bg-3)" />
    <rect x="160" y="270" width="290" height="20" rx="10" fill="var(--s-bg-2)" />
    <rect x="160" y="310" width="150" height="20" rx="10" fill="var(--s-deco)" opacity="0.5" />
  </g>

  <!-- Floating Customized Panels -->
  <g transform="translate(500, 480) rotate(15)" filter="url(#shadow)">
    <rect width="200" height="150" rx="20" fill="url(#glass)" stroke="var(--s-deco)" stroke-width="4"/>
    <circle cx="100" cy="75" r="30" fill="var(--s-deco)" />
  </g>
  <g transform="translate(100, 520) rotate(-5)" filter="url(#shadow)">
    <rect width="220" height="80" rx="40" fill="var(--s-bg-3)"/>
    <circle cx="40" cy="40" r="20" fill="var(--s-bg)" />
    <rect x="80" y="30" width="100" height="20" rx="10" fill="var(--s-bg)" />
  </g>
  
  <path d="M 650 150 L 670 150 M 660 140 L 660 160" stroke="var(--s-deco)" stroke-width="4" stroke-linecap="round"/>
  <path d="M 120 280 L 140 280 M 130 270 L 130 290" stroke="var(--s-bg-3)" stroke-width="4" stroke-linecap="round"/>
</svg>
