<svg viewBox="-500 -500 1000 1000" xmlns="http://www.w3.org/2000/svg">

  <defs>
    <filter id="shadow" x="-50%" y="-50%" width="200%" height="200%">
      <feDropShadow dx="0" dy="20" stdDeviation="25" flood-color="var(--s-bg-3)" flood-opacity="0.25" />
    </filter>
    <linearGradient id="grad1" x1="0%" y1="0%" x2="100%" y2="100%">
      <stop offset="0%" stop-color="var(--s-bg-2)" stop-opacity="0.8"/>
      <stop offset="100%" stop-color="var(--s-bg-3)" stop-opacity="0.9"/>
    </linearGradient>
  </defs>

  <!-- Orbital patterns -->
  <g opacity="0.6" stroke="var(--s-bg)" stroke-width="4" fill="none">
    <ellipse cx="0" cy="0" rx="350" ry="150" transform="rotate(-25)" stroke-dasharray="25 10 5 10" />
    <ellipse cx="0" cy="0" rx="400" ry="180" transform="rotate(25)" stroke-dasharray="10 20" stroke-width="8"/>
  </g>

  <!-- Central Hub (Spark Store) -->
  <g filter="url(#shadow)">
    <!-- Base aura -->
    <circle cx="0" cy="0" r="110" fill="url(#grad1)"/>
    <!-- Overlapping geometry -->
    <circle cx="0" cy="0" r="70" fill="var(--s-deco)" opacity="0.4"/>
    <rect x="-35" y="-35" width="70" height="70" rx="15" fill="var(--s-bg)" transform="rotate(45)"/>
    <circle cx="0" cy="0" r="15" fill="var(--s-bg-3)" />
  </g>

  <!-- Outer orbiting nodes -->
  <!-- Node 1: UOS / Deepin (Diamond-like) -->
  <g transform="translate(180, -260) rotate(-25)" filter="url(#shadow)">
     <rect x="-45" y="-45" width="90" height="90" rx="20" transform="rotate(45)" fill="var(--s-bg-2)"/>
     <rect x="-25" y="-25" width="50" height="50" rx="10" transform="rotate(45)" fill="var(--s-deco)" opacity="0.5"/>
  </g>
  <path d="M 60 -80 L 140 -200" stroke="var(--s-deco)" stroke-width="5" stroke-dasharray="8,8" opacity="0.7"/>

  <!-- Node 2: Kylin (Hexagon) -->
  <g transform="translate(-280, 100) rotate(15)" filter="url(#shadow)">
     <path d="M 0 -60 L 52 -30 L 52 30 L 0 60 L -52 30 L -52 -30 Z" fill="var(--s-bg-3)"/>
     <circle cx="0" cy="0" r="25" fill="var(--s-bg)"/>
  </g>
  <path d="M -90 30 L -210 75" stroke="var(--s-bg-3)" stroke-width="5" stroke-dasharray="8,8" opacity="0.7"/>

  <!-- Node 3: Fangde (Tech Container) -->
  <g transform="translate(300, 180) rotate(-10)" filter="url(#shadow)">
     <rect x="-60" y="-50" width="120" height="100" rx="25" fill="var(--s-bg)"/>
     <rect x="-35" y="-25" width="70" height="50" rx="15" fill="var(--s-bg-2)"/>
     <circle cx="-45" cy="-35" r="5" fill="var(--s-deco)"/>
     <circle cx="45" cy="35" r="5" fill="var(--s-deco)"/>
  </g>
  <path d="M 80 50 L 230 140" stroke="var(--s-bg)" stroke-width="5" stroke-dasharray="8,8" opacity="0.7"/>

  <!-- Node 4: Small satellite -->
  <g transform="translate(-150, -180)" filter="url(#shadow)">
    <circle cx="0" cy="0" r="30" fill="var(--s-deco)" opacity="0.8"/>
  </g>
  <path d="M -60 -60 L -120 -150" stroke="var(--s-deco)" stroke-width="3" stroke-dasharray="5,5" opacity="0.5"/>


  <!-- Floating particles -->
  <g filter="url(#shadow)">
    <circle cx="360" cy="-60" r="20" fill="var(--s-bg)" opacity="0.6"/>
    <circle cx="-60" cy="280" r="15" fill="var(--s-bg-3)" opacity="0.8"/>
    <rect x="200" y="-50" width="15" height="15" rx="4" fill="var(--s-deco)" opacity="0.5"/>
    <rect x="-100" y="150" width="20" height="20" rx="5" fill="var(--s-bg-2)" transform="rotate(30)"/>
  </g>
</svg>
