<svg viewBox="700 400 2400 2100"
    xmlns="http://www.w3.org/2000/svg"
    xmlns:xlink="http://www.w3.org/1999/xlink" xml:space="preserve" overflow="hidden">
    <style>
    :root {
        --s-deco: #561504;
        --s-bg: #FFBEAD;
    }
    </style>
    <g transform="translate(-2997 -877)">
        <path d="M2891.86 1520.49 2891.27 1516.12 2887.77 1509.99 2883.69 1506.49 2878.72 1504.44 2863.26 1501.82 2845.45 1503.57 2832.03 1275.35 2843.7 1268.93 2853.92 1261.34 2862.38 1252.88 2869.97 1243.24 2876.39 1233.32 2881.64 1222.82 2887.77 1206.47 2891.86 1190.42 2896.23 1160.95 2897.11 1139.06 2896.23 1113.38 2891.86 1069.31 2886.6 1043.63 2880.48 1028.45 2875.22 1023.49 2869.68 1021.74 2834.07 1014.44 2832.03 975.042 2831.15 924.846 2830.86 756.453 2829.99 704.797 2827.94 663.064 2826.19 646.137 2822.11 628.627 2820.06 625.708 2818.31 624.833 2441.84 634.172 2448.84 625.416 2455.55 619.579 2510.42 579.597 2525.6 567.34 2539.31 554.207 2555.36 535.237 2561.2 525.607 2565.87 515.1 2568.79 504.594 2569.96 493.504 2569.37 485.332 2567.33 477.745 2563.83 470.74 2558.87 464.612 2552.74 459.358 2545.73 455.856 2538.15 453.522 2530.27 452.646 2522.97 453.23 2506.63 457.899 2497.87 461.985 2486.78 468.697 2475.4 477.745 2463.73 488.834 2452.93 501.092 2442.71 515.1 2432.5 531.151 2424.04 548.37 2416.16 567.048 2409.74 587.769 2396.89 573.177 2386.97 563.546 2375.59 554.207 2361.29 544.284 2339.4 533.194 2326.85 528.233 2313.72 524.731 2299.71 522.688 2284.24 521.813 2271.11 522.688 2259.73 524.731 2250.1 527.941 2240.76 532.903 2233.75 538.156 2228.21 543.992 2223.83 550.705 2221.21 557.125 2220.33 564.13 2221.21 571.134 2225.58 583.391 2229.38 588.936 2235.51 595.648 2242.8 601.777 2251.85 607.322 2266.15 614.326 2281.91 620.163 2313.43 628.627 2355.74 635.631 2332.11 637.966 2288.62 639.425 2109.43 642.343 2057.19 644.678 2020.71 647.888 2011.66 649.931 2007.87 651.682 2006.99 653.141 2010.79 665.69 2035.01 1171.16 2038.8 1229.53 2041.43 1244.41 2042.89 1247.04 2044.93 1248.5 2085.79 1247.04 2135.4 1690.35 2137.16 1707.27 2136.28 1709.9 2105.64 1709.9 2074.99 1713.4 2044.93 1720.7 2030.05 1725.66 2026.84 1708.44 2083.46 1692.68 2091.04 1688.59 2092.5 1683.93 2084.04 1632.85 2038.22 1392.38 2044.06 1369.32 2043.77 1355.02 2042.31 1345.39 2034.43 1318.25 2020.13 1284.1 1996.49 1238.58 1978.69 1207.93 1967.6 1179.33 1955.63 1153.07 1943.08 1129.13 1929.66 1107.25 1914.48 1085.94 1899.01 1066.68 1883.25 1049.46 1866.91 1033.99 1849.4 1019.4 1831.89 1006.27 1814.67 994.888 1797.16 985.257 1778.77 976.21 1760.68 968.914 1725.95 957.824 1691.22 951.403 1674.88 949.944 1650.07 949.652 1616.8 952.571 1594.33 956.948 1562.81 966.579 1544.72 973.875 1527.5 982.338 1509.11 992.845 1490.14 1005.98 1463 1028.74 1434.98 1058.51 1422.14 1074.85 1409.59 1093.24 1397.05 1113.67 1384.5 1136.72 1373.41 1159.78 1362.9 1185.17 1352.69 1213.77 1342.76 1245.29 1187.5 1252.29 1171.45 1254.63 1167.07 1256.67 1165.32 1258.42 1164.16 1264.55 1164.74 1282.06 1178.46 1600.17 1164.45 1578.86 1155.4 1566.9 1144.89 1554.93 1132.64 1542.97 1113.96 1528.96 1103.74 1523.12 1092.65 1519.03 1081.27 1516.12 1069.02 1515.24 1062.89 1515.82 1056.17 1517.87 1048.59 1523.41 1045.38 1527.5 1043.04 1532.46 1041.29 1538.59 1040.71 1546.76 1041.58 1557.56 1043.92 1567.77 1053.26 1593.45 1068.14 1619.43 1077.48 1632.56 1090.03 1646.86 1117.46 1673.71 1147.81 1696.77 1166.78 1709.32 1160.07 1710.48 1143.43 1711.07 959.283 1716.03 952.862 1716.9 948.485 1718.95 945.275 1722.16 943.232 1726.53 942.648 1732.66 950.528 2049.31 956.948 2245.43 963.661 2401.86 967.163 2448.55 968.622 2460.81 970.373 2465.77 975.626 2464.02 977.669 2459.06 977.961 2455.55 967.455 2072.07 984.965 2063.61 991.094 2059.53 996.639 2054.27 1001.02 2048.14 1004.81 2037.93 1005.39 2031.22 1002.77 2013.71 1003.64 2011.37 1028.16 1985.11 1033.41 1978.1 1040.12 1964.68 1041.87 1952.71 1041.29 1946.29 1039.25 1936.66 1017.94 1869.24 1015.32 1852.9 1017.65 1842.98 1020.86 1838.02 1026.99 1830.43 1050.92 1805.62 1058.51 1795.99 1064.64 1785.19 1067.56 1777.9 1069.6 1769.43 1069.89 1753.68 1069.02 1747.84 1061.43 1728.58 1195.09 1724.78 1188.09 1737.62 1184.58 1741.13 1178.46 1745.8 1172.04 1748.42 1148.98 1753.68 1139.64 1756.59 1126.8 1763.31 1115.13 1772.35 1111.92 1776.44 1109.58 1781.4 1107.83 1788.7 1106.66 1810.88 1109 1815.84 1114.25 1818.17 1117.17 1817.3 1120.96 1812.63 1123.3 1803.29 1123.59 1789.57 1127.68 1782.28 1132.64 1777.9 1145.48 1770.89 1159.19 1766.81 1172.62 1764.18 1184.88 1759.22 1192.46 1753.97 1197.72 1748.71 1202.1 1742.59 1209.1 1728.58 1214.06 1731.5 1216.98 1734.12 1218.73 1737.62 1219.61 1742.59 1213.48 1779.94 1213.77 1798.04 1215.23 1806.21 1217.56 1812.92 1222.52 1821.97 1228.07 1828.97 1246.75 1845.02 1253.75 1853.19 1255.79 1861.36 1251.12 1892.59 1251.71 1895.51 1253.17 1898.43 1255.79 1900.18 1259 1900.76 1262.51 1900.18 1264.55 1898.14 1266.01 1894.93 1270.68 1868.95 1271.26 1861.95 1270.39 1854.94 1266.59 1844.73 1261.92 1838.31 1237.7 1817.01 1233.03 1809.71 1230.7 1804.46 1228.65 1789.57 1228.94 1781.69 1234.2 1744.04 1233.61 1737.33 1228.94 1723.91 1402.3 1719.24 1376.03 1736.46 1352.1 1755.72 1339.84 1767.68 1327.88 1781.98 1320.87 1792.2 1314.75 1803.29 1309.49 1815.55 1305.7 1828.1 1303.07 1841.52 1302.2 1856.11 1303.95 1875.08 1309.2 1894.34 1308.62 1897.55 1297.53 1918.27 1286.73 1948.33 1281.48 1969.35 1275.64 1999.11 1254.33 1967.6 1229.53 1936.95 1214.06 1920.03 1195.67 1901.93 1167.95 1879.17 1136.14 1856.99 1118.63 1847.36 1097.62 1837.14 1092.65 1837.43 1090.03 1839.48 1086.53 1845.9 1085.36 1853.19 1085.65 1900.76 1087.11 1932.87 1092.36 1990.07 1096.45 2018.08 1106.66 2068.57 1112.79 2091.34 1122.42 2121.4 1133.22 2149.12 1144.89 2174.8 1158.03 2199.9 1172.04 2223.83 1202.97 2269.07 1237.7 2312.84 1220.48 2309.93 1186.04 2307.3 1169.99 2307.88 1142.56 2311.97 1106.08 2322.18 1101.99 2324.23 1099.66 2326.85 1099.08 2330.06 1102.87 2338.53 1115.13 2357.79 1124.47 2369.46 1147.23 2392.22 1171.74 2411.19 1185.46 2419.66 1200.93 2428.12 1218.73 2436.29 1237.12 2443.3 1257.84 2449.43 1280.89 2454.68 1303.95 2458.47 1329.92 2460.81 1358.81 2461.97 1394.13 2460.52 1416.01 2457.89 1441.11 2450.59 1445.2 2450.3 1458.04 2453.22 1460.67 2452.64 1465.04 2449.43 1468.25 2442.71 1417.18 2370.04 1398.5 2341.44 1380.12 2310.8 1360.86 2276.36 1337.22 2227.33 1326.42 2201.07 1316.5 2174.51 1308.03 2147.08 1301.03 2119.35 1293.73 2077.04 1291.98 2055.73 1291.11 2034.43 1291.69 2015.17 1295.78 1981.31 1298.99 1966.43 1304.82 1946.87 1311.54 1929.36 1319.12 1913.9 1327.88 1899.01 1337.22 1885.88 1356.77 1863.99 1376.32 1847.06 1391.21 1836.85 1403.76 1829.26 1423.31 1819.92 1454.54 1841.23 1494.81 1871.58 1467.96 1867.79 1460.08 1867.2 1453.37 1867.79 1448.7 1868.95 1441.7 1873.04 1439.65 1878.58 1441.41 1884.42 1469.13 1885 1483.14 1886.46 1516.12 1893.76 1562.81 1908.64 1589.37 1919.15 1642.48 1943.08 1712.53 1980.14 1755.13 2004.95 1797.16 2031.22 1838.02 2058.36 1877.42 2086.37 1913.9 2114.1 1937.24 2133.07 1977.81 2168.38 1996.49 2186.48 2025.09 2218.29 2014.58 2244.84 2006.7 2268.19 2002.91 2283.95 2000.57 2297.67 1999.7 2310.22 2000.28 2321.6 2002.03 2331.23 2008.45 2347.28 2012.83 2353.99 2023.05 2364.21 2033.84 2370.63 2042.6 2373.25 2049.89 2374.13 2056.9 2373.25 2062.74 2371.5 2067.7 2368.59 2076.16 2360.12 2082.87 2346.7 2086.96 2329.77 2086.67 2309.63 2084.62 2297.08 2081.71 2285.12 2075.58 2267.9 2068.86 2253.02 2061.28 2239.3 2045.52 2215.95 2061.86 2180.64 2073.53 2159.92 2092.5 2128.98 2115.85 2094.84 2140.66 2060.4 2168.09 2024.21 2226.75 1951.54 2287.45 1880.33 2346.41 1814.09 2399.23 1756.3 2470.73 1680.72 2481.53 1669.92 2514.51 1693.56 2517.42 1694.14 2522.68 1691.81 2525.01 1686.55 2523.85 1683.05 2522.39 1681.3 2490.58 1657.37 2518.3 1620.89 2687.86 1757.76 2673.85 1788.7 2639.12 1764.18 2635.62 1763.31 2632.99 1764.18 2629.2 1767.98 2628.62 1772.65 2630.95 1776.44 2666.85 1802.41 2605.56 1931.7 2531.14 2094.84 2493.79 2171.01 2463.73 2225 2447.67 2250.97 2431.04 2275.2 2413.53 2298.25 2395.14 2320.43 2375.3 2341.74 2353.99 2362.17 2331.81 2381.72 2307.01 2400.69 2273.74 2423.74 2271.69 2426.66 2271.11 2430.46 2271.69 2433.67 2275.78 2438.04 2278.99 2438.92 2299.71 2428.12 2316.64 2417.03 2342.32 2396.89 2358.66 2382.3 2392.52 2347.86 2412.36 2324.81 2431.33 2301.17 2452.05 2272.86 2474.23 2239.88 2496.41 2226.75 2514.21 2214.49 2532.89 2199.9 2556.53 2179.47 2589.22 2147.08 2625.7 2105.34 2644.08 2081.12 2663.35 2053.4 2681.44 2025.09 2699.83 1993.28 2718.21 1957.67 2731.05 1930.82 2755.86 1870.41 2767.82 1836.85 2842.54 1829.26 2847.79 1828.1 2856.25 1816.42 2857.71 1809.71 2851.88 1645.99 2854.21 1637.81 2862.67 1619.72 2867.34 1601.33 2867.93 1589.37 2867.34 1578.57 2865.59 1568.06 2876.97 1554.35 2883.69 1543.84 2888.65 1534.21 2890.69 1527.79 2891.86 1520.49ZM999.849 1854.36 1000.72 1862.82 1005.69 1883.84 1023.78 1937.83 1026.7 1951.84 1026.11 1957.38 1022.61 1967.01 1017.94 1973.43 995.179 1996.78 991.094 2001.74 987.883 2006.99 986.716 2012.25 989.926 2032.09 989.051 2037.64 986.716 2042.01 979.42 2049.31 966.871 2055.44 958.116 1731.5 1049.17 1728.87 1049.46 1735 1054.72 1751.34 1055.88 1760.68 1055.01 1767.68 1053.26 1774.4 1050.05 1780.82 1043.92 1789.57 1019.69 1815.84 1012.11 1824.59 1005.69 1833.93 1002.77 1840.35 1000.72 1847.06 999.849 1854.36ZM1435.86 2430.46 1130.59 2332.11 1130.59 2330.35 1148.98 2326.27 1167.66 2323.64 1186.63 2322.77 1204.43 2323.64 1222.82 2325.98 1241.79 2330.06 1260.46 2335.32 1297.53 2348.74 1324.38 2360.71 1349.18 2373.25 1392.38 2398.65 1422.73 2419.37 1435.86 2430.46ZM1338.68 2272.86 1322.33 2250.39 1303.95 2222.96 1285.85 2193.77 1248.21 2128.4 1193.92 2026.84 1162.7 1964.09 1113.96 1862.53 1115.13 1861.36 1143.73 1880.63 1177.87 1907.77 1195.38 1923.53 1212.6 1940.75 1228.94 1958.84 1243.54 1977.23 1259.88 2002.62 1266.01 2015.17 1270.68 2028.01 1273.6 2040.26 1275.93 2069.74 1280.31 2104.18 1285.85 2129.86 1292.27 2154.08 1307.16 2198.73 1322.04 2235.21 1338.68 2272.86ZM2860.34 1035.75 2865.88 1037.79 2869.09 1042.75 2871.43 1052.09 2875.81 1078.65 2879.6 1120.38 2880.18 1138.77 2877.85 1173.2 2872.01 1200.05 2863.84 1219.9 2856.54 1232.45 2849.83 1241.2 2842.83 1248.5 2831.15 1256.96 2827.94 1218.73 2825.9 1210.85 2821.52 1207.64 2816.56 1207.06 2778.33 1205.89 2770.45 1204.14 2767.24 1202.1 2764.61 1198.59 2763.16 1193.92 2762.86 1179.92 2764.32 1173.79 2768.41 1166.49 2776.29 1160.07 2781.83 1157.44 2796.72 1153.36 2806.64 1152.19 2824.15 1152.19 2838.16 1155.11 2843.12 1152.77 2844.87 1150.44 2845.16 1147.52 2844.29 1144.31 2838.74 1139.64 2825.9 1136.72 2802.26 1137.01 2781.25 1138.77 2762.28 1135.26 2759.07 1133.51 2756.15 1130.59 2754.69 1126.51 2754.11 1112.79 2755.57 1106.37 2759.36 1099.08 2766.95 1092.65 2772.49 1090.03 2787.67 1086.23 2810.73 1084.77 2828.24 1085.65 2845.75 1087.98 2848.66 1087.4 2851.29 1085.94 2853.04 1083.32 2853.63 1080.4 2853.04 1077.77 2848.37 1073.68 2835.24 1070.18 2818.02 1068.43 2800.51 1068.14 2784.75 1068.72 2774.25 1070.77 2756.44 1079.23 2757.9 1069.02 2760.82 1059.68 2763.45 1054.42 2767.53 1049.46 2773.08 1045.08 2783.29 1038.96 2794.67 1034.58 2806.06 1031.66 2818.31 1030.78 2860.34 1035.75ZM2529.68 468.406 2536.1 468.989 2541.65 471.032 2546.61 474.242 2550.4 479.204 2553.61 487.375 2553.9 492.628 2553.03 501.967 2550.69 510.723 2546.32 519.77 2541.06 528.233 2526.76 544.868 2513.92 556.542 2499.91 567.632 2446.51 606.738 2436.29 615.494 2429.58 622.79 2424.62 612.575 2423.45 607.322 2423.45 595.065 2424.91 586.893 2432.79 563.838 2440.09 548.954 2448.84 534.07 2458.76 519.478 2469.56 505.761 2489.41 486.5 2505.46 475.41 2513.92 471.324 2522.09 469.281 2529.68 468.406ZM2236.09 563.838 2238.42 556.834 2241.05 552.456 2246.01 548.078 2252.14 543.992 2267.61 539.031 2285.7 537.572 2297.38 538.156 2309.05 540.199 2332.11 547.495 2353.99 558.293 2363.92 565.005 2382.01 579.597 2389.89 587.477 2401.86 603.82 2406.23 612.283 2409.15 620.455 2410.61 628.043 2349.62 619.871 2330.06 616.369 2290.66 607.03 2273.45 600.902 2262.65 595.94 2253.6 590.687 2246.6 585.142 2241.93 580.181 2238.72 575.22 2236.97 569.675 2236.09 563.838ZM2054.27 1233.03 2026.26 662.48 2041.72 661.313 2258.56 654.892 2400.1 651.974 2382.01 670.068 2368.88 688.454 2363.04 699.252 2355.74 719.973 2353.7 738.359 2355.74 755.286 2363.04 778.633 2378.8 819.783 2381.13 828.538 2383.18 843.714 2382.59 850.718 2380.84 856.847 2372.96 869.396 2358.37 884.572 2346.99 889.533 2344.95 891.576 2344.36 895.078 2344.95 898.872 2346.99 901.206 2349.91 902.666 2354.58 903.249 2358.95 902.082 2365.96 898.288 2372.96 892.743 2380.55 885.155 2387.56 876.4 2393.39 866.185 2398.35 851.302 2398.94 843.422 2396.89 827.371 2389.6 804.315 2378.51 775.423 2371.21 752.951 2369.17 738.359 2371.21 721.724 2378.51 702.754 2384.64 692.54 2398.35 674.737 2419.37 654.017 2420.83 654.892 2425.49 680.574 2431.62 706.256 2439.21 732.23 2448.26 757.62 2458.47 782.427 2470.44 806.65 2483.86 830.289 2498.75 852.761 2515.09 873.773 2528.22 888.949 2542.23 902.958 2557.11 915.799 2572.87 928.056 2589.22 938.854 2606.73 948.485 2624.82 956.948 2644.08 964.244 2663.64 969.789 2684.36 974.167 2706.25 976.502 2729.3 977.669 2751.19 976.502 2772.79 973.875 2794.38 969.789 2815.69 964.244 2817.15 971.248 2818.02 982.922 2817.73 1012.98 2803.14 1015.32 2788.84 1018.82 2779.79 1021.74 2763.74 1030.49 2756.73 1036.04 2750.61 1043.04 2745.64 1050.92 2742.14 1059.97 2739.81 1070.47 2738.93 1083.32 2740.68 1096.16 2737.76 1109.87 2736.89 1119.8 2737.47 1127.09 2738.93 1133.51 2741.56 1139.35 2745.06 1144.31 2750.31 1148.98 2757.32 1152.77 2752.07 1160.36 2748.27 1168.83 2745.94 1177.58 2745.06 1186.92 2745.64 1195.38 2735.72 1197.72 2705.66 1200.34 2706.54 1180.79 2705.95 1165.61 2703.62 1151.61 2700.41 1138.18 2695.45 1125.34 2689.61 1113.08 2682.61 1101.7 2674.73 1091.2 2665.97 1081.56 2656.05 1072.81 2645.83 1064.93 2634.74 1058.22 2623.07 1052.67 2611.11 1048.29 2598.56 1045.08 2585.72 1043.04 2572.58 1042.17 2558.87 1043.04 2546.03 1045.08 2533.48 1048.29 2521.51 1052.96 2509.84 1058.8 2499.33 1065.51 2489.41 1073.1 2480.07 1081.86 2471.61 1091.49 2464.31 1101.7 2457.89 1112.79 2452.34 1124.47 2447.97 1136.72 2444.76 1149.27 2442.71 1162.4 2442.13 1175.83 2443.3 1193.92 2446.22 1211.43 2445.92 1213.48 2054.27 1233.03ZM2691.07 1180.5 2690.78 1191.01 2689.03 1201.22 2463.14 1212.6 2460.22 1200.64 2458.47 1188.67 2457.89 1176.41 2458.76 1161.53 2461.39 1147.23 2465.77 1132.93 2471.9 1119.21 2479.78 1106.66 2488.82 1094.99 2505.46 1080.11 2525.3 1068.14 2535.81 1064.05 2547.19 1060.84 2559.74 1058.8 2572.87 1058.22 2586.88 1059.09 2600.89 1061.72 2614.9 1066.39 2628.32 1072.52 2640.87 1080.69 2652.84 1090.32 2661.01 1098.49 2668.31 1107.54 2674.73 1117.75 2680.56 1128.84 2684.94 1140.22 2688.15 1152.48 2690.19 1165.91 2691.07 1180.5ZM2122.27 1399.67 2120.23 1399.09 2103.59 1251.42 2239.01 1244.12 2239.59 1247.62 2237.26 1267.18 2234.34 1278.56 2228.5 1294.9 2220.33 1312.12 2210.99 1328.75 2199.9 1344.81 2187.94 1359.69 2175.39 1372.82 2157.29 1387.12 2148.54 1392.38 2139.49 1396.46 2130.73 1399.09 2122.27 1399.67ZM1491.89 1314.45 1498.61 1315.04 1504.15 1317.08 1508.82 1320.29 1516.12 1329.63 1522.54 1345.1 1531.88 1383.91 1534.21 1390.33 1536.55 1393.83 1538.88 1395.59 1541.51 1396.17 1544.43 1395.59 1547.05 1394.13 1549.09 1388.58 1542.38 1355.02 1559.02 1350.06 1583.82 1338.39 1598.42 1329.05 1607.46 1321.75 1626.14 1303.07 1634.31 1291.98 1641.9 1279.14 1661.75 1234.49 1671.96 1212.89 1682.76 1194.22 1691.51 1181.37 1697.93 1173.79 1709.32 1163.57 1718.07 1158.03 1756.59 1140.22 1769.14 1132.34 1781.69 1123.01 1800.37 1106.37 1804.46 1105.2 1815.84 1106.08 1826.93 1108.12 1838.6 1111.62 1850.28 1116.29 1865.16 1124.17 1880.04 1134.1 1895.22 1145.77 1909.52 1158.61 1923.53 1172.62 1950.08 1203.85 1973.72 1236.82 1989.19 1262.51 2002.62 1287.31 2016.62 1319.12 2025.38 1347.43 2027.71 1359.4 2028.3 1369.03 2027.71 1372.53 2025.96 1375.45 2017.5 1383.62 2002.03 1395.29 1964.68 1415.43 1961.17 1418.64 1959.42 1422.44 1958.55 1427.1 1974.31 1517.28 2019.25 1760.68 2016.62 1767.68 2011.96 1774.69 1999.7 1788.7 1979.56 1805.62 1966.72 1813.79 1951.54 1822.26 1935.78 1829.55 1917.4 1836.27 1896.09 1842.1 1862.53 1847.94 1843.27 1849.69 1821.97 1850.28 1800.95 1849.4 1777.61 1846.77 1754.26 1842.4 1731.2 1836.56 1702.02 1825.76 1688.89 1819.34 1676.34 1811.75 1665.83 1803.58 1656.78 1795.12 1650.95 1787.82 1646.57 1780.52 1643.36 1772.65 1627.31 1692.39 1606 1595.21 1585.57 1516.7 1578.86 1498.02 1572.15 1491.02 1564.56 1488.98 1556.68 1490.43 1547.34 1494.52 1539.76 1478.18 1535.38 1474.09 1532.17 1473.8 1528.96 1474.38 1526.33 1476.13 1524.58 1478.76 1523.7 1481.97 1524.29 1484.89 1530.71 1499.19 1521.08 1503.86 1515.82 1504.44 1510.57 1503.57 1505.61 1500.94 1500.36 1496.27 1495.98 1490.73 1487.22 1474.97 1481.68 1461.25 1476.43 1445.78 1467.67 1413.1 1461.54 1381.87 1456.58 1344.22 1458.33 1334.59 1464.46 1325.54 1475.26 1318.25 1481.1 1315.91 1491.89 1314.45ZM1182.83 1700.27 1162.99 1688.3 1144.89 1676.05 1128.84 1663.2 1113.67 1649.49 1100.24 1636.06 1088.86 1622.64 1078.65 1608.34 1070.47 1594.91 1064.05 1582.07 1059.38 1568.94 1056.47 1556.68 1055.59 1545.88 1056.47 1540.05 1058.22 1535.96 1060.84 1533.04 1064.93 1531.29 1070.18 1530.42 1079.81 1531.58 1089.44 1533.92 1098.78 1538 1116.59 1549.39 1125.05 1556.68 1136.72 1568.65 1147.52 1581.49 1165.03 1608.05 1172.04 1620.6 1179.92 1639.86 1180.79 1644.53 1182.83 1700.27ZM1200.05 1707.56 1198.59 1702.9 1199.76 1695.89 1201.51 1707.56 1200.05 1707.56ZM1221.36 1702.9 1226.03 1686.26 1237.12 1657.66 1243.54 1645.4 1253.46 1629.35 1263.09 1615.93 1273.01 1604.54 1284.1 1594.04 1294.03 1586.16 1303.07 1580.03 1312.7 1575.36 1320.29 1572.73 1326.13 1572.15 1329.05 1573.03 1333.42 1578.86 1335.47 1589.37 1334.59 1596.37 1331.96 1603.96 1327.59 1612.42 1319.42 1624.39 1308.03 1637.23 1282.35 1660.87 1255.5 1681.59 1233.32 1696.18 1221.36 1702.9ZM1355.02 1705.23 1351.52 1701.44 1346.85 1699.1 1342.47 1701.44 1339.26 1705.52 1244.7 1708.15 1296.36 1668.46 1310.08 1657.08 1330.8 1636.36 1342.76 1618.84 1347.14 1609.8 1349.77 1600.46 1350.64 1590.83 1349.77 1582.36 1348.02 1574.48 1343.05 1565.15 1336.05 1559.02 1331.67 1557.27 1326.71 1556.39 1321.46 1556.97 1312.41 1559.6 1302.78 1563.69 1282.35 1576.24 1264.26 1592.29 1246.45 1613.59 1237.12 1627.31 1228.94 1641.9 1211.73 1679.55 1207.35 1665.25 1202.97 1642.78 1199.18 1617.97 1192.76 1555.81 1186.04 1451.04 1183.13 1383.62 1179.92 1268.34 1200.34 1267.47 1215.81 1318.54 1227.19 1361.44 1231.28 1384.79 1231.86 1406.09 1233.91 1411.05 1238.28 1412.51 1242.95 1410.47 1245.58 1402.59 1246.16 1394.13 1245.29 1378.37 1242.37 1360.57 1233.91 1324.67 1215.81 1266.59 1287.6 1263.09 1294.03 1286.73 1298.99 1312.99 1302.49 1320.58 1307.74 1322.63 1312.99 1320.87 1315.04 1315.62 1303.07 1262.51 1340.14 1260.76 1336.05 1289.65 1333.72 1318.83 1332.84 1347.72 1334.3 1370.49 1343.35 1438.78 1327 1439.36 1317.08 1441.41 1308.91 1444.62 1301.03 1449.28 1294.03 1454.83 1287.9 1460.96 1279.72 1471.76 1272.43 1483.43 1248.79 1530.42 1239.74 1542.38 1229.82 1551.72 1227.78 1556.68 1228.36 1559.31 1232.45 1563.39 1235.36 1563.98 1238.87 1562.81 1250.83 1553.47 1257.54 1546.18 1263.38 1537.71 1268.34 1528.37 1274.76 1511.16 1285.85 1489.56 1293.44 1478.47 1305.41 1465.63 1312.41 1460.37 1320 1456.29 1328.17 1453.66 1341.6 1452.5 1343.64 1453.08 1345.68 1454.54 1349.47 1464.75 1387.12 1601.63 1369.32 1621.47 1361.44 1631.39 1355.02 1642.19 1351.81 1649.78 1350.06 1658.54 1349.18 1670.21 1350.06 1676.63 1353.27 1679.84 1356.19 1680.42 1359.69 1679.26 1361.44 1677.5 1362.32 1675.17 1363.48 1662.91 1367.57 1649.78 1372.53 1641.32 1378.66 1633.73 1392.67 1619.14 1412.8 1675.17 1425.65 1702.9 1355.02 1705.23ZM1320 1879.75 1317.08 1866.03 1317.66 1847.36 1322.04 1826.64 1325.54 1817.01 1331.38 1804.75 1338.39 1793.37 1355.31 1773.23 1373.99 1756.89 1388.58 1746.38 1414.56 1731.5 1423.6 1727.41 1434.4 1723.62 1450.74 1762.43 1453.37 1767.39 1457.75 1771.48 1460.96 1772.06 1470.88 1771.19 1622.05 1752.8 1625.56 1774.98 1569.23 1773.81 1524.87 1775.86 1487.81 1781.11 1463.88 1786.65 1443.16 1793.07 1424.77 1800.08 1406.97 1808.54 1391.21 1817.3 1377.49 1826.05 1353.27 1845.31 1330.21 1868.08 1320 1879.75ZM2070.32 2322.18 2069.45 2330.65 2066.53 2342.32 2063.9 2347.86 2060.11 2352.53 2053.69 2356.33 2049.6 2356.91 2044.35 2356.33 2039.39 2354.29 2029.47 2346.7 2021.88 2334.73 2019.25 2327.73 2017.5 2319.56 2016.92 2310.51 2017.5 2299.71 2019.54 2287.75 2025.96 2263.81 2032.97 2244.55 2037.64 2234.92 2045.23 2245.72 2053.1 2259.44 2059.82 2274.32 2065.36 2290.37 2067.99 2301.46 2070.32 2322.18ZM2032.68 2201.36 2020.71 2184.73 2006.7 2168.09 1990.65 2152.04 1954.46 2121.4 1900.76 2083.16 1744.63 1980.73 1671.96 1928.2 1611.55 1879.46 1581.78 1853.49 1551.72 1824.88 1521.08 1793.95 1543.26 1791.61 1570.69 1790.74 1586.16 1813.79 1596.37 1827.22 1608.34 1841.23 1634.9 1867.49 1661.45 1888.51 1676.05 1898.43 1709.9 1916.81 1727.99 1924.69 1748.13 1931.41 1769.73 1937.24 1803.58 1943.08 1841.52 1945.12 1875.67 1942.79 1909.23 1936.66 1940.75 1927.03 1956.51 1920.9 1973.14 1913.02 1990.07 1903.39 2006.12 1892.59 2022.46 1879.75 2038.22 1864.58 2049.31 1852.61 2059.82 1838.89 2070.03 1823.72 2079.95 1807.08 2088.42 1790.16 2096.01 1771.19 2103.01 1750.47 2109.14 1727.12 2140.07 1727.12 2150 1839.77 2153.21 1856.11 2155.25 1859.61 2157.88 1861.95 2161.67 1862.53 2290.37 1849.69 2219.45 1934.33 2166.92 1998.82 2128.69 2047.85 2113.22 2069.16 2088.42 2105.64 2056.61 2158.75 2032.68 2201.36ZM2517.42 1601.04 2512.17 1603.09 2491.16 1629.64 2448.26 1679.26 2396.89 1732.95 2361.29 1768.56 2351.37 1760.1 2338.23 1743.17 2326.85 1720.7 2319.56 1695.89 2315.47 1666.12 2314.89 1647.45 2315.47 1629.35 2319.26 1599.58 2326.56 1575.07 2331.52 1563.98 2342.9 1545.88 2352.24 1535.38 2362.17 1526.04 2373.25 1518.16 2397.19 1504.44 2471.02 1473.8 2491.45 1463.88 2504.58 1456.29 2517.42 1447.83 2529.68 1437.9 2541.06 1426.81 2551.86 1413.97 2562.08 1399.09 2568.5 1387.41 2580.17 1359.4 2592.43 1322.63 2605.27 1296.07 2614.32 1281.18 2629.2 1261.92 2647.59 1243.83 2658.09 1236.53 2678.52 1225.73 2698.37 1220.48 2754.4 1216.4 2758.19 1216.98 2763.16 1219.9 2772.2 1221.94 2811.6 1223.4 2827.07 1481.39 2811.6 1474.97 2804.01 1473.22 2793.51 1472.63 2777.75 1473.22 2749.44 1477.3 2729.59 1482.26 2712.67 1488.39 2696.62 1495.1 2653.13 1517.87 2647.88 1519.91 2652.55 1468.25 2651.96 1458.04 2649.63 1445.49 2645.54 1438.19 2639.71 1432.94 2631.83 1429.44 2627.45 1428.86 2621.9 1429.73 2616.94 1431.77 2611.69 1435.28 2606.44 1440.53 2600.6 1448.12 2589.51 1470.3 2582.21 1489.27 2575.79 1511.16 2565.58 1555.81 2558.28 1596.96 2554.2 1627.31 2525.89 1604.84 2520.93 1601.92 2517.42 1601.04ZM2493.49 2212.74 2492.62 2211.87 2521.8 2158.17 2547.78 2103.3 2601.48 1976.64 2628.62 1916.23 2647 1878 2658.97 1856.7 2663.05 1850.57 2667.43 1846.19 2750.31 1838.6 2740.1 1868.66 2731.34 1890.84 2707.12 1944.25 2691.36 1974.89 2658.09 2031.22 2625.11 2078.5 2607.02 2101.84 2587.47 2125.19 2565.87 2148.54 2543.69 2170.72 2519.47 2192.02 2493.49 2212.74ZM2673.56 1828.68 2705.08 1756.89 2705.66 1754.55 2704.5 1750.47 2702.16 1746.67 2748.56 1723.32 2771.33 1710.48 2807.81 1686.84 2835.24 1664.37 2840.79 1812.34 2673.56 1828.68ZM2746.81 1632.85 2749.15 1638.4 2754.69 1641.02 2764.91 1636.65 2804.89 1611.84 2851.58 1580.32 2852.17 1586.74 2851 1598.71 2848.37 1610.09 2843.7 1621.47 2837.57 1631.98 2830.28 1642.19 2811.89 1661.75 2790 1679.55 2772.2 1691.51 2735.43 1712.23 2686.11 1734.12 2568.5 1639.57 2582.51 1560.48 2589.51 1529.54 2601.77 1486.64 2612.27 1461.83 2620.44 1449.87 2626.87 1446.37 2630.37 1447.24 2632.7 1448.99 2635.04 1456 2635.33 1467.38 2630.66 1518.74 2631.53 1525.75 2632.99 1530.42 2635.62 1533.63 2638.83 1535.67 2646.13 1537.13 2656.93 1535.09 2663.35 1532.17 2696.91 1513.78 2711.79 1506.49 2733.97 1498.31 2747.1 1494.81 2775.7 1490.43 2792.63 1489.85 2806.93 1491.6 2814.52 1494.81 2816.85 1497.44 2817.73 1500.65 2817.15 1503.57 2814.52 1507.07 2809.85 1511.74 2801.39 1517.87 2789.71 1524.87 2763.16 1538.3 2703.33 1565.73 2700.99 1568.36 2700.12 1571.86 2700.7 1575.07 2702.16 1577.4 2704.79 1579.15 2708 1579.74 2714.13 1578.86 2724.34 1575.36 2809.56 1534.79 2838.74 1523.41 2848.08 1520.79 2862.96 1519.03 2868.8 1519.62 2874.64 1521.66 2871.72 1530.12 2867.34 1538.3 2861.21 1547.05 2845.75 1562.52 2821.82 1581.2 2755.57 1623.22 2750.02 1627.6 2746.81 1632.85Z" style="fill: var(--s-deco)" transform="matrix(1 0 0 1.0002 2997 877)"/>
        <path d="M1346.56 965.995 1343.35 961.618 1342.18 958.699 1359.4 929.807 1365.23 916.966 1370.78 900.915 1373.7 889.825 1375.45 877.276 1376.32 863.851 1375.45 848.383 1373.11 834.083 1369.9 820.658 1365.23 807.817 1359.11 795.56 1352.1 783.886 1344.22 773.088 1335.47 762.874 1322.33 750.324 1307.74 739.234 1292.27 729.312 1275.93 721.14 1258.71 714.136 1241.2 708.883 1223.11 704.797 1205.31 702.462 1187.5 701.587 1167.95 702.462 1150.15 704.505 1133.22 707.716 1117.75 712.093 1101.99 717.638 1087.69 724.059 1074.56 731.063 1062.59 739.234 1040.41 757.62 1022.61 777.758 1012.69 792.641 1004.52 807.525 998.39 822.409 993.72 838.169 990.802 853.344 989.926 867.937 990.802 883.404 993.137 897.996 996.639 911.421 1001.31 924.554 1007.14 936.811 1014.15 948.485 1022.03 959.575 1031.08 969.789 1044.21 982.047 1058.8 993.137 1074.27 1003.06 1090.61 1011.23 1107.83 1017.94 1125.34 1023.49 1143.14 1027.28 1160.95 1029.62 1178.75 1030.49 1206.76 1028.74 1237.12 1022.61 1266.01 1012.98 1289.65 1002.18 1306.57 1012.11 1313.87 1015.32 1331.67 1019.99 1341.89 1020.57 1350.35 1020.28 1359.11 1018.53 1374.57 1013.57 1385.96 1006.85 1389.46 1003.06 1390.33 999.849 1390.04 997.514 1386.54 993.72 1362.02 980.879 1354.73 974.751 1346.56 965.995ZM1342.47 1005.1 1333.72 1004.52 1320.87 1001.89 1312.7 998.39 1293.73 984.965 1291.4 984.09 1258.71 999.265 1243.83 1004.81 1225.15 1010.06 1197.43 1014.15 1180.5 1014.73 1160.65 1013.86 1141.98 1011.52 1124.76 1007.44 1108.71 1002.48 1092.95 995.763 1078.35 987.883 1065.22 979.128 1053.55 969.497 1042.46 958.699 1032.83 947.317 1024.66 935.352 1017.94 922.511 1012.4 909.086 1008.6 895.661 1006.27 881.945 1005.39 867.645 1005.98 855.679 1010.65 832.04 1014.73 820.658 1021.45 806.358 1030.2 792.641 1040.41 779.509 1052.09 767.543 1065.22 756.745 1079.81 746.531 1095.28 738.067 1111.92 730.771 1129.72 724.934 1148.1 720.557 1167.37 717.93 1187.5 717.055 1205.6 717.93 1222.82 720.265 1240.03 724.059 1256.67 729.604 1272.43 736.024 1287.31 744.196 1301.32 753.535 1314.16 763.749 1325.54 775.131 1335.76 787.972 1344.51 801.397 1351.52 815.697 1355.31 826.787 1358.23 838.752 1360.27 850.718 1360.86 863.559 1359.98 876.4 1357.94 888.949 1354.73 901.206 1346.26 921.927 1337.22 935.936 1330.21 941.481 1327.59 944.691 1326.13 948.193 1325.84 952.571 1326.42 959.867 1329.05 967.455 1335.76 977.085 1350.64 990.802 1364.65 1000.72 1357.35 1003.35 1350.06 1004.81 1342.47 1005.1Z" style="fill: var(--s-deco)" transform="matrix(1 0 0 1.0002 2997 877)"/>
        <path d="M1790.16 1522.83 1780.52 1521.08 1763.31 1514.95 1748.42 1505.9 1736.75 1494.52 1728.87 1481.97 1724.78 1469.13 1724.2 1463 1724.78 1454.54 1726.83 1448.41 1729.74 1444.03 1734.12 1440.53 1739.96 1437.9 1748.13 1435.86 1761.56 1434.11 1828.39 1430.61 1840.35 1429.15 1848.82 1426.81 1866.33 1418.93 1869.83 1418.35 1874.21 1419.23 1877.71 1421.85 1880.04 1425.65 1880.63 1430.02 1880.04 1436.74 1875.67 1452.79 1869.83 1464.75 1861.66 1477.3 1852.32 1488.98 1841.23 1499.77 1825.18 1511.74 1807.96 1519.62 1799.2 1521.95 1790.16 1522.83ZM1862.24 1439.65 1861.36 1438.78 1838.31 1446.66 1831.31 1447.83 1757.18 1452.5 1748.71 1453.95 1742.88 1457.16 1741.71 1462.13 1744.63 1472.34 1753.97 1486.93 1760.68 1493.94 1769.14 1499.77 1775.56 1502.98 1782.57 1504.73 1790.74 1505.61 1797.45 1505.03 1804.75 1502.98 1813.21 1499.19 1821.09 1494.52 1829.55 1487.81 1838.31 1478.47 1846.19 1468.55 1854.07 1455.71 1862.24 1439.65Z" style="fill: var(--s-deco)" transform="matrix(1 0 0 1.0002 2997 877)"/>
        <path d="M1504.44 1439.65 1514.37 1476.43 1513.78 1479.93 1512.03 1482.55 1509.4 1484.31 1503.28 1484.01 1501.23 1482.55 1498.02 1478.47 1488.1 1444.62 1487.52 1441.11 1488.68 1434.69 1491.02 1430.32 1494.23 1426.81 1503.28 1421.56 1485.18 1360.86 1485.77 1357.94 1487.22 1355.31 1489.85 1353.56 1495.1 1353.27 1498.61 1355.6 1500.07 1357.65 1515.53 1403.47 1523.41 1430.32 1522.83 1433.82 1520.49 1436.44 1516.99 1437.9 1504.44 1439.65Z" style="fill: var(--s-deco)" transform="matrix(1 0 0 1.0002 2997 877)"/>
        <path d="M1696.47 1262.21 1692.97 1261.63 1690.35 1259.59 1688.59 1256.67 1688.01 1253.46 1688.59 1246.16 1692.68 1233.32 1697.93 1224.57 1704.65 1217.27 1711.94 1210.85 1719.53 1206.47 1727.41 1203.26 1734.12 1202.39 1740.54 1204.14 1743.17 1207.64 1743.75 1210.56 1743.17 1213.48 1739.08 1217.85 1724.2 1222.23 1720.11 1224.86 1715.15 1229.82 1711.65 1235.66 1702.9 1258.13 1701.14 1260.46 1696.47 1262.21Z" style="fill: var(--s-deco)" transform="matrix(1 0 0 1.0002 2997 877)"/>
        <path d="M1846.19 1175.83 1854.36 1176.7 1866.62 1180.5 1874.5 1184.88 1879.75 1189.25 1884.13 1194.22 1888.51 1202.68 1888.21 1207.93 1886.46 1210.56 1883.84 1212.31 1880.63 1212.89 1877.12 1212.31 1874.21 1209.97 1866.03 1199.47 1858.45 1194.8 1848.52 1193.34 1836.85 1195.09 1833.64 1194.51 1830.72 1192.76 1828.97 1189.84 1828.1 1186.63 1828.97 1183.13 1830.72 1181.08 1837.14 1177.87 1846.19 1175.83Z" style="fill: var(--s-deco)" transform="matrix(1 0 0 1.0002 2997 877)"/>
        <path d="M1713.11 1361.15 1733.83 1364.65 1743.75 1368.15 1746.09 1370.49 1746.67 1374.28 1746.09 1377.49 1744.34 1380.41 1741.42 1382.16 1736.46 1382.45 1716.03 1379.24 1706.11 1375.45 1704.06 1372.82 1703.48 1369.61 1704.06 1366.11 1705.81 1363.48 1708.73 1361.73 1713.11 1361.15Z" style="fill: var(--s-deco)" transform="matrix(1 0 0 1.0002 2997 877)"/>
        <path d="M1888.21 1352.39 1884.13 1351.52 1881.21 1349.77 1879.17 1347.43 1878.58 1344.22 1879.75 1340.14 1895.51 1322.92 1901.93 1317.66 1905.72 1316.79 1908.64 1317.66 1911.27 1319.42 1913.9 1324.96 1912.44 1329.34 1894.05 1348.6 1888.21 1352.39Z" style="fill: var(--s-deco)" transform="matrix(1 0 0 1.0002 2997 877)"/>
        <path d="M1872.75 1309.49 1871.87 1313.29 1870.7 1315.62 1868.66 1317.37 1864.87 1318.54 1861.36 1317.66 1858.74 1315.33 1855.82 1308.03 1850.57 1283.52 1851.15 1280.6 1852.61 1277.97 1855.24 1275.93 1858.15 1275.35 1861.07 1275.93 1863.41 1277.68 1865.16 1280.89 1872.75 1309.49Z" style="fill: var(--s-deco)" transform="matrix(1 0 0 1.0002 2997 877)"/>
        <path d="M1765.93 1333.42 1765.35 1336.63 1763.6 1339.55 1760.97 1341.6 1757.76 1342.47 1753.38 1341.01 1750.76 1337.51 1743.46 1313.58 1742 1307.74 1744.34 1302.78 1749.3 1300.74 1753.09 1301.61 1755.72 1304.24 1758.93 1311.54 1765.93 1333.42Z" style="fill: var(--s-deco)" transform="matrix(1 0 0 1.0002 2997 877)"/>
        <path d="M2255.06 1112.79 2245.14 1111.92 2236.09 1109.29 2227.63 1105.5 2220.04 1099.95 2213.62 1093.53 2208.07 1085.94 2203.99 1077.77 2201.65 1068.72 2200.48 1058.8 2201.65 1047.71 2203.99 1038.37 2207.2 1031.08 2211.87 1024.07 2217.12 1018.53 2222.96 1014.15 2232.3 1008.9 2241.05 1005.98 2249.51 1004.23 2255.35 1003.64 2265.27 1004.52 2274.32 1007.14 2282.78 1011.23 2290.37 1016.48 2296.79 1023.2 2302.34 1030.78 2306.13 1039.25 2308.76 1048.29 2309.63 1058.22 2308.76 1068.14 2306.13 1077.19 2302.05 1085.65 2296.79 1093.24 2290.08 1099.95 2282.49 1105.2 2274.03 1109.29 2264.98 1111.62 2255.06 1112.79Z" style="fill: var(--s-deco)" transform="matrix(1 0 0 1.0002 2997 877)"/>
        <path d="M2164.88 729.02 2153.21 729.896 2141.53 732.23 2129.86 736.024 2118.77 741.277 2108.26 747.99 2098.34 756.161 2089.29 765.5 2081.71 776.006 2075.28 787.972 2068.57 807.234 2065.65 829.705 2066.53 843.13 2071.2 866.769 2079.66 887.49 2091.34 904.709 2098.05 912.297 2108.26 921.052 2119.06 928.056 2130.73 933.601 2142.7 937.687 2154.96 940.313 2167.8 941.189 2179.18 940.313 2189.98 938.562 2199.9 935.644 2209.24 931.85 2220.91 925.138 2231.42 917.258 2240.47 907.919 2248.35 897.413 2255.06 886.323 2260.02 874.357 2263.81 861.808 2266.15 849.259 2267.02 836.418 2266.15 823.285 2263.81 810.444 2259.73 797.603 2254.18 785.345 2247.47 773.672 2239.01 763.165 2229.67 753.535 2218.87 745.363 2206.91 738.359 2197.57 734.565 2187.35 731.647 2176.55 729.604 2164.88 729.02ZM2167.8 925.721 2155.54 924.846 2144.16 922.511 2133.65 918.425 2123.44 912.88 2114.39 906.168 2106.22 898.288 2098.92 889.241 2092.8 879.61 2087.83 868.812 2084.04 857.43 2082 845.757 2081.12 833.499 2082 821.826 2084.04 810.736 2087.25 800.229 2091.92 789.723 2097.76 780.384 2104.47 771.629 2112.35 764.041 2121.1 757.329 2130.44 752.076 2140.66 747.99 2151.46 745.363 2163.13 744.488 2176.26 745.363 2188.52 747.99 2199.61 752.076 2209.82 757.62 2219.16 764.625 2227.33 772.796 2234.34 781.843 2240.47 791.766 2245.14 802.856 2248.64 814.53 2250.68 826.495 2251.56 839.628 2250.39 852.469 2247.76 864.435 2243.68 875.233 2238.13 885.447 2231.71 894.494 2224.42 902.374 2216.24 909.378 2207.2 915.215 2197.86 919.884 2187.94 923.095 2178.01 925.138 2167.8 925.721Z" style="fill: var(--s-deco)" transform="matrix(1 0 0 1.0002 2997 877)"/>
        <path d="M1305.7 1351.81 1308.03 1346.85 1312.99 1345.1 1318.83 1346.85 1321.17 1349.18 1322.04 1352.39 1321.17 1355.6 1319.12 1357.65 1314.16 1359.11 1311.24 1358.52 1307.74 1356.48 1305.7 1351.81Z" style="fill: var(--s-deco)" transform="matrix(1 0 0 1.0002 2997 877)"/>
        <path d="M1232.45 1438.49 1229.24 1437.9 1226.9 1436.15 1225.15 1433.53 1224.57 1430.32 1226.32 1425.65 1230.7 1423.89 1236.53 1426.52 1239.16 1432.07 1237.12 1436.74 1232.45 1438.49Z" style="fill: var(--s-deco)" transform="matrix(1 0 0 1.0002 2997 877)"/>
        <path d="M1219.02 1586.16 1216.1 1585.57 1212.02 1582.07 1211.43 1579.15 1212.31 1576.53 1216.4 1572.73 1221.94 1572.73 1224.28 1574.19 1226.61 1579.15 1224.28 1584.41 1221.65 1585.57 1219.02 1586.16Z" style="fill: var(--s-deco)" transform="matrix(1 0 0 1.0002 2997 877)"/>
        <path d="M1188.96 823.868 1197.72 814.238 1203.55 809.568 1218.15 801.397 1226.9 798.77 1237.12 797.895 1251.12 799.646 1256.38 801.689 1263.09 806.066 1268.05 811.027 1271.85 816.864 1274.18 822.701 1276.51 832.624 1277.1 838.169 1275.93 847.799 1273.01 858.889 1268.64 869.688 1262.51 880.486 1255.5 890.408 1247.62 898.872 1222.23 922.803 1204.14 938.562 1199.18 940.313 1191.3 940.021 1176.7 935.352 1164.74 929.515 1151.9 921.052 1139.64 910.837 1127.97 898.872 1114.83 880.778 1109.58 871.147 1105.79 860.641 1103.45 850.134 1102.58 838.752 1103.16 830.289 1105.2 823.285 1107.83 817.74 1116 809.276 1120.96 806.358 1128.84 803.731 1137.01 802.856 1148.1 803.731 1158.03 806.65 1175.54 814.821 1188.96 823.868Z" style="fill: var(--s-deco)" transform="matrix(1 0 0 1.0002 2997 877)"/>
        <path d="M1070.18 1530.42 1064.93 1531.29 1060.84 1533.04 1058.22 1535.96 1056.47 1540.05 1055.59 1545.88 1056.47 1556.68 1059.38 1568.94 1064.05 1582.07 1070.47 1594.91 1078.65 1608.34 1088.86 1622.64 1100.24 1636.06 1113.67 1649.49 1128.84 1663.2 1144.89 1676.05 1162.99 1688.3 1182.83 1700.27 1180.79 1644.53 1179.92 1639.86 1172.04 1620.6 1157.15 1595.21 1147.52 1581.49 1136.72 1568.65 1116.59 1549.39 1098.78 1538 1089.44 1533.92 1079.81 1531.58 1070.18 1530.42Z" style="fill: var(--s-bg)" transform="matrix(1 0 0 1.0002 2997 877)"/>
        <path d="M2894.48 1091.49 2897.11 1139.06 2896.23 1160.95 2891.86 1190.42 2887.77 1206.47 2881.64 1222.82 2876.39 1233.32 2869.97 1243.24 2862.38 1252.88 2853.92 1261.34 2843.7 1268.93 2832.03 1275.35 2845.45 1503.57 2863.26 1501.82 2878.72 1504.44 2883.69 1506.49 2887.77 1509.99 2891.27 1516.12 2891.86 1520.49 2890.69 1527.79 2888.65 1534.21 2883.69 1543.84 2876.97 1554.35 2865.59 1568.06 2867.34 1578.57 2867.93 1589.37 2867.34 1601.33 2862.67 1619.72 2854.21 1637.81 2851.88 1645.99 2857.71 1809.71 2857.13 1813.79 2856.25 1816.42 2847.79 1828.1 2842.54 1829.26 2767.82 1836.85 2756.44 1873.04 2746.52 1897.85 2729.89 1932.87 2703.62 1982.19 2736.6 1977.81 2757.61 1973.43 2783 1966.43 2817.73 1953.88 2836.7 1945.12 2855.38 1935.49 2874.05 1924.11 2893.02 1910.69 2906.74 1899.89 2933.3 1874.5 2946.14 1859.91 2958.11 1844.73 2969.49 1828.1 2980.58 1809.71 2990.79 1789.86 2999.84 1769.73 3008.01 1747.55 3015.31 1723.32 3021.73 1697.06 3026.4 1671.38 3029.9 1643.07 3032.23 1612.42 3033.11 1578.86 3032.23 1546.18 3027.86 1484.01 3024.06 1454.25 3017.35 1414.26 3009.47 1376.62 3000.42 1341.01 2989.92 1305.41 2978.83 1272.14 2967.44 1241.2 2954.9 1210.56 2930.38 1157.44 2911.41 1120.96 2894.48 1091.49Z" style="fill: var(--s-bg)" transform="matrix(1 0 0 1.0002 2997 877)"/>
        <path d="M942.648 1732.66 942.94 1727.99 944.691 1724.2 947.317 1721.57 956.948 1717.78 965.703 1716.32 1003.06 1714.57 1104.62 1712.53 1156.86 1710.77 1166.78 1709.32 1148.1 1697.06 1130.3 1683.93 1113.38 1669.92 1097.03 1654.45 1080.11 1635.48 1068.14 1619.72 1062.3 1610.38 1051.5 1589.66 1043.92 1567.48 1041.58 1556.68 1040.71 1547.05 1041.29 1539.17 1044.5 1528.96 1048.29 1523.7 1052.67 1519.91 1057.63 1517.28 1063.18 1515.53 1069.02 1515.24 1079.52 1515.82 1089.44 1517.87 1099.08 1521.37 1116.88 1530.71 1136.72 1546.47 1155.98 1567.19 1163.28 1576.82 1178.46 1600.17 1164.16 1266.01 1165.32 1258.42 1167.07 1256.67 1171.45 1254.63 1187.79 1252.29 1342.76 1245.29 1358.23 1197.72 1368.74 1171.45 1381.58 1143.43 1391.21 1124.76 1413.97 1087.4 1427.1 1069.31 1441.11 1051.8 1456.87 1034.87 1473.51 1019.11 1491.6 1004.23 1511.16 990.802 1526.33 981.755 1542.67 973.875 1559.89 966.871 1578.28 960.742 1596.66 956.073 1616.51 952.571 1637.23 950.236 1659.7 949.652 1680.42 950.236 1702.31 953.154 1725.37 957.824 1742.29 962.493 1777.02 975.334 1811.75 993.137 1828.68 1003.93 1845.61 1016.19 1862.24 1029.91 1878 1044.5 1893.47 1060.55 1908.64 1078.35 1923.24 1098.2 1936.37 1118.34 1949.21 1140.22 1960.88 1164.16 1977.81 1202.68 2023.34 1291.4 2031.8 1310.95 2038.22 1329.63 2043.77 1353.56 2044.06 1369.32 2038.22 1392.38 2084.04 1632.85 2092.5 1683.93 2091.04 1688.59 2083.46 1692.68 2026.84 1708.44 2030.05 1725.66 2044.93 1720.7 2074.99 1713.4 2105.64 1709.9 2136.86 1709.32 2134.24 1678.67 2085.79 1247.04 2050.77 1248.79 2044.35 1248.5 2042.89 1247.04 2041.14 1243.54 2038.51 1228.65 2033.55 1146.35 2017.79 808.109 1971.39 784.762 1943.66 772.796 1915.65 762.29 1885.3 751.784 1852.32 742.153 1818.76 733.689 1783.15 726.393 1744.92 719.973 1716.32 716.471 1655.91 712.385 1623.51 711.801 1586.45 712.677 1549.39 714.72 1512.61 718.514 1475.84 723.767 1439.36 730.479 1403.17 738.651 1367.28 747.99 1331.67 758.788 1341.3 769.294 1349.77 780.676 1357.35 792.641 1364.07 805.482 1369.32 818.615 1372.82 832.624 1375.45 847.799 1376.32 863.851 1375.45 877.859 1373.41 890.7 1370.49 902.082 1364.65 918.425 1358.23 931.558 1342.18 958.699 1343.35 961.618 1346.56 965.995 1354.44 974.751 1362.02 980.879 1369.61 985.549 1386.54 993.72 1390.04 997.514 1390.33 999.849 1389.75 1002.48 1387.41 1005.39 1383.04 1008.9 1375.16 1013.27 1364.94 1017.07 1353.56 1019.69 1341.89 1020.57 1331.67 1019.99 1313.58 1015.02 1306.28 1012.11 1289.65 1002.18 1266.01 1012.98 1252 1017.94 1237.12 1022.61 1206.76 1028.74 1178.75 1030.49 1151.02 1028.74 1132.93 1025.82 1115.13 1020.86 1080.98 1006.56 1065.22 997.514 1050.05 986.716 1031.66 970.081 1018.82 954.905 1006.56 935.352 997.514 914.048 991.969 891.284 977.669 905 957.532 926.889 936.519 951.987 911.421 984.381 878.151 1032.83 843.13 1090.03 826.203 1121.26 809.276 1154.52 793.809 1188.38 779.217 1224.28 765.5 1261.63 747.99 1318.83 734.565 1379.24 729.604 1409.89 726.102 1441.11 723.767 1472.63 722.891 1505.03 723.767 1543.84 725.81 1580.03 729.312 1613.3 733.689 1644.23 739.818 1675.75 746.531 1704.65 754.118 1731.5 761.998 1756.01 781.551 1803.29 801.689 1842.69 816.864 1867.49 831.748 1888.8 846.34 1907.48 876.692 1939.87 890.117 1952.13 910.545 1968.76 926.305 1979.85 949.069 1992.69 942.648 1732.66Z" style="fill: var(--s-bg)" transform="matrix(1 0 0 1.0002 2997 877)"/>
    </g>
</svg>