<svg viewBox="0 0 400 300" fill="none" xmlns="http://www.w3.org/2000/svg">
  <circle cx="200" cy="100" r="50" fill="currentColor" fill-opacity="0.15" />
  <circle cx="200" cy="100" r="35" fill="currentColor" fill-opacity="0.2" />
  <circle cx="200" cy="100" r="20" fill="currentColor" fill-opacity="0.3" />
  
  <rect x="60" y="170" width="80" height="60" rx="10" fill="currentColor" fill-opacity="0.15" />
  <rect x="160" y="170" width="80" height="60" rx="10" fill="currentColor" fill-opacity="0.18" />
  <rect x="260" y="170" width="80" height="60" rx="10" fill="currentColor" fill-opacity="0.15" />
  
  <circle cx="100" cy="200" r="15" fill="currentColor" fill-opacity="0.2" />
  <circle cx="200" cy="200" r="15" fill="currentColor" fill-opacity="0.25" />
  <circle cx="300" cy="200" r="15" fill="currentColor" fill-opacity="0.2" />
  
  <path d="M 200 150 L 200 170" stroke="currentColor" stroke-width="3" stroke-opacity="0.3" />
  <path d="M 200 150 L 100 185" stroke="currentColor" stroke-width="2" stroke-opacity="0.25" />
  <path d="M 200 150 L 300 185" stroke="currentColor" stroke-width="2" stroke-opacity="0.25" />
  
  <rect x="80" y="250" width="40" height="30" rx="6" fill="currentColor" fill-opacity="0.15" />
  <rect x="180" y="250" width="40" height="30" rx="6" fill="currentColor" fill-opacity="0.18" />
  <rect x="280" y="250" width="40" height="30" rx="6" fill="currentColor" fill-opacity="0.15" />
  
  <circle cx="200" cy="265" r="8" fill="currentColor" fill-opacity="0.25" />
</svg>
