<svg viewBox="800 600 2450 2000"
    xmlns="http://www.w3.org/2000/svg"
    xmlns:xlink="http://www.w3.org/1999/xlink" xml:space="preserve" overflow="hidden">
    <style>
    :root {
        --s-deco: #561504;
        --s-bg: #FFBEAD;
    }
    </style>
    <g transform="translate(-2788 -826)">
        <path d="M1209.22 2063.91 1236.76 2137.98 1244.67 2169.63 1266.83 2147.79 1313.68 2107.27 1363.38 2070.55 1389.34 2053.78 1364.33 2054.41 1209.22 2063.91Z" style="fill: var(--s-bg)" transform="matrix(1 0 0 1.00016 2788 826)"/>
        <path d="M3108.84 1413.4 3105.36 1361.8 3101.87 1330.46 3088.58 1235.18 3028.43 1236.76 2995.83 1236.13 2971.46 1234.23 2933.79 1228.21 2919.86 1224.42 2891.37 1213.02 2887.25 1212.39 2844.52 1216.19 2813.18 1216.82 2764.43 1216.19 2747.02 1215.24 2729.93 1212.07 2723.6 1208.59 2721.06 1204.79 2720.75 1196.56 2724.23 1190.86 2730.24 1187.7 2737.84 1187.7 2741.01 1183.26 2743.86 1181.68 2749.24 1181.05 2769.18 1182.63 2815.08 1182.95 2862.88 1179.47 2861.61 1169.97 2862.56 1161.11 2865.09 1151.93 2869.53 1142.11 2875.54 1132.62 2882.82 1123.44 2892 1114.57 2901.81 1106.66 2912.58 1099.69 2924.92 1093.68 2937.58 1089.25 2951.2 1086.4 2965.44 1085.45 2975.57 1086.08 2994.25 1091.15 3003.11 1095.26 3010.39 1100.64 3016.72 1106.66 3021.47 1113.94 3024.64 1121.85 3025.9 1130.72 3024.64 1139.9 3022.1 1146.23 3017.04 1155.09 3006.59 1166.49 2989.18 1179.78 2962.28 1193.39 2987.6 1195.93 3013.56 1196.88 3058.19 1194.66 3080.35 1191.81 3074.33 1167.44 3067.37 1145.28 3059.14 1124.7 3050.28 1105.71 3039.51 1087.35 3028.43 1069.94 3016.09 1054.11 3003.11 1039.55 2984.43 1020.87 2964.18 1004.1 2942.97 988.586 2920.81 974.658 2897.38 961.363 2873.33 949.334 2836.29 932.557 2682.13 871.146 2644.78 854.685 2596.98 829.994 2574.5 816.699 2552.98 801.821 2532.72 785.361 2481.12 736.296 2464.03 721.734 2445.67 708.123 2432.37 699.892 2401.35 684.065 2384.57 677.417 2343.1 664.439 2320.63 659.374 2264.6 649.877 2234.53 646.395 2160.45 640.697 2099.04 638.482 2024.97 637.532 1970.21 638.165 1920.19 640.381 1874.29 643.546 1832.51 647.978 1789.46 653.992 1750.21 660.957 1714.75 669.187 1682.46 677.734 1649.86 688.496 1620.42 699.892 1593.51 711.605 1569.14 724.267 1545.4 738.828 1523.56 753.706 1503.61 769.217 1485.89 785.361 1468.79 802.771 1453.28 820.814 1439.04 839.174 1426.06 858.167 1410.55 884.758 1396.3 911.981 1383.64 940.47 1361.8 999.349 1351.99 1029.74 1403.58 1027.84 1441.57 1028.79 1477.34 1031.32 1510.58 1035.12 1541.92 1040.18 1573.57 1046.83 1602.69 1054.74 1629.6 1063.29 1653.97 1072.79 1678.67 1083.87 1700.82 1095.58 1720.45 1107.93 1737.86 1120.27 1754.64 1134.52 1768.88 1148.76 1780.59 1163.01 1790.09 1176.93 1796.74 1189.6 1801.8 1201.62 1805.29 1213.65 1807.5 1225.68 1808.13 1237.39 1807.5 1249.42 1802.75 1271.9 1798.64 1282.66 1791.67 1296.27 1783.44 1308.93 1773.31 1321.28 1762.23 1332.68 1737.54 1353.25 1716.97 1366.55 1696.08 1378.26 1674.23 1388.39 1653.97 1396.62 1616.3 1408.33 1616.3 1420.68 1621.37 1439.67 1625.17 1448.22 1629.28 1454.86 1641.95 1468.16 1642.58 1471.96 1641.31 1477.66 1638.46 1482.72 1640.36 1485.25 1641 1488.1 1640.36 1491.27 1638.78 1493.17 1634.03 1495.38 1625.17 1495.7 1616.62 1494.43 1607.12 1491.58 1588.13 1482.72 1571.99 1470.06 1564.39 1461.83 1556.79 1452.02 1549.2 1439.67 1513.11 1444.1 1476.71 1446.63 1440.3 1447.58 1382.06 1445.37 1353.25 1442.52 1296.27 1433.02 1239.93 1419.41 1212.07 1410.86 1192.76 1472.27 1177.57 1530.2 1162.69 1599.84 1156.67 1637.2 1151.61 1676.13 1147.81 1728.36 1147.18 1754.64 1149.39 1817.31 1155.41 1871.44 1161.42 1906.26 1168.39 1937.92 1175.98 1966.73 1188.96 2008.19 1201.62 2043.96 1290.57 2039.85 1395.04 2033.83 1408.33 2032.25 1435.87 2025.6 1457.4 2018.01 1534.63 1987.3 1565.02 1976.86 1600.48 1966.73 1624.85 1960.71 1682.46 1950.9 1712.85 1947.73 1747.04 1945.52 1784.71 1944.57 1821.11 1945.52 1857.52 1948.05 1893.6 1952.8 1929.37 1959.13 1880.31 1859.1 1863.53 1817.31 1846.75 1763.5 1838.21 1728.36 1820.8 1642.26 1802.44 1633.08 1795.16 1628.33 1788.82 1622.64 1783.76 1615.67 1779.64 1606.18 1776.8 1595.41 1774.26 1579.9 1772.68 1538.75 1773.31 1518.49 1776.48 1483.35 1780.59 1459.61 1789.77 1418.78 1767.3 1422.26 1762.55 1421.63 1759.39 1418.14 1758.12 1414.35 1757.8 1409.6 1758.75 1406.12 1763.82 1398.52 1777.11 1384.91 1806.55 1357.68 1818.9 1340.59 1852.45 1285.51 1867.65 1263.35 1890.75 1234.55 1918.61 1206.06 1934.44 1193.08 1952.16 1180.42 1966.09 1172.18 1997.11 1157.31 2014.21 1150.98 2041.11 1127.55 2054.73 1118.05 2073.09 1106.66 2102.21 1093.05 2138.93 1080.39 2184.83 1070.57 2209.52 1067.09 2237.38 1064.87 2288.02 1064.24 2319.05 1067.72 2338.99 1072.16 2368.11 1082.28 2385.84 1089.88 2423.82 1109.51 2469.41 1138 2495.05 1156.04 2552.34 1199.72 2620.09 1257.34 2655.22 1288.99 2694.16 1325.71 2846.1 1472.59 2926.82 1546.66 2983.17 1595.73 3019.89 1625.48 3050.59 1648.28 3052.49 1650.49 3052.81 1652.71 3051.23 1656.51 3042.68 1667.9 3014.82 1699.87 2742.91 1994.27 2768.55 2013.26 2792.92 2032.88 2815.4 2052.83 2836.29 2073.72 2874.91 2117.4 2908.15 2161.72 2928.4 2192.74 2946.13 2223.13 2961.64 2253.2 2982.53 2250.04 3002.16 2244.97 3020.52 2238.64 3037.61 2230.73 3054.39 2221.55 3069.59 2211.1 3084.15 2199.39 3097.44 2186.73 3109.79 2172.8 3121.18 2158.24 3131.31 2142.73 3140.81 2125.95 3148.72 2108.86 3162.02 2073.09 3166.77 2054.09 3171.83 2028.45 3174.68 2002.5 3175.63 1975.91 3174.68 1948.68 3172.15 1920.51 3168.03 1891.39 3142.39 1739.76 3127.51 1633.08 3120.23 1566.92 3114.22 1496.97 3108.84 1413.4ZM1778.38 1650.18 1783.44 1652.39 1786.29 1649.86 1789.77 1649.23 1792.94 1649.86 1796.74 1653.66 1798.32 1659.67 1801.49 1697.66 1804.65 1716.33 1810.67 1744.19 1818.26 1770.15 1835.67 1817.95 1870.18 1893.29 1871.13 1896.45 1870.18 1900.25 1868.28 1903.42 1865.11 1905.32 1861 1906.26 1860.05 1908.48 1856.57 1911.01 1851.82 1910.7 1841.69 1898.98 1833.14 1885.37 1822.38 1864.8 1811.93 1841.69 1800.85 1813.52 1790.72 1783.13 1781.54 1749.26 1776.48 1726.15 1768.88 1677.08 1771.41 1657.14 1772.68 1653.34 1774.9 1650.81 1778.38 1650.18ZM1551.41 1805.29 1519.12 1813.52 1490.63 1818.58 1469.11 1820.16 1454.23 1819.53 1429.54 1815.41 1412.76 1810.03 1399.47 1804.02 1387.12 1796.74 1361.8 1778.38 1355.47 1774.58 1351.35 1773 1249.74 1764.77 1227.9 1763.82 1213.65 1764.77 1203.52 1767.3 1182.31 1776.16 1177.88 1777.11 1173.13 1775.85 1169.02 1773 1166.49 1768.88 1165.54 1764.13 1167.44 1757.8 1172.18 1752.74 1173.13 1749.26 1175.35 1746.41 1185.16 1739.13 1194.34 1733.43 1212.39 1726.46 1222.2 1724.56 1233.28 1723.93 1316.22 1732.8 1346.92 1733.43 1348.5 1723.3 1351.35 1714.75 1355.47 1707.15 1360.53 1700.19 1373.19 1689.43 1383.96 1683.41 1394.72 1679.3 1405.48 1676.77 1414.66 1676.13 1430.81 1678.03 1439.67 1680.56 1448.22 1684.36 1453.6 1687.85 1462.46 1696.71 1465.31 1702.41 1467.53 1708.74 1468.16 1716.65 1467.53 1722.98 1463.09 1735.33 1457.4 1743.87 1449.8 1751.79 1440.94 1758.75 1431.12 1764.45 1420.36 1768.88 1409.91 1771.73 1427.32 1775.85 1444.73 1778.38 1462.46 1779.01 1490 1777.75 1517.22 1774.58 1568.82 1764.77 1592.56 1758.44 1657.46 1739.13 1662.52 1738.49 1665.69 1738.81 1668.54 1740.71 1670.43 1743.56 1671.07 1746.72 1675.5 1751.79 1677.4 1758.12 1675.5 1764.77 1666.95 1770.78 1646.69 1778.06 1551.41 1805.29ZM1833.77 902.168 1799.59 900.268 1787.24 898.369 1766.03 891.722 1758.44 887.923 1748.62 880.959 1741.34 873.995 1729.31 858.484 1656.82 862.916 1628.02 868.297 1616.62 872.729 1609.97 876.527 1605.23 880.959 1599.84 888.873 1594.46 892.671 1586.87 892.355 1583.07 890.455 1578.64 884.441 1578 880.326 1580.53 870.829 1583.38 866.714 1587.18 857.534 1591.61 850.887 1599.53 842.973 1614.09 833.793 1624.85 829.361 1635.93 826.512 1649.86 824.296 1667.27 823.347 1723.3 823.98 1726.15 814.483 1730.58 805.62 1736.28 797.073 1750.84 781.879 1759.7 775.231 1768.88 769.217 1788.51 760.353 1798.64 757.504 1817.95 755.289 1830.29 755.922 1840.74 757.821 1848.97 760.67 1856.57 764.468 1862.58 768.9 1867.01 773.332 1872.39 784.095 1872.71 792.008 1869.54 802.771 1865.75 810.052 1859.73 817.332 1850.55 825.563 1834.41 835.692 1811.3 845.189 1778.7 852.786 1801.17 856.585 1815.73 857.534 1852.13 857.534 1917.34 852.469 2006.61 842.023 2011.68 843.289 2015.16 847.405 2019.27 849.304 2022.12 852.153 2024.02 855.635 2024.97 860.067 2023.7 863.865 2020.54 867.664 2014.21 872.096 2003.13 877.16 1969.26 886.973 1949 890.772 1906.58 897.103 1866.06 900.902 1833.77 902.168Z" style="fill: var(--s-bg)" transform="matrix(1 0 0 1.00016 2788 826)"/>
        <path d="M2742.91 1994.27 3014.82 1699.87 3042.68 1667.9 3051.23 1656.51 3052.81 1652.71 3052.49 1650.49 3050.59 1648.28 3019.89 1625.48 2983.17 1595.73 2926.82 1546.66 2891.37 1514.69 2797.67 1426.06 2694.16 1325.71 2620.09 1257.34 2584.31 1226.32 2523.85 1177.57 2495.05 1156.04 2446.93 1123.44 2403.56 1098.43 2368.11 1082.28 2338.99 1072.16 2319.05 1067.72 2303.22 1065.19 2268.71 1064.24 2237.38 1064.87 2209.52 1067.09 2184.83 1070.57 2160.45 1075 2120.57 1086.08 2102.21 1093.05 2073.09 1106.66 2054.73 1118.05 2041.11 1127.55 2014.21 1150.98 1997.11 1157.31 1966.09 1172.18 1952.16 1180.42 1934.44 1193.08 1918.61 1206.06 1890.75 1234.55 1867.65 1263.35 1852.45 1285.51 1818.9 1340.59 1806.55 1357.68 1777.11 1384.91 1763.82 1398.52 1758.75 1406.12 1757.8 1409.6 1759.39 1418.14 1760.65 1420.04 1764.77 1422.26 1789.77 1418.78 1780.59 1459.61 1776.48 1483.35 1773.31 1518.49 1772.68 1538.75 1774.26 1579.9 1776.8 1595.41 1779.64 1606.18 1783.76 1615.67 1788.82 1622.64 1795.16 1628.33 1802.44 1633.08 1820.8 1642.26 1838.21 1728.36 1846.75 1763.5 1863.53 1817.31 1880.31 1859.1 1929.37 1959.13 1893.6 1952.8 1857.52 1948.05 1821.11 1945.52 1784.71 1944.57 1747.04 1945.52 1712.85 1947.73 1682.46 1950.9 1624.85 1960.71 1600.48 1966.73 1565.02 1976.86 1534.63 1987.3 1457.4 2018.01 1435.87 2025.6 1408.33 2032.25 1395.04 2033.83 1310.2 2038.9 1120.27 2048.08 1032.59 2054.41 1007.9 2057.58 971.492 2065.17 959.147 2068.97 939.521 2078.47 925.276 2089.86 919.261 2096.83 910.081 2113.6 905.966 2125.95 902.801 2141.14 900.585 2158.87 898.686 2186.73 898.369 2222.5 899.319 2261.43 901.851 2299.74 910.715 2374.13 922.11 2441.23 945.535 2553.61 946.485 2571.02 949.017 2575.14 953.132 2577.67 957.564 2578.62 1499.5 2576.4 2311.13 2571.34 2829.01 2565.01 2944.55 2562.47 3019.57 2559.62 3045.21 2557.09 3046.16 2556.46 3044.9 2539.68 3038.88 2495.36 3033.5 2465.93 3018.94 2404.51 3001.53 2348.49 2990.77 2319.68 2964.18 2258.27 2948.35 2227.56 2930.62 2196.54 2910.68 2165.2 2877.12 2119.62 2858.13 2097.46 2837.87 2074.99 2816.35 2054.09 2793.55 2033.52 2769.18 2013.58 2742.91 1994.27ZM2035.1 1163.95 2047.76 1184.85 2061.37 1204.16 2076.25 1221.88 2092.08 1238.66 2109.17 1254.17 2126.9 1268.42 2145.26 1281.08 2164.57 1292.79 2184.51 1302.92 2205.09 1311.78 2225.66 1319.38 2246.87 1325.71 2268.4 1330.46 2289.61 1333.94 2310.82 1336.16 2332.34 1336.79 2355.77 1336.16 2379.19 1333.63 2374.13 1376.99 2319.68 1379.21 2312.4 1364.65 2307.02 1359.58 2296.25 1353.57 2287.71 1350.4 2273.15 1347.24 2250.99 1344.07 2225.98 1342.17 2190.53 1341.54 2164.89 1342.49 2103.16 1349.45 2094.3 1351.99 2088.91 1356.73 2082.9 1359.58 2080.68 1362.11 2079.73 1365.91 2079.1 1372.24 2077.83 1424.79 2062.32 1426.37 2060.74 1401.05 2059.47 1389.02 2056.94 1378.89 2054.41 1372.56 2050.61 1367.18 2046.18 1363.06 2040.8 1359.9 2033.83 1357.68 2024.65 1357.05 1855.3 1360.53 1849.6 1362.75 1844.22 1367.18 1839.79 1372.56 1835.36 1380.47 1831.24 1391.87 1817.95 1394.72 1825.86 1370.66 1844.22 1331.73 1857.2 1309.57 1873.98 1285.19 1899.93 1253.22 1915.13 1237.08 1931.59 1221.88 1949.32 1207.96 1968.94 1194.34 2000.28 1177.57 2035.1 1163.95ZM2302.59 1401.37 2301.95 1425.11 2298.79 1457.4 2293.41 1482.4 2291.82 1486.2 2287.07 1489.68 2095.25 1482.72 2097.46 1368.13 2119.62 1364.65 2147.48 1361.8 2191.48 1359.9 2215.85 1360.85 2269.35 1366.55 2288.02 1370.03 2295.62 1373.83 2300.37 1381.74 2301.95 1387.76 2302.59 1401.37ZM2043.33 1426.06 2039.85 1484.94 2035.1 1490.32 2020.86 1495.38 1993 1499.18 1973.37 1500.13 1854.35 1501.71 1851.5 1500.13 1850.24 1497.92 1848.34 1485.57 1847.39 1473.22 1846.75 1436.5 1848.02 1404.85 1851.18 1387.12 1853.72 1382.37 1858.78 1378.58 2029.09 1375.09 2034.15 1376.04 2037.63 1377.94 2039.85 1381.11 2041.11 1385.86 2043.33 1426.06ZM1797.37 1390.92 1796.11 1397.25 1795.16 1398.2 1791.04 1398.52 1797.37 1390.92ZM1852.45 1631.5 1832.51 1627.07 1819.85 1622.32 1809.08 1616.94 1803.39 1612.51 1798.95 1607.44 1796.42 1600.16 1791.67 1559.33 1791.04 1539.07 1792.31 1508.99 1795.79 1479.56 1800.85 1450.12 1808.13 1421.31 1809.72 1417.19 1814.15 1413.4 1828.71 1410.23 1829.03 1470.06 1831.24 1497.6 1836.31 1511.53 1842.95 1517.86 1847.39 1519.44 1852.77 1520.07 1978.12 1518.49 2003.76 1516.59 2030.99 1511.21 2039.22 1508.36 2046.81 1503.93 2051.88 1499.5 2055.36 1494.43 2059.16 1481.77 2060.42 1447.27 2077.83 1447.27 2077.2 1488.1 2080.68 1495.38 2088.6 1499.5 2109.49 1502.35 2229.15 1506.15 2281.69 1508.68 2290.87 1508.04 2296.89 1505.83 2301.95 1502.35 2306.38 1497.28 2310.18 1489.05 2313.98 1477.02 2316.83 1460.56 2319.36 1433.66 2321.26 1396.3 2354.5 1395.04 2372.86 1396.3 2373.49 1407.38 2374.76 1410.55 2378.24 1413.71 2381.09 1414.03 2384.26 1413.4 2386.79 1410.86 2388.69 1406.75 2390.27 1398.83 2394.07 1359.9 2396.28 1345.02 2400.72 1329.51 2409.26 1309.25 2420.34 1294.37 2429.52 1287.41 2437.44 1284.56 2445.35 1283.61 2455.16 1284.56 2462.76 1286.46 2469.09 1289.31 2473.84 1293.11 2477.95 1298.17 2483.97 1311.15 2486.18 1319.7 2488.08 1338.06 2488.4 1376.99 2483.97 1453.28 2476.37 1524.51 2468.46 1566.92 2463.71 1583.07 2459.91 1592.88 2455.8 1599.84 2452 1604.59 2447.57 1586.87 2443.13 1582.43 2439.97 1581.8 2436.49 1582.43 2433.32 1584.65 2431.42 1587.82 2431.1 1591.61 2433.95 1617.25 2423.51 1622.64 2412.74 1626.43 2401.67 1628.97 2384.26 1629.92 2382.04 1630.87 2379.82 1634.98 2377.29 1644.16 2375.08 1659.36 2372.23 1706.52 2369.69 1917.34 2369.06 1941.72 2366.53 1970.84 2364 1979.7 2350.38 1995.53 2336.46 2009.14 2322.21 2021.49 2306.7 2032.25 2291.51 2041.75 2276 2049.66 2244.66 2062.32 2206.99 2072.14 2186.41 2075.62 2166.47 2077.52 2150.32 2077.83 2125.95 2076.89 2103.48 2074.04 2082.9 2069.29 2062.64 2063.27 2044.28 2055.99 2027.82 2048.08 2011.68 2038.9 1998.06 2029.72 1975.27 2010.41 1960.08 1993 1954.7 1983.82 1951.85 1976.86 1951.21 1971.47 1950.9 1710.64 1948.68 1671.7 1946.15 1660.31 1943.62 1653.66 1940.45 1648.91 1936.97 1645.43 1926.84 1641 1852.45 1631.5ZM973.075 2558.67 971.176 2557.72 968.327 2554.24 960.096 2532.72 954.398 2512.77 943.636 2463.39 928.758 2372.23 921.477 2307.33 918.945 2276.31 916.729 2219.02 918.945 2170.58 921.477 2153.17 928.758 2122.15 932.873 2112.02 942.686 2095.25 954.715 2084.17 960.413 2081.32 968.327 2079.42 1380.16 2053.46 1389.34 2053.78 1358.32 2074.35 1329.83 2094.61 1304.19 2114.87 1280.76 2134.81 1237.39 2177.23 1202.26 2217.75 1181.36 2245.92 1163.95 2272.51 1149.08 2298.15 1135.78 2324.43 1124.7 2348.8 1116.16 2371.28 1108.56 2394.39 1098.75 2433.32 1094 2459.91 1091.78 2479.54 1090.52 2505.49 1091.15 2515.94 1098.75 2557.72 973.075 2558.67ZM1743.56 2554.88 1711.27 2554.88 1712.22 2528.6 1711.27 2502.65 1708.42 2477 1701.77 2444.08 1691.64 2414.01 1679.3 2389 1671.38 2377.92 1663.47 2369.06 1654.92 2362.1 1647.96 2357.67 1633.4 2352.6 1625.48 2351.97 1617.25 2352.6 1602.06 2357.67 1595.1 2361.78 1586.87 2368.74 1578.95 2376.97 1571.35 2387.42 1559.01 2410.21 1546.66 2443.13 1536.85 2483.97 1532.1 2521 1531.79 2535.57 1533.05 2555.83 1499.18 2555.83 1497.28 2538.42 1497.92 2526.39 1501.08 2488.08 1502.66 2474.79 1504.56 2470.36 1507.41 2467.19 1521.66 2458.01 1534 2446.3 1554.89 2413.69 1560.59 2401.03 1561.23 2394.07 1559.64 2380.77 1569.77 2370.01 1576.74 2355.45 1578.64 2348.17 1579.9 2339.31 1579.27 2334.24 1575.47 2325.06 1571.99 2321.26 1574.2 2316.51 1575.79 2306.7 1574.2 2295.3 1569.14 2277.89 1565.66 2272.83 1561.54 2268.71 1553.94 2263.97 1544.45 2260.48 1559.01 2241.81 1567.56 2232.31 1589.08 2213.32 1601.74 2205.09 1615.99 2198.44 1626.12 2194.96 1636.56 2193.06 1647.64 2192.11 1658.41 2193.06 1669.17 2195.59 1679.93 2199.71 1690.69 2206.04 1700.82 2213.63 1710.32 2222.81 1719.82 2233.89 1729.31 2247.51 1736.91 2261.43 1744.19 2277.58 1750.84 2295.62 1756.85 2316.51 1761.28 2336.77 1764.45 2359.25 1766.67 2384.26 1766.98 2431.42 1762.55 2478.9 1754 2521.64 1743.56 2554.88ZM1431.12 2293.09 1446 2290.24 1493.17 2277.89 1505.2 2276 1514.69 2275.36 1529.25 2276.31 1543.5 2279.48 1549.2 2282.33 1551.73 2285.18 1554.89 2292.46 1556.48 2300.05 1557.11 2312.71 1540.65 2311.45 1525.77 2312.4 1512.79 2314.93 1500.13 2318.41 1467.53 2330.12 1457.4 2332.97 1443.78 2335.19 1441.25 2336.46 1439.35 2338.99 1438.72 2342.47 1439.35 2346.27 1441.57 2348.49 1447.58 2350.7 1452.33 2351.02 1467.21 2347.85 1502.98 2336.46 1529.57 2330.76 1541.92 2329.81 1548.88 2330.44 1557.43 2333.92 1560.59 2336.46 1561.54 2339.94 1559.96 2348.49 1556.48 2356.08 1545.08 2372.23 1524.51 2374.13 1496.65 2378.87 1459.61 2390.27 1441.57 2393.75 1437.45 2395.97 1435.87 2398.18 1435.24 2401.35 1437.14 2406.41 1442.2 2409.58 1447.27 2409.9 1462.78 2407.05 1493.8 2397.23 1507.41 2394.07 1521.66 2392.17 1542.55 2391.22 1542.23 2397.55 1539.38 2403.56 1531.15 2417.81 1515.64 2438.39 1502.98 2448.51 1494.12 2452.95 1485.57 2456.11 1471.96 2459.59 1427.96 2465.29 1412.45 2468.14 1395.99 2472.89 1385.22 2477.32 1354.52 2496 1346.92 2499.16 1332.99 2502.96 1322.86 2503.91 1313.05 2499.48 1302.92 2493.47 1302.29 2469.09 1303.24 2449.46 1305.14 2430.47 1308.62 2411.48 1313.05 2393.12 1320.96 2368.74 1329.83 2345.64 1340.59 2323.16 1364.65 2281.69 1377.63 2263.02 1404.53 2229.46 1417.19 2215.85 1442.2 2192.74 1463.41 2178.18 1471.01 2175.02 1476.07 2174.07 1477.97 2174.7 1478.61 2176.92 1475.76 2186.41 1471.96 2193.38 1464.99 2203.51 1427.32 2250.67 1420.36 2261.12 1414.35 2273.46 1413.4 2277.58 1414.03 2282.33 1417.51 2288.02 1425.11 2292.14 1431.12 2293.09ZM1953.43 2530.82 1939.19 2554.24 1849.92 2554.24 1849.29 2475.11 1845.8 2420.03 1842.64 2388.05 1837.57 2353.23 1830.61 2317.78 1822.06 2282.01 1814.78 2258.58 1806.23 2236.11 1788.82 2198.12 1779.96 2183.25 1760.33 2156.66 1749.26 2144.63 1736.91 2133.86 1723.93 2124.68 1710 2116.77 1695.44 2110.44 1679.61 2105.69 1662.52 2102.84 1643.84 2101.89 1626.43 2102.84 1610.29 2105.06 1595.1 2108.86 1579.9 2113.92 1552.99 2125.95 1519.12 2146.53 1494.12 2164.25 1487.15 2158.56 1483.04 2156.34 1477.02 2155.71 1467.21 2156.97 1459.93 2159.5 1449.48 2164.89 1438.4 2172.17 1424.16 2183.56 1403.9 2203.51 1380.47 2232.63 1349.77 2277.58 1346.29 2281.06 1342.17 2283.28 1336.79 2283.91 1321.6 2282.33 1299.12 2282.64 1276.33 2286.44 1259.87 2291.51 1245.31 2297.84 1219.98 2312.08 1210.17 2319.68 1203.21 2326.01 1198.46 2332.34 1197.19 2336.14 1198.14 2339.62 1202.57 2344.37 1206.06 2345.32 1209.22 2344.37 1214.6 2340.89 1238.03 2322.84 1249.42 2315.88 1262.09 2309.87 1277.28 2304.8 1288.04 2302.27 1299.75 2300.69 1330.46 2300.05 1331.09 2301.95 1320.33 2321.58 1311.15 2341.52 1302.92 2362.1 1296.27 2383.31 1291.21 2404.83 1287.41 2426.67 1284.88 2448.51 1284.24 2470.99 1285.51 2502.65 1286.46 2506.13 1291.21 2509.93 1306.09 2516.89 1320.96 2521.95 1326.03 2522.27 1336.47 2521 1368.13 2510.88 1368.45 2535.57 1371.61 2556.78 1117.42 2558.04 1111.72 2531.45 1108.56 2507.08 1109.51 2481.12 1112.04 2455.8 1116.16 2431.42 1121.54 2408 1128.5 2384.57 1136.73 2362.1 1145.91 2340.25 1156.36 2319.05 1171.55 2291.51 1188.01 2265.55 1205.74 2241.17 1224.73 2217.43 1243.73 2195.59 1283.61 2155.71 1322.23 2122.15 1351.04 2099.99 1375.73 2082.9 1399.47 2068.02 1417.19 2058.21 1432.71 2051.24 1439.67 2049.35 1777.75 2027.19 1783.13 2028.14 1788.51 2030.67 1794.84 2035.42 1801.8 2043.01 1818.58 2068.02 1828.08 2085.75 1841.06 2114.24 1867.65 2183.88 1880.62 2222.81 1904.68 2301.95 1925.89 2378.87 1942.35 2445.67 1956.6 2513.41 1957.23 2520.37 1956.28 2526.07 1953.43 2530.82ZM1972.74 2554.24 1985.72 2527.65 1997.11 2508.34 2011.04 2487.77 2029.4 2463.08 2058.84 2429.52 2077.2 2411.48 2095.88 2394.39 2117.4 2376.97 2141.14 2359.88 2159.5 2348.17 2200.34 2325.69 2223.13 2315.25 2245.92 2306.07 2270.3 2297.52 2296.57 2290.24 2324.43 2283.59 2351.97 2278.53 2381.41 2274.73 2412.74 2272.51 2445.98 2271.56 2482.39 2273.15 2512.46 2310.5 2544.75 2347.22 2563.74 2367.16 2601.09 2400.4 2634.01 2424.14 2651.74 2434.9 2669.78 2443.77 2688.14 2451.36 2716.63 2458.96 2745.76 2461.81 2766.96 2459.59 2776.46 2456.75 2785.32 2452.95 2792.92 2448.2 2799.25 2442.82 2804.32 2436.17 2807.17 2429.21 2808.43 2420.98 2807.48 2413.69 2804.95 2405.78 2800.84 2396.92 2794.5 2387.1 2784.37 2375.39 2771.4 2362.73 2754.62 2349.43 2736.89 2337.09 2716.32 2324.74 2691.94 2312.08 2667.57 2301 2640.03 2290.24 2609.96 2280.11 2579.57 2271.56 2546.65 2263.97 2498.53 2255.42 2483.34 2230.1 2477 2217.12 2465.61 2186.73 2461.49 2171.85 2457.7 2146.84 2457.06 2106.96 2455.8 2099.99 2454.21 2096.51 2452 2094.61 2448.51 2093.98 2444.72 2094.61 2442.18 2096.83 2439.65 2106.64 2439.65 2142.09 2443.13 2170.58 2447.25 2190.21 2452.31 2206.04 2464.34 2232.94 2475.42 2253.52 2410.21 2254.15 2376.02 2256.69 2344.69 2260.48 2315.56 2265.55 2286.12 2272.2 2258.9 2280.11 2233.58 2288.66 2210.47 2298.15 2187.04 2308.92 2165.84 2320.63 2127.53 2345 2103.79 2363.05 2082.58 2381.09 2063.27 2399.45 2028.45 2437.44 1974.32 2507.39 1955.33 2420.34 1930.96 2326.01 1902.47 2231.99 1886.95 2186.73 1871.76 2145.89 1855.62 2106.96 1840.42 2074.67 1829.34 2054.41 1819.53 2038.58 1810.35 2026.55 1802.44 2018.32 1795.16 2012.94 1788.82 2010.09 1783.13 2008.83 1504.56 2026.87 1481.77 2027.5 1514.38 2013.58 1568.51 1995.22 1629.6 1979.7 1687.85 1969.57 1718.23 1966.09 1750.84 1963.88 1785.66 1962.93 1840.11 1965.14 1883.47 1969.57 1913.86 1974.64 1927.79 1978.12 1933.17 1996.16 1939.19 2012.63 1946.15 2027.5 1954.06 2040.8 1963.24 2053.46 1972.74 2064.86 1993.32 2084.48 2008.51 2095.56 2024.02 2104.74 2039.53 2112.66 2071.5 2124.68 2109.17 2133.23 2146.53 2137.35 2180.71 2136.71 2200.66 2134.81 2219.02 2131.96 2236.11 2127.85 2268.71 2116.45 2296.25 2102.53 2313.03 2091.45 2327.59 2080.05 2340.25 2068.34 2352.28 2055.68 2370.33 2032.25 2380.46 2014.52 2387.1 2000.6 2391.22 1987.62 2392.49 1980.34 2391.85 1976.54 2386.79 1966.41 2386.15 1961.34 2387.42 1941.72 2410.53 1936.34 2426.99 1934.12 2474.16 1931.91 2501.06 1932.54 2527.02 1934.44 2551.71 1937.6 2575.45 1942.03 2598.24 1947.42 2626.73 1955.65 2653.64 1965.78 2679.28 1976.86 2703.97 1989.52 2727.71 2003.76 2750.19 2019.27 2771.71 2035.42 2792.29 2052.83 2830.59 2090.81 2864.78 2131.65 2885.67 2160.45 2904.98 2189.58 2922.39 2219.65 2938.53 2250.35 2953.1 2280.74 2966.39 2311.13 2988.55 2371.91 3005.64 2429.84 3017.36 2482.07 3023.37 2518.79 3026.85 2549.18 1972.74 2554.24ZM2512.14 2276.63 2549.81 2283.91 2583.37 2291.82 2613.44 2300.69 2643.19 2311.13 2669.15 2321.58 2691.63 2332.02 2713.47 2344.05 2731.51 2355.13 2746.71 2365.9 2760.95 2377.61 2771.4 2388.05 2779.31 2397.23 2785.96 2407.05 2789.12 2414.64 2790.07 2420.66 2787.86 2428.26 2779.63 2435.22 2772.98 2438.39 2758.1 2442.18 2745.44 2443.13 2728.66 2442.18 2711.88 2439.02 2694.47 2433.64 2677.7 2426.99 2660.92 2418.76 2628.32 2398.18 2598.24 2375.08 2577.35 2356.08 2558.99 2337.72 2542.21 2319.05 2529.24 2302.9 2518.16 2287.39 2512.14 2276.63Z" style="fill: var(--s-deco)" transform="matrix(1 0 0 1.00016 2788 826)"/>
        <path d="M1808.13 1237.39 1807.5 1225.68 1805.29 1213.65 1801.8 1201.62 1796.74 1189.6 1790.09 1176.93 1780.59 1163.01 1768.88 1148.76 1754.64 1134.52 1737.86 1120.27 1720.45 1107.93 1700.82 1095.58 1678.67 1083.87 1653.97 1072.79 1629.6 1063.29 1602.69 1054.74 1573.57 1046.83 1541.92 1040.18 1510.58 1035.12 1477.34 1031.32 1441.57 1028.79 1403.58 1027.84 1344.07 1030.37 1288.04 1037.33 1260.5 1042.4 1234.23 1048.73 1186.11 1063.61 1162.69 1072.79 1141.48 1082.92 1122.17 1093.36 1104.76 1104.76 1087.67 1117.42 1073.1 1130.72 1061.08 1144.33 1050.63 1158.57 1043.67 1170.92 1038.28 1183.26 1034.49 1195.93 1031.95 1209.22 1031 1222.83 1031.95 1234.23 1033.85 1245.94 1037.02 1257.65 1041.77 1269.68 1048.1 1282.03 1057.28 1296.27 1068.67 1310.52 1082.28 1324.76 1098.43 1339.01 1115.52 1351.35 1134.52 1363.7 1156.36 1375.73 1180.73 1387.12 1205.11 1396.62 1231.7 1405.48 1261.14 1413.4 1293.11 1420.36 1324.76 1425.43 1358.63 1429.22 1395.35 1431.76 1434.92 1432.71 1465.63 1432.07 1527.35 1426.69 1558.06 1422.26 1569.46 1444.42 1575.15 1452.65 1587.82 1466.58 1603.64 1477.34 1611.56 1481.14 1619.79 1483.67 1631.82 1485.57 1635.61 1484.94 1640.36 1479.87 1642.58 1471.96 1641.95 1468.16 1629.28 1454.86 1625.17 1448.22 1621.37 1439.67 1616.3 1420.68 1616.3 1408.33 1653.97 1396.62 1674.23 1388.39 1696.08 1378.26 1716.97 1366.55 1737.54 1353.25 1762.23 1332.68 1773.31 1321.28 1783.44 1308.93 1791.67 1296.27 1798.64 1282.66 1805.6 1261.14 1808.13 1237.39ZM1610.61 1459.61 1602.06 1453.91 1594.46 1446.95 1587.82 1439.35 1582.12 1430.81 1577.69 1421.63 1572.62 1407.07 1570.72 1404.22 1567.87 1402.63 1564.07 1402 1529.25 1408.01 1503.3 1411.18 1473.86 1413.4 1433.34 1414.35 1401.37 1413.71 1369.71 1411.5 1338.69 1408.01 1307.35 1402.95 1277.6 1396.94 1248.79 1389.65 1220.62 1380.79 1194.34 1370.98 1169.65 1360.53 1145.91 1348.19 1125.02 1335.52 1106.34 1322.23 1093.36 1310.83 1081.97 1299.44 1072.47 1287.73 1064.56 1275.7 1057.91 1263.03 1053.16 1250.06 1050.31 1236.44 1049.36 1222.83 1050.31 1211.12 1052.53 1199.41 1056.01 1188.33 1061.08 1177.25 1067.72 1166.17 1077.22 1153.51 1088.93 1141.48 1102.54 1129.45 1118.69 1117.74 1135.47 1107.61 1153.83 1097.8 1174.4 1088.62 1219.35 1072.79 1269.05 1060.44 1323.81 1051.9 1381.42 1047.46 1412.13 1046.83 1444.1 1047.46 1475.44 1049.68 1506.15 1053.48 1536.85 1058.54 1566.29 1064.56 1594.78 1072.16 1622.64 1081.02 1648.28 1090.83 1672.33 1101.59 1695.44 1113.94 1716.02 1126.6 1734.06 1140.21 1747.04 1151.29 1758.12 1162.69 1767.3 1174.4 1775.21 1186.11 1781.54 1198.78 1785.98 1211.44 1788.82 1224.42 1789.77 1237.71 1789.14 1250.06 1787.24 1261.14 1784.08 1271.9 1779.64 1282.03 1772.36 1294.69 1763.5 1306.4 1753.37 1317.48 1742.29 1327.61 1717.6 1345.34 1697.66 1356.73 1678.35 1366.23 1641.95 1380.16 1604.28 1391.24 1600.79 1393.77 1598.58 1397.25 1597.63 1402 1598.26 1423.53 1600.79 1435.87 1604.91 1448.22 1610.61 1459.61Z" style="fill: var(--s-deco)" transform="matrix(1 0 0 1.00016 2788 826)"/>
        <path d="M1662.52 1738.49 1568.82 1764.77 1517.22 1774.58 1490 1777.75 1462.46 1779.01 1443.15 1778.06 1427.64 1776.16 1415.93 1773.63 1395.99 1765.72 1385.54 1756.85 1382.06 1749.89 1408.96 1745.46 1431.12 1738.81 1444.42 1731.53 1453.91 1722.67 1456.45 1716.97 1457.4 1710.95 1456.76 1706.52 1453.28 1699.24 1448.85 1694.81 1437.14 1688.48 1430.81 1686.58 1420.04 1685.31 1402.32 1689.11 1393.14 1692.91 1381.11 1701.14 1370.35 1712.85 1366.23 1720.77 1361.48 1732.8 1316.22 1732.8 1244.67 1724.56 1222.2 1724.56 1212.39 1726.46 1203.21 1729.31 1185.16 1739.13 1175.35 1746.41 1173.13 1749.26 1172.18 1752.74 1172.82 1755.59 1176.93 1760.02 1179.78 1760.65 1182.63 1760.02 1202.57 1748.31 1210.8 1745.14 1219.98 1743.24 1232.33 1742.29 1293.11 1749.26 1315.58 1750.84 1362.11 1751.79 1367.18 1762.55 1372.24 1769.2 1378.58 1775.53 1395.67 1785.98 1416.25 1792.94 1427.96 1795.16 1459.93 1797.37 1477.97 1796.74 1499.81 1794.84 1545.71 1787.87 1591.61 1778.06 1631.82 1766.98 1648.59 1761.28 1667.27 1752.1 1670.12 1749.26 1671.07 1746.72 1670.43 1743.56 1668.54 1740.71 1665.69 1738.81 1662.52 1738.49ZM1419.73 1703.67 1429.86 1705.57 1438.72 1710.95 1433.66 1717.28 1420.68 1723.62 1411.18 1726.15 1382.37 1731.21 1384.91 1725.2 1389.65 1718.87 1395.99 1712.85 1403.27 1708.1 1411.5 1704.94 1419.73 1703.67Z" style="fill: var(--s-deco)" transform="matrix(1 0 0 1.00016 2788 826)"/>
        <path d="M2006.61 842.023 1917.34 852.469 1852.13 857.534 1810.98 857.218 1793.89 855.951 1773 850.887 1766.67 848.038 1759.7 842.023 1796.74 834.426 1821.11 826.829 1839.16 817.649 1850.24 808.785 1854.03 803.404 1856.25 797.706 1857.2 791.692 1856.57 785.677 1852.13 777.764 1847.7 773.965 1835.67 768.584 1828.71 767.634 1812.88 767.317 1792.94 771.749 1781.23 776.497 1765.72 786.627 1750.52 801.821 1743.56 811.634 1736.91 823.98 1667.27 823.347 1652.71 823.98 1630.87 827.779 1613.14 834.109 1597.94 844.239 1587.5 856.585 1583.38 867.347 1584.02 870.196 1588.13 874.311 1591.3 874.944 1594.46 873.995 1597.31 872.096 1605.86 860.7 1617.57 851.836 1627.38 847.721 1649.54 842.34 1660.94 841.707 1729.63 842.973 1738.81 843.606 1742.29 849.937 1752.1 860.067 1758.44 864.182 1767.62 868.297 1778.38 871.462 1791.36 873.995 1811.62 875.894 1835.36 876.527 1864.8 875.261 1939.5 868.297 2009.46 859.433 2014.52 855.951 2016.11 849.62 2012.63 843.923 2006.61 842.023ZM1820.8 785.044 1834.72 787.26 1837.89 789.159 1838.84 791.692 1831.56 799.922 1823.65 804.987 1813.83 809.735 1798.64 815.116 1781.54 819.232 1757.17 823.03 1769.2 807.836 1784.39 795.49 1793.26 791.059 1802.12 787.893 1809.4 785.994 1820.8 785.044Z" style="fill: var(--s-deco)" transform="matrix(1 0 0 1.00016 2788 826)"/>
        <path d="M3147.14 1182.63 3056.29 1194.66 3013.56 1196.88 2986.33 1195.93 2966.39 1194.03 2948.66 1190.86 2928.4 1185.16 2928.72 1183.58 2965.76 1167.75 2987.92 1154.77 2997.41 1146.86 3004.69 1138.31 3008.49 1132.3 3010.71 1125.65 3011.66 1119 3011.02 1113.62 3006.91 1105.71 3001.84 1101.28 2994.88 1098.11 2979.69 1095.9 2960.06 1098.11 2938.85 1105.08 2919.54 1115.52 2910.68 1121.85 2896.75 1136.1 2891.69 1144.33 2888.84 1152.56 2887.89 1160.79 2889.79 1174.4 2861.93 1179.47 2821.41 1182.63 2791.02 1182.95 2749.24 1181.05 2744.17 1181.68 2739.11 1185.16 2737.53 1190.23 2738.47 1194.03 2740.37 1196.24 2743.54 1197.51 2785.32 1200.99 2835.66 1200.36 2876.17 1195.93 2900.86 1191.18 2925.24 1203.21 2937.9 1207.32 2956.89 1211.44 2987.92 1214.92 3024.64 1214.92 3077.82 1210.49 3112 1206.06 3150.62 1199.72 3152.84 1198.78 3156 1194.66 3155.69 1188.33 3153.79 1185.16 3150.94 1183.26 3147.14 1182.63ZM2905.93 1160.47 2907.2 1156.36 2910.99 1149.08 2916.69 1141.8 2931.89 1128.82 2948.35 1119.95 2957.53 1117.11 2967.66 1114.89 2979.05 1114.26 2989.5 1115.84 2992.35 1117.42 2993.3 1119.64 2990.45 1125.34 2986.65 1130.4 2979.05 1138 2969.24 1144.96 2953.41 1153.83 2927.46 1164.27 2909.1 1169.65 2906.88 1165.22 2905.93 1160.47Z" style="fill: var(--s-deco)" transform="matrix(1 0 0 1.00016 2788 826)"/>
        <path d="M1781.86 1667.9 1781.86 1656.19 1784.08 1651.44 1786.29 1649.86 1789.77 1649.23 1792.94 1649.86 1795.16 1651.44 1797.69 1655.87 1801.49 1697.66 1804.65 1716.33 1810.67 1744.19 1818.26 1770.15 1835.67 1817.95 1871.13 1896.45 1870.18 1900.25 1868.28 1903.42 1865.11 1905.32 1861.31 1906.26 1856.25 1902.47 1851.18 1894.87 1835.04 1864.48 1816.68 1821.11 1807.82 1796.42 1792.31 1744.19 1786.61 1718.23 1782.18 1685.31 1781.54 1667.9Z" style="fill: var(--s-deco)" transform="matrix(1 0 0 1.00016 2788 826)"/>
        <path d="M2428.57 1491.58 2439.02 1493.48 2443.77 1495.7 2448.2 1499.18 2453.58 1509.63 2455.48 1523.87 2453.9 1557.74 2451.36 1565.34 2448.51 1567.87 2444.4 1568.82 2440.92 1568.19 2438.07 1566.29 2436.17 1563.44 2435.54 1559.96 2437.75 1521.66 2435.54 1511.21 2433.95 1509.94 2430.79 1509.31 2421.61 1510.26 2415.91 1509.31 2410.85 1505.83 2408.63 1498.55 2424.14 1399.47 2427.94 1380.79 2430.16 1375.73 2433.95 1372.56 2440.28 1373.19 2443.45 1375.41 2445.35 1378.58 2445.67 1382.37 2444.08 1394.09 2428.57 1491.58Z" style="fill: var(--s-deco)" transform="matrix(1 0 0 1.00016 2788 826)"/>
        <path d="M2053.78 1588.45 2036.05 1585.6 2025.29 1580.85 2022.44 1578.32 2020.54 1572.62 2021.17 1569.14 2023.07 1566.29 2025.6 1564.39 2029.09 1563.76 2042.7 1568.51 2054.09 1570.09 2062.01 1569.46 2069.6 1567.24 2076.89 1564.07 2085.12 1559.01 2096.51 1548.88 2103.16 1540.65 2114.24 1520.71 2116.77 1517.86 2122.15 1515.96 2125.63 1516.59 2128.48 1518.49 2130.38 1521.34 2130.38 1528.3 2123.73 1541.92 2111.07 1559.64 2102.21 1568.51 2092.4 1576.1 2080.68 1582.43 2063.59 1587.5 2053.78 1588.45Z" style="fill: var(--s-deco)" transform="matrix(1 0 0 1.00016 2788 826)"/>
        <path d="M2150.64 1477.02 2147.16 1476.39 2143.99 1474.49 2142.09 1471.32 2141.46 1467.84 2143.04 1463.09 2147.48 1459.3 2173.43 1445.05 2180.4 1445.37 2183.25 1447.27 2185.15 1450.43 2185.78 1453.91 2185.15 1457.4 2182.61 1460.25 2175.97 1463.73 2150.64 1477.02Z" style="fill: var(--s-deco)" transform="matrix(1 0 0 1.00016 2788 826)"/>
        <path d="M2120.89 1416.88 2120.57 1430.49 2117.72 1434.92 2112.66 1436.5 2109.17 1435.87 2106.96 1434.29 2105.37 1431.76 2104.11 1418.78 2104.74 1403.58 2106.96 1398.52 2112.34 1396.62 2115.82 1397.25 2119.3 1400.73 2120.89 1407.7 2120.57 1416.88Z" style="fill: var(--s-deco)" transform="matrix(1 0 0 1.00016 2788 826)"/>
        <path d="M2014.84 1416.25 2013.58 1431.76 2009.46 1436.5 2005.66 1437.45 2001.55 1436.82 1999.01 1434.29 1997.11 1430.17 1996.16 1421.63 1996.48 1401.68 1997.75 1398.83 2001.86 1395.67 2005.03 1395.04 2010.41 1396.62 2013.58 1402 2014.52 1416.25Z" style="fill: var(--s-deco)" transform="matrix(1 0 0 1.00016 2788 826)"/>
        <path d="M1986.67 1474.17 1986.04 1477.34 1981.92 1481.77 1978.75 1482.72 1972.11 1481.14 1960.71 1477.34 1949.95 1471.32 1947.42 1468.79 1945.2 1463.73 1947.42 1458.03 1949.95 1456.13 1952.8 1455.5 1957.23 1456.76 1980.97 1466.26 1986.04 1470.69 1986.67 1474.17Z" style="fill: var(--s-deco)" transform="matrix(1 0 0 1.00016 2788 826)"/>
        <path d="M1188.01 1215.55 1188.96 1233.6 1193.71 1251.01 1198.14 1259.24 1202.89 1265.88 1208.9 1271.9 1215.55 1276.33 1222.52 1279.18 1230.11 1280.13 1237.39 1279.18 1247.52 1274.75 1257.65 1266.2 1263.98 1263.67 1269.68 1266.2 1272.21 1271.9 1270.95 1275.7 1266.83 1281.39 1260.5 1287.09 1251.64 1292.47 1245.31 1295.32 1229.48 1297.86 1214.92 1295.32 1200.99 1288.04 1192.76 1281.08 1185.48 1272.21 1178.83 1261.14 1175.35 1252.27 1170.92 1231.7 1169.97 1219.67 1170.92 1207.01 1173.77 1194.03 1176.93 1185.48 1185.16 1169.97 1196.88 1156.99 1204.16 1151.93 1211.75 1148.13 1220.3 1145.91 1229.8 1144.96 1243.09 1146.86 1255.12 1152.24 1257.97 1154.77 1260.19 1160.47 1259.55 1163.64 1255.44 1168.07 1249.74 1168.39 1234.55 1163.01 1222.52 1163.01 1211.75 1167.75 1204.79 1173.77 1198.78 1181.05 1194.34 1189.6 1190.86 1198.46 1188.65 1207.32 1188.01 1215.55Z" style="fill: var(--s-deco)" transform="matrix(1 0 0 1.00016 2788 826)"/>
        <path d="M1530.2 1230.11 1531.79 1266.2 1530.2 1273.48 1525.77 1276.65 1520.07 1276.65 1515.64 1272.21 1514.69 1269.05 1509.31 1157.62 1511.21 1150.66 1514.69 1147.81 1521.02 1147.49 1523.24 1148.76 1524.82 1150.98 1526.4 1156.04 1528.62 1197.83 1566.29 1175.98 1570.09 1175.35 1573.25 1175.98 1577.69 1180.42 1578.32 1183.58 1577.69 1187.06 1574.84 1190.54 1539.7 1212.7 1591.3 1258.29 1593.51 1263.67 1590.98 1269.68 1585.28 1272.21 1581.48 1271.27 1575.79 1267.47 1531.79 1229.48Z" style="fill: var(--s-deco)" transform="matrix(1 0 0 1.00016 2788 826)"/>
        <path d="M1312.73 1274.75 1371.3 1271.58 1378.58 1273.16 1381.74 1276.96 1382.37 1280.13 1381.74 1283.29 1378.26 1287.41 1368.76 1288.99 1306.4 1292.47 1300.7 1291.52 1297.86 1289.62 1295.64 1283.29 1288.04 1160.47 1289.94 1153.19 1293.74 1150.34 1296.59 1149.71 1299.75 1150.34 1302.29 1151.61 1305.14 1160.16 1312.73 1274.75Z" style="fill: var(--s-deco)" transform="matrix(1 0 0 1.00016 2788 826)"/>
        <path d="M1419.09 1218.72 1420.04 1201.94 1422.26 1190.23 1426.06 1180.1 1431.12 1170.92 1437.14 1163.32 1443.47 1157.62 1450.75 1153.19 1458.35 1150.66 1469.74 1150.03 1476.71 1151.61 1483.35 1155.09 1485.57 1157.62 1486.52 1161.42 1485.89 1164.59 1483.99 1167.44 1481.14 1169.34 1477.66 1169.97 1464.68 1168.07 1459.3 1169.02 1454.86 1170.92 1450.75 1174.08 1445.68 1180.42 1441.89 1188.01 1437.14 1204.16 1435.87 1216.82 1438.09 1233.6 1440.62 1241.51 1444.1 1249.42 1452.33 1261.45 1457.71 1266.2 1463.09 1268.73 1468.48 1269.68 1475.76 1268.42 1483.35 1264.62 1489.37 1264.93 1493.8 1269.37 1494.43 1272.53 1493.17 1276.65 1490 1280.13 1480.19 1285.51 1468.79 1287.41 1461.83 1286.78 1455.18 1284.88 1443.47 1277.28 1433.34 1266.2 1427.32 1255.75 1422.89 1244.04 1420.04 1231.7 1419.09 1218.72Z" style="fill: var(--s-deco)" transform="matrix(1 0 0 1.00016 2788 826)"/>
        <path d="M1410.86 1273.16 1409.6 1284.56 1405.8 1288.36 1402.32 1288.99 1399.15 1288.04 1394.4 1283.61 1392.82 1270.32 1386.49 1169.65 1387.12 1165.22 1390.29 1160.79 1395.04 1159.52 1398.52 1159.84 1400.73 1161.11 1402.32 1163.95 1403.9 1169.65 1410.86 1273.16Z" style="fill: var(--s-deco)" transform="matrix(1 0 0 1.00016 2788 826)"/>
        <path d="M1655.87 1240.88 1655.24 1249.74 1654.29 1252.27 1650.49 1255.44 1644.16 1255.44 1639.73 1251.32 1638.78 1248.47 1633.08 1153.19 1634.66 1146.23 1638.46 1143.06 1641.63 1142.43 1645.11 1143.06 1647.64 1144.96 1649.23 1148.44 1650.81 1156.99 1655.56 1240.88Z" style="fill: var(--s-deco)" transform="matrix(1 0 0 1.00016 2788 826)"/>
        <path d="M1649.54 1277.28 1655.24 1279.5 1657.77 1285.19 1655.87 1290.26 1650.81 1293.11 1645.43 1292.16 1643.53 1290.26 1641.63 1284.88 1643.84 1279.5 1649.54 1277.28Z" style="fill: var(--s-deco)" transform="matrix(1 0 0 1.00016 2788 826)"/>
    </g>
</svg>