<svg viewBox="240 120 740 700"
    xmlns="http://www.w3.org/2000/svg"
    xmlns:xlink="http://www.w3.org/1999/xlink" xml:space="preserve" overflow="hidden">
    <style>
    :root {
        --s-deco: #561504;
        --s-bg: #FFBEAD;
    }
    </style>
    <g transform="translate(-4931 -2640)">
        <path d="M713.853 481.157 713.758 481.818 713.192 482.29 713.475 481.157Z" style="fill: var(--s-bg)" transform="matrix(1.00088 0 0 1 4931 2640)"/>
        <path d="M268.096 599.912 279.802 598.496 285.749 598.307 294.15 598.59 301.891 599.346 308.877 600.478 315.768 602.083 327.285 605.765 335.026 608.974 340.878 611.995 345.976 615.11 352.206 619.642 349.469 603.027 348.714 589.528 348.997 581.032 349.846 573.291 351.074 566.211 352.773 559.792 355.133 553.467 357.682 547.614 360.608 542.422 363.818 537.608 367.499 533.077 371.37 528.923 375.523 525.242 379.771 521.938 385.907 518.067 392.138 514.669 398.651 511.931 405.259 509.666 411.773 507.966 418.192 506.645 424.8 505.795 436.694 505.134 450.571 505.795 465.675 508.061 472.944 509.666 489.464 514.197 490.786 513.442 491.824 512.214 494.562 506.928 496.733 499.47 497.394 495.317 497.677 490.974 497.488 487.765 433.39 490.314 431.597 489.842 430.464 487.482 429.426 485.971 429.142 485.027 425.838 345.221 426.122 337.669 426.877 330.211 428.104 322.659 429.898 315.202 432.069 307.838 434.712 300.57 437.827 293.49 441.414 286.504 445.379 279.707 449.816 273.194 454.63 266.963 459.822 260.922 465.392 255.258 471.245 249.877 477.57 244.968 484.272 240.342 491.163 236.189 498.432 232.507 505.984 229.298 514.008 226.654 520.427 224.861 527.035 223.539 533.926 222.501 541.006 221.84 548.275 221.651 555.733 221.84 562.907 222.406 569.61 223.35 576.029 224.672 582.07 226.277 589.717 228.731 596.891 231.658 603.594 235.056 609.918 238.738 615.96 242.891 621.718 247.422 627.005 252.142 632.008 257.146 640.976 268.096 648.622 279.613 653.059 287.731 656.93 295.85 660.234 304.062 663.066 312.464 665.237 320.677 666.936 328.606 668.163 336.63 668.918 344.182 669.107 351.262 669.013 475.304 668.73 476.248 668.163 477.003 666.653 477.664 664.67 477.947 650.51 478.325 627.099 478.325 627.099 492.485 632.858 491.824 638.71 491.541 644.186 491.824 649.472 492.39 654.758 493.429 659.95 494.845 666.747 497.299 673.45 500.414 680.152 504.002 682.229 499.565 687.61 486.538 689.781 482.29 692.518 477.853 697.144 472 709.605 459.917 718.478 451.704 720.083 450.666 721.971 450.666 723.293 451.61 723.765 452.554 724.048 454.064 723.859 458.595 723.198 463.032 723.482 463.126 743.494 421.59 738.208 417.154 733.582 412.528 729.523 407.714 726.03 402.71 723.01 397.518 720.838 392.987 719.139 388.267 717.723 383.264 716.779 378.166 716.118 372.691 715.93 367.027 716.118 361.646 716.779 356.36 717.818 351.168 719.328 346.165 721.122 341.162 723.387 336.442 726.03 331.816 729.051 327.474 732.45 323.32 727.73 319.733 723.482 315.957 719.706 311.992 716.402 307.744 710.738 298.682 706.112 288.864 701.486 274.893 699.504 267.53 691.952 233.451 688.931 222.029 686.666 214.477 683.928 207.114 680.718 199.75 678.075 194.464 675.054 189.366 671.656 184.269 667.786 179.36 663.726 174.734 659.101 170.203 653.909 165.861 648.056 161.613 642.109 157.931 635.312 154.344 627.76 150.946 619.358 147.736 610.957 145.093 601.611 142.638 591.133 140.467 579.522 138.579 568.288 137.258 555.733 136.219 541.856 135.558 520.522 135.464 505.795 136.786 497.96 137.918 480.685 141.411 471.811 143.771 462.749 146.603 453.498 149.907 444.435 153.589 435.373 157.837 426.405 162.557 419.891 166.522 413.566 170.675 407.525 175.206 401.578 180.115 396.008 185.307 390.722 190.782 385.813 196.73 381.187 202.96 377.034 209.474 373.352 216.459 370.142 223.822 367.405 231.658 365.611 237.982 364.195 244.59 363.157 251.576 362.496 258.939 362.118 287.165 360.702 304.062 357.87 319.638 355.982 327.002 351.64 340.69 348.053 349.563 344.182 357.965 340.029 365.894 330.872 381.187 318.411 399.218 295.472 431.219 285.938 446.04 277.253 461.805 273.382 470.206 269.89 478.986 265.453 492.768 262.054 507.966 259.883 523.92 259.128 541.95 259.411 550.069 260.922 565.834 263.282 579.994 268.096 599.912Z" style="fill: var(--s-bg)" transform="matrix(1.00088 0 0 1 4931 2640)"/>
        <path d="M813.539 521.371 819.675 512.309 825.056 503.624 833.835 487.01 840.066 472.944 843.936 462.749 845.541 457.651 835.723 451.421 827.133 444.152 821.846 438.771 816.938 433.107 812.312 426.971 806.648 429.52 800.795 431.408 794.848 432.824 788.901 433.674 782.859 433.957 776.723 433.768 770.682 432.918 764.734 431.597 758.882 429.709 746.421 454.536 736.792 475.587 740.851 475.965 742.55 476.626 744.155 477.947 745.099 479.08 746.798 482.856 747.27 485.122 747.837 492.013 747.176 497.205 744.722 506.645 742.267 513.536 739.246 520.899 734.904 530.15 742.55 536.286 749.819 542.8 756.71 549.502 766.717 560.17 776.251 571.214 790.6 551.202 800.134 538.458 811.651 524.486 813.539 521.371Z" style="fill: var(--s-bg)" transform="matrix(1.00088 0 0 1 4931 2640)"/>
        <path d="M863.666 366.65 870.557 357.304 863.099 354.189 863.666 366.65Z" style="fill: var(--s-bg)" transform="matrix(1.00088 0 0 1 4931 2640)"/>
        <path d="M849.128 367.31 848.845 372.786 848.184 378.261 847.051 383.642 845.541 388.834 843.653 394.026 841.293 399.029 844.502 403.843 847.051 408.941 849.128 414.133 850.733 419.514 851.96 425.178 852.715 430.936 854.886 421.118 856.114 413.661 858.285 395.442 859.04 384.869 859.229 372.88 859.04 362.213 858.474 352.49 846.39 348.619 847.901 354.755 848.75 360.986 849.128 367.31Z" style="fill: var(--s-bg)" transform="matrix(1.00088 0 0 1 4931 2640)"/>
        <path d="M893.496 371.275 889.814 373.918 885.85 376.09 881.885 377.978 877.731 379.394 873.483 380.243 869.141 380.621 863.666 380.149 863.194 391.288 862.155 402.427 860.834 413.378 858.946 424.328 856.586 435.184 853.848 445.946 850.638 456.613 847.051 467.091 842.992 477.381 838.555 487.576 833.646 497.582 828.266 507.4 845.918 491.918 864.421 477.57 883.867 464.448 904.069 452.648 906.334 462.843 908.222 473.133 910.771 492.957 912.093 510.326 912.565 523.637 912.47 544.122 913.414 542.422 916.058 535.248 920.022 519.578 922.382 508.155 923.987 497.677 924.554 488.426 922.571 488.237 919.267 486.915 917.096 485.216 915.114 483.045 913.414 480.59 912.187 477.947 911.338 475.21 911.054 472.566 911.243 470.962 912.093 468.979 913.037 468.035 915.491 467.374 917.474 467.658 919.267 468.507 920.872 469.64 925.026 474.077 924.365 458.218 922.005 458.595 918.134 457.651 915.869 456.424 912.565 454.158 909.355 451.232 906.429 447.834 904.163 444.435 902.275 439.715 902.181 436.6 903.219 434.618 905.107 433.485 908.128 433.579 909.827 434.051 914.075 436.411 922.099 443.397 919.078 431.597 916.341 422.251 916.152 420.08 916.341 419.608 917.285 419.23 918.795 419.608 919.267 420.08 923.421 432.069 928.613 423.478 933.144 418.192 929.274 411.112 925.214 404.504 920.872 398.557 916.246 392.798 906.995 382.886 899.915 376.467 893.496 371.275ZM917.474 415.926 917.19 417.059 916.53 418.003 915.68 418.57 914.547 418.853 913.037 418.192 911.054 415.549 908.034 407.997 906.334 400.917 906.429 397.518 907.09 396.197 907.656 395.819 908.694 395.63 910.394 396.386 912.282 399.406 913.414 402.238 917.474 415.926Z" style="fill: var(--s-bg)" transform="matrix(1.00088 0 0 1 4931 2640)"/>
        <path d="M926.064 442.642 928.707 461.333 933.994 454.253 936.165 451.798 941.168 447.456 943.717 445.946 939.28 432.352 935.126 437.45 932.861 439.621 928.99 441.981 926.064 442.642Z" style="fill: var(--s-bg)" transform="matrix(1.00088 0 0 1 4931 2640)"/>
        <path d="M929.085 474.832 928.707 489.842 934.277 484.178 939.091 480.968 940.885 480.213 944.472 479.552 946.171 479.741 947.682 480.402 947.587 468.035 946.738 460.672 944.283 464.07 941.451 467.374 938.43 470.301 935.315 472.566 933.05 473.794 929.085 474.832Z" style="fill: var(--s-bg)" transform="matrix(1.00088 0 0 1 4931 2640)"/>
        <path d="M911.432 561.397 916.907 554.883 922.005 548.181 926.725 541.195 931.162 534.021 935.126 526.658 938.619 519.106 941.64 511.27 944.094 503.246 945.982 495.128 943.622 497.96 941.074 500.509 938.242 502.774 935.504 504.474 931.917 505.795 930.406 505.89 926.819 505.418 924.365 517.312 920.306 533.643 917.002 543.555 912.942 553.467 911.81 557.998 911.432 561.397Z" style="fill: var(--s-bg)" transform="matrix(1.00088 0 0 1 4931 2640)"/>
        <path d="M945.038 610.579 933.805 611.24 929.085 612.09 922.194 613.694 916.53 615.582 911.432 617.754 901.52 622.757 905.957 602.366 907.562 593.776 910.488 572.253 911.904 556.866 912.942 553.184 917.096 543.555 920.306 533.454 924.365 517.123 926.819 505.418 930.406 505.89 932.2 505.701 936.542 503.907 939.752 501.642 942.962 498.715 945.794 495.411 947.965 491.918 949.192 489.37 949.853 487.01 950.042 484.838 949.853 483.234 949.381 482.006 948.531 480.968 946.077 479.741 942.678 479.741 939.091 480.968 936.637 482.478 934.277 484.178 928.707 489.842 929.085 474.832 932.861 473.888 934.938 472.85 937.864 470.773 940.79 468.13 943.528 465.109 948.059 458.406 949.664 455.197 950.891 451.138 950.891 448.117 950.514 447.173 949.192 445.662 947.21 445.19 944.094 445.851 940.035 448.306 937.675 450.382 933.522 454.819 928.707 461.333 926.064 442.642 929.274 441.886 933.522 439.054 935.976 436.6 940.318 430.747 943.434 424.422 944.283 421.402 944.566 418.758 944.378 417.059 943.15 414.982 942.301 414.51 940.602 414.133 937.298 415.077 935.126 416.493 932.766 418.475 929.84 421.874 926.914 425.933 923.421 432.069 919.267 420.08 918.134 419.325 917.285 419.23 916.341 419.608 916.058 420.552 916.341 422.251 919.078 431.597 922.099 443.397 914.075 436.411 909.827 434.051 908.128 433.579 905.107 433.485 903.219 434.618 902.181 436.6 902.275 439.715 903.03 441.981 904.163 444.435 906.429 447.834 909.355 451.232 912.565 454.158 915.869 456.424 918.134 457.651 922.005 458.595 924.365 458.218 925.026 474.077 920.872 469.64 919.267 468.507 917.474 467.658 915.491 467.374 913.037 468.035 912.093 468.979 911.243 470.962 911.054 472.566 911.338 475.21 912.187 477.947 913.414 480.59 915.114 483.045 917.096 485.216 919.267 486.915 922.571 488.237 924.554 488.426 924.648 489.747 923.987 497.677 922.382 508.155 920.022 519.578 916.058 535.248 913.414 542.422 912.47 544.122 912.565 523.637 912.093 510.326 910.771 492.957 908.222 473.133 906.334 462.843 904.069 452.648 893.874 458.406 883.867 464.448 864.421 477.57 855.075 484.555 845.918 491.918 828.266 507.4 833.646 497.582 838.555 487.576 842.992 477.381 847.051 467.091 850.638 456.613 853.848 445.946 856.586 435.184 858.946 424.328 860.834 413.378 862.155 402.427 863.194 391.288 863.666 380.149 869.141 380.621 873.389 380.243 877.637 379.394 881.696 378.072 885.661 376.278 889.437 374.107 896.706 368.726 903.125 362.59 907.373 357.587 910.866 352.678 913.886 347.77 915.963 343.616 917.002 340.69 917.757 336.725 917.474 335.686 916.907 335.214 915.586 334.931 909.544 335.686 905.579 336.536 896.045 339.557 890.853 341.822 885.189 344.938 877.92 350.13 874.333 353.339 870.934 356.926 863.666 366.65 863.194 355.51 862.155 344.466 860.739 333.421 857.058 314.541 852.715 298.682 861.306 293.395 869.235 287.07 873.2 283.106 877.165 278.48 879.43 275.176 881.507 271.683 883.206 267.813 884.528 263.942 885.378 259.694 885.661 255.258 885.472 251.954 884.906 248.838 882.923 243.458 880.941 240.154 878.486 237.227 875.56 234.584 872.256 232.413 868.669 230.525 864.704 229.109 860.55 228.07 856.208 227.41 851.677 227.221 841.859 227.976 832.325 230.147 826.189 232.318 820.43 234.962 814.955 238.077 809.763 241.664 805.138 245.44 800.89 249.594 797.114 254.125 793.998 258.75 791.544 263.376 790.034 267.152 788.901 270.834 788.334 274.515 788.051 278.102 788.24 281.406 789.656 287.354 790.883 289.997 792.866 293.206 795.414 296.133 798.341 298.682 801.645 300.853 805.326 302.646 809.386 304.157 813.539 305.101 817.976 305.762 822.696 305.95 828.077 305.762 832.797 305.006 837.328 304.062 848.467 300.664 852.338 313.974 854.32 322.942 856.114 332.854 857.718 345.126 859.04 362.779 859.229 372.88 859.04 384.869 858.285 395.442 856.114 413.661 854.886 421.118 852.715 430.936 851.96 425.178 850.733 419.514 849.128 414.133 847.051 408.941 844.502 403.843 841.293 399.029 843.653 394.026 845.541 388.834 847.051 383.642 848.184 378.261 848.845 372.786 849.128 367.31 848.845 362.024 848.278 356.832 847.24 351.734 845.824 346.826 844.03 341.917 841.954 337.291 839.499 332.854 836.667 328.606 833.552 324.547 830.154 320.771 826.472 317.278 822.413 313.974 818.259 311.048 813.728 308.499 809.102 306.234 804.099 304.251 799.096 302.741 793.81 301.702 788.334 301.042 782.576 300.758 777.101 300.947 771.909 301.608 766.717 302.646 761.808 304.062 756.899 305.856 752.274 308.027 747.742 310.482 743.494 313.314 739.435 316.523 735.659 319.922 732.166 323.603 728.957 327.568 726.03 331.816 723.482 336.253 721.31 340.878 719.422 345.787 717.912 350.79 716.874 355.982 716.213 361.458 715.93 367.027 716.118 372.691 716.779 378.166 717.723 383.264 719.139 388.267 720.838 392.987 723.01 397.518 726.03 402.71 729.523 407.714 733.582 412.528 738.208 417.154 743.494 421.59 723.482 463.126 723.198 463.032 723.859 458.595 724.048 454.064 723.765 452.554 723.293 451.61 721.971 450.666 720.083 450.666 718.478 451.704 709.605 459.917 697.144 472 692.518 477.853 689.781 482.29 687.61 486.538 682.229 499.565 680.152 504.002 673.45 500.414 666.747 497.299 659.95 494.845 654.758 493.429 649.472 492.39 644.186 491.824 638.71 491.541 632.858 491.824 627.099 492.485 627.099 478.325 650.51 478.325 664.67 477.947 666.653 477.664 668.163 477.003 668.73 476.248 669.107 473.888 669.107 351.262 668.918 344.182 668.163 336.63 666.936 328.606 665.237 320.677 663.066 312.464 660.234 304.062 656.93 295.85 653.059 287.731 648.622 279.613 640.976 268.096 636.634 262.526 632.008 257.146 627.005 252.142 621.718 247.422 615.96 242.891 609.918 238.738 603.594 235.056 596.891 231.658 589.717 228.731 582.07 226.277 576.029 224.672 569.61 223.35 562.907 222.406 555.733 221.84 548.275 221.651 541.006 221.84 533.926 222.501 527.035 223.539 520.427 224.861 514.008 226.654 505.984 229.298 498.432 232.507 491.163 236.189 484.272 240.342 477.57 244.968 471.245 249.877 465.392 255.258 459.822 260.922 454.63 266.963 449.816 273.194 445.379 279.707 441.414 286.504 437.827 293.49 434.712 300.57 432.069 307.838 429.898 315.202 428.104 322.659 426.877 330.211 426.122 337.669 425.838 345.221 429.142 485.027 429.426 485.971 430.464 487.482 431.597 489.842 433.39 490.314 497.488 487.765 497.677 490.974 497.394 495.317 496.733 499.47 494.562 506.928 491.824 512.214 490.786 513.442 489.464 514.197 472.944 509.666 465.675 508.061 450.571 505.795 436.694 505.134 430.936 505.229 418.192 506.645 411.773 507.966 405.259 509.666 398.651 511.931 392.138 514.669 385.907 518.067 379.771 521.938 375.523 525.242 371.37 528.923 367.499 533.077 363.818 537.608 360.608 542.422 357.682 547.614 355.133 553.467 352.773 559.792 351.074 566.211 349.846 573.291 348.997 581.032 348.714 589.528 348.902 596.986 349.469 603.027 352.206 619.642 345.976 615.11 340.878 611.995 335.026 608.974 327.285 605.765 315.768 602.083 308.877 600.478 301.891 599.346 294.15 598.59 285.749 598.307 280.934 598.402 271.117 599.44 261.866 601.234 257.995 602.272 254.502 603.594 252.142 604.915 250.821 605.954 250.066 606.898 249.877 607.842 252.898 617.942 259.128 633.141 263.848 642.77 271.589 656.269 276.498 663.915 281.69 671.278 287.542 678.925 294.245 686.949 301.23 694.595 308.971 702.336 317.656 710.077 331.438 721.027 339.179 726.408 348.242 732.072 348.902 733.016 341.539 733.394 334.365 734.243 327.379 735.565 320.488 737.358 307.555 741.795 295.661 747.176 283.011 754.256 271.683 762.091 268.285 764.923 265.547 767.472 265.075 768.322 267.624 770.87 275.648 776.062 281.595 779.083 289.808 782.576 295.566 784.653 310.482 788.901 318.6 790.694 327.851 792.299 338.424 793.715 348.997 794.659 360.797 795.32 374.107 795.603 386.946 795.32 398.085 794.659 407.714 793.621 417.437 792.205 432.446 788.995 444.813 785.03 455.386 780.499 462.843 776.346 474.926 783.898 482.29 787.957 497.016 795.131 510.704 800.418 517.878 802.683 525.525 804.666 533.738 806.365 541.95 807.592 550.635 808.347 559.886 808.63 567.91 808.442 575.368 807.781 582.448 806.837 588.962 805.421 595.098 803.816 601.328 801.645 607.181 799.19 612.656 796.358 617.848 793.243 622.851 789.845 628.704 785.03 634.274 779.838 639.56 774.08 644.563 767.85 649.094 761.336 653.531 754.35 657.685 746.798 661.838 738.774 666.747 727.918 671.562 716.307 676.282 703.752 682.795 684.589 702.997 619.925 710.266 597.08 718.384 573.197 718.762 571.498 718.101 570.365 709.51 567.627 715.269 561.302 719.611 555.922 723.293 550.352 732.638 534.493 740.19 540.723 747.365 547.237 754.256 553.939 764.074 564.512 773.419 575.462 764.829 591.227 756.71 607.747 752.462 617.659 747.931 629.27 742.456 646.074 739.907 655.514 737.642 664.954 735.754 675.054 734.054 685.722 732.827 696.483 732.072 707.717 731.789 719.611 732.45 736.509 734.621 756.144 736.414 766.622 738.586 776.534 740.568 784.464 742.834 791.638 746.138 799.285 747.554 800.701 753.406 799.19 765.773 794.754 766.622 796.075 767.472 796.83 769.077 797.302 776.44 799.19 783.898 800.418 791.355 801.267 798.907 801.456 807.875 801.173 816.56 800.229 824.867 798.813 832.986 796.83 840.915 794.376 848.656 791.355 856.114 787.957 863.288 784.181 870.274 779.933 877.07 775.307 883.584 770.398 889.814 765.112 897.838 757.654 905.39 749.819 912.47 741.512 919.173 732.922 925.403 724.142 931.162 715.174 936.637 705.923 941.451 696.766 945.888 687.704 953.44 669.485 959.198 652.21 962.88 636.634 964.107 628.987 964.862 622.379 965.051 616.526 964.768 614.638 964.107 613.694 962.597 612.656 960.426 611.901 956.65 611.146 945.038 610.579ZM947.21 448.966 945.982 453.875 944.755 456.518 942.49 460.106 939.846 463.504 937.014 466.43 934.371 468.602 931.067 470.49 929.746 470.678 930.218 468.224 932.2 463.315 934.371 459.728 936.92 456.518 939.846 453.592 944.378 450.099 947.21 448.966ZM928.424 499.282 929.557 496.45 932.2 491.824 934.654 488.992 937.014 486.915 939.469 485.216 943.528 483.517 945.51 483.517 945.982 484.083 946.171 485.027 945.416 488.52 944.472 490.502 942.49 493.334 940.13 496.072 937.486 498.526 932.955 501.358 930.029 502.114 929.274 501.925 928.802 501.547 928.424 499.282ZM940.413 417.814 940.696 419.136 940.035 422.534 937.486 427.915 933.05 434.051 929.085 437.544 926.536 438.582 926.253 437.166 926.914 434.429 929.274 429.142 931.067 426.122 933.616 423.006 937.77 419.419 940.413 417.814ZM921.438 454.63 918.984 453.875 917.19 452.837 912.093 448.4 909.638 445.662 906.712 441.226 905.957 438.394 906.146 437.072 911.338 439.338 913.603 440.848 917.568 444.624 920.683 449.155 921.816 451.704 922.666 454.347 921.438 454.63ZM923.704 484.461 920.4 482.95 917.568 480.024 915.68 476.248 914.83 473.038 915.114 471.15 916.624 471.717 919.456 473.699 921.25 475.776 922.571 478.136 923.515 480.59 923.798 482.95 923.704 484.461ZM907.75 339.934 908.034 340.501 866.781 370.426 866.498 370.048 871.123 362.685 877.07 356.077 881.602 352.206 886.416 348.808 891.514 345.787 896.894 343.333 902.37 341.35 907.75 339.934ZM848.562 286.882 854.32 283.389 857.813 280.934 861.211 278.102 866.875 272.155 870.368 266.491 871.69 263.376 872.445 260.072 872.728 256.579 872.539 253.747 871.784 251.01 870.462 248.366 867.536 244.874 865.554 243.269 860.55 240.814 857.53 239.965 854.037 239.493 849.789 239.21 845.541 239.493 841.198 240.059 832.325 242.608 823.829 246.573 815.994 251.67 812.595 254.597 809.48 257.806 806.931 261.11 804.76 264.509 802.589 269.984 801.834 275.554 802.117 278.763 802.966 281.595 804.382 284.333 807.592 287.826 812.123 290.563 817.504 292.262 820.808 292.734 824.584 292.923 829.115 292.734 836.95 291.224 844.408 288.77 847.24 296.605 839.405 299.626 831.192 301.419 822.79 302.08 817.221 301.797 812.595 301.042 808.63 299.909 804.76 298.21 801.645 296.322 799.002 294.245 796.736 291.79 794.942 289.242 793.621 286.504 792.582 283.672 792.016 280.84 791.922 278.008 792.11 274.515 792.771 271.117 793.81 267.718 795.226 264.226 797.68 259.883 800.701 255.635 804.288 251.482 808.347 247.706 812.784 244.213 817.598 240.909 822.696 238.077 827.982 235.717 833.552 233.734 839.31 232.318 844.974 231.374 850.733 231.091 858.096 231.658 865.365 233.546 868.669 234.867 871.784 236.661 874.616 238.738 876.976 241.286 879.053 244.118 880.186 246.478 881.602 251.954 881.79 255.163 881.602 258.656 880.941 262.149 878.392 268.851 874.71 275.27 871.218 279.613 867.442 283.672 863.382 287.354 859.323 290.374 855.17 292.923 851.394 294.717 848.562 286.882ZM848.278 436.6 847.523 447.834 846.768 450.477 824.206 418.57 819.958 413 817.693 410.923 816.371 411.49 815.805 412.717 817.41 415.643 840.915 449.061 835.534 445.662 832.419 443.114 827.982 438.866 823.357 433.674 818.92 428.104 814.672 422.157 810.707 415.926 807.214 409.79 804.194 403.56 800.701 393.931 799.568 387.512 802.022 390.344 803.91 391.949 804.949 391.854 805.515 391.571 805.987 390.438 805.043 388.456 800.606 383.453 799.285 381.376 805.232 382.226 809.386 383.17 813.822 384.586 818.92 386.568 825.717 390.344 829.21 392.798 832.514 395.63 835.629 398.84 838.65 402.616 841.293 406.77 843.558 411.49 845.541 416.965 847.523 425.744 848.278 436.6ZM734.715 367.405 735.47 359.003 737.642 350.979 739.246 347.109 743.306 340.029 748.686 333.61 755.011 328.323 758.693 325.963 762.469 323.981 770.304 321.149 778.517 319.733 786.73 319.733 790.789 320.299 798.813 322.376 806.554 325.963 813.445 330.872 819.298 336.725 821.846 340.029 825.906 347.203 828.832 354.944 830.248 363.157 830.437 367.499 830.248 372.125 829.587 376.656 828.36 381.187 826.661 385.53 817.41 381.093 808.347 378.166 801.456 377.034 797.963 376.845 795.509 377.128 794.47 377.6 793.904 378.355 793.715 379.394 793.998 383.358 795.603 391.76 799.474 403.182 802.494 410.64 796.17 413.283 789.562 414.794 786.163 415.171 777.856 415.077 773.419 414.416 769.266 413.566 761.714 410.64 758.221 408.752 751.99 404.41 748.403 400.917 745.194 397.141 742.456 393.176 740.096 388.928 738.114 384.68 736.698 380.338 735.565 375.901 734.904 371.558 734.715 367.405ZM746.326 423.478 755.483 428.387 732.638 475.21 731.034 476.248 727.163 477.475 719.611 479.174 746.326 423.478ZM502.114 489.275 501.925 460.578 501.075 427.443 499.659 406.864 498.526 400.162 497.677 398.84 490.88 400.445 488.614 392.893 487.293 391.194 486.349 391.005 484.744 391.666 484.083 393.365 486.254 400.539 483.234 400.35 481.629 399.878 478.797 397.802 475.682 393.459 474.266 390.533 472.472 385.907 469.829 375.24 467.752 359.947 467.091 349.563 467.28 344.938 468.413 336.064 469.546 332.288 471.717 327.946 472.944 326.435 474.454 325.208 476.154 324.453 478.136 324.17 482.667 324.925 486.066 326.813 487.859 328.606 489.464 330.778 490.691 333.326 492.107 337.386 493.24 341.822 495.222 354.094 495.883 356.832 496.638 358.342 497.394 359.098 498.243 359.381 499.942 359.192 501.642 358.531 503.435 357.398 505.984 355.227 508.438 352.395 512.97 345.976 520.994 332.194 523.165 329.645 525.43 327.662 528.074 326.058 530.906 324.736 534.21 323.792 541.384 322.754 553.656 322.376 558.942 321.526 564.04 320.299 569.043 318.506 573.669 316.429 582.448 311.426 590.189 305.762 599.912 296.888 603.877 292.64 610.957 284.238 619.17 289.242 622.946 292.168 626.627 295.472 631.158 300.286 635.406 305.478 639.277 311.142 642.864 317.09 646.074 323.32 649 329.834 653.909 343.333 655.891 350.13 658.912 363.912 659.95 370.709 661.083 383.83 661.178 397.141 660.8 402.144 659.856 407.336 658.346 410.451 657.307 411.49 655.986 412.339 653.72 413.189 642.486 415.171 631.158 418.192 628.893 419.136 627.099 420.174 625.211 422.346 624.456 424.045 623.701 426.971 623.04 431.786 622.379 445.474 622.285 498.432 622.568 505.795 624.834 513.63 624.55 514.48 623.418 515.802 620.774 517.973 618.037 519.672 608.786 523.92 603.405 525.714 596.797 527.507 588.867 529.206 580.938 530.339 571.781 531.094 561.302 531.472 551.485 531.189 542.894 530.528 535.248 529.584 520.994 526.846 515.424 525.242 507.589 522.504 502.019 520.144 497.394 517.595 495.034 515.896 498.621 508.91 500.037 505.229 501.642 497.582 502.114 489.275ZM257.429 607.558 261.394 606.048 269.701 604.066 280.557 602.933 293.301 603.122 300.57 603.782 307.366 604.915 320.394 608.125 331.627 612.373 340.784 617.093 348.147 622.19 353.15 627.099 354.566 629.176 359.947 643.902 363.912 653.154 369.954 665.614 379.866 683.645 386.474 694.406 393.459 704.885 401.578 716.307 410.923 728.579 410.64 728.862 257.429 607.558ZM439.054 758.221 274.798 765.584 278.858 762.469 287.259 756.994 299.154 750.386 306.045 747.176 313.691 744.155 324.453 740.757 335.781 738.397 341.634 737.736 347.486 737.547 351.262 737.736 358.059 738.774 367.782 742.078 383.453 748.309 389.778 750.386 396.386 752.179 404.221 753.595 415.738 754.728 422.629 754.917 434.995 754.445 435.939 754.822 439.149 757.843ZM713.664 573.952 708.661 584.242 693.934 581.598 692.99 581.693 692.141 582.165 691.574 583.014 691.48 583.958 691.669 584.808 692.33 585.469 693.462 586.035 706.49 588.678 701.486 606.803 688.648 649.189 680.152 674.96 670.712 701.392 665.614 714.419 655.325 738.68 650.227 749.253 643.147 762.091 639.938 767.189 636.35 772.003 633.046 775.779 630.026 778.517 619.264 787.013 613.978 790.506 605.765 794.942 600.762 797.114 595.664 798.907 589.811 800.606 583.203 802.117 576.595 803.155 569.043 803.816 560.547 804.099 552.429 803.816 544.405 803.155 536.475 802.117 528.734 800.701 521.182 798.813 511.837 795.981 502.68 792.677 493.712 788.806 484.933 784.464 476.437 779.65 468.224 774.458 460.2 768.888 452.365 762.941 444.813 756.616 430.464 743.117 423.667 736.037 414.982 726.125 406.958 716.118 399.312 705.829 392.232 695.162 385.718 684.589 379.771 674.11 374.202 663.349 369.482 652.965 365.328 642.958 361.552 632.669 358.626 623.134 356.36 614.166 354 600.856 353.245 589.717 353.434 583.014 354 576.784 356.077 565.456 357.587 560.358 360.042 553.939 362.874 548.086 366.083 542.8 369.67 537.891 373.73 533.266 378.166 529.112 382.886 525.43 387.89 522.032 393.27 519.2 398.84 516.651 404.693 514.48 410.829 512.781 416.965 511.459 423.384 510.515 429.898 509.854 436.694 509.666 448.022 510.326 460.861 511.837 473.133 514.291 478.702 515.707 485.688 518.445 488.426 520.616 495.506 528.923 503.435 536.192 509.194 540.44 515.235 544.216 521.654 547.52 528.168 550.352 534.87 552.618 541.762 554.411 548.747 555.733 555.638 556.488 562.624 556.771 570.082 556.488 576.878 555.638 583.109 554.317 589.245 552.523 594.814 550.446 599.912 548.086 609.163 542.422 613.034 539.496 619.736 533.171 622.379 530.245 626.627 524.203 628.043 521.654 629.742 517.029 629.742 513.536 627.76 506.739 627.194 503.718 627.099 497.582 630.781 496.733 634.557 496.261 638.333 496.166 647.018 496.733 651.738 497.488 661.083 500.037 665.614 501.83 670.146 504.002 674.299 506.456 678.075 509.288 667.88 534.115 664.765 543.178 664.01 547.614 664.293 550.258 664.954 552.523 666.558 556.299 657.118 553.75 655.514 553.939 654.003 554.789 649.755 562.246 647.206 565.928 639.371 575.557 626.533 589.056 618.037 597.174 598.307 615.11 591.982 621.341 582.731 631.536 574.896 641.826 554.978 622.474 543.083 611.995 526.563 599.062 515.613 591.322 488.992 573.763 473.038 564.04 452.176 551.674 450.666 551.296 449.722 551.485 448.494 552.712 448.4 553.656 449.816 555.072 493.146 581.221 515.99 596.514 527.885 605.198 543.461 617.754 551.107 624.456 558.47 631.347 565.55 638.522 572.158 645.885 565.834 656.93 563.474 661.933 561.397 667.314 559.603 673.166 558.754 677.131 558.282 681.285 558.187 689.309 559.414 696.672 560.453 700.354 563.379 706.962 565.267 709.888 567.25 712.437 569.515 714.419 571.403 715.646 575.462 717.157 577.634 717.346 579.994 717.062 582.448 716.307 585.091 714.891 589.811 711.021 592.171 708.283 594.154 705.357 595.947 702.147 597.458 698.56 598.59 694.878 599.346 691.008 599.534 686.854 599.251 682.134 598.496 677.698 597.269 673.544 593.87 665.803 588.206 657.402 578.106 645.413 586.035 634.651 596.514 623.229 603.216 616.81 624.362 597.93 631.819 590.755 641.637 580.371 646.829 574.33 659.856 578.106 661.461 578.011 662.216 577.539 662.877 575.934 662.499 574.707 661.933 574.235 649.755 570.365 656.458 559.32 690.158 567.627 713.664 573.952ZM595.003 686.666 594.72 690.819 594.059 694.501 593.021 697.71 589.906 703.658 588.206 705.923 584.336 709.699 580.466 712.059 577.634 712.72 575.462 712.437 573.386 711.587 571.498 710.171 568.194 706.112 566.778 703.563 564.984 699.315 563.757 694.784 562.907 690.064 562.624 685.722 562.907 681.096 563.568 676.754 564.606 672.411 566.683 666.181 569.326 660.328 575.274 649.661 582.259 657.024 585.091 660.611 589.906 668.258 592.926 675.149 594.059 678.925 594.72 682.701 595.003 686.666ZM704.79 566.494 675.149 558.659 671.939 557.243 669.39 554.6 668.446 552.901 667.502 549.691 667.408 547.898 667.597 545.726 670.146 537.325 673.261 529.395 692.141 485.216 696.2 478.986 703.846 470.018 711.87 462.182 718.101 456.613 720.65 454.442 720.65 458.029 720.178 460.766 718.573 467.186 716.59 473.794 713.57 481.346 712.909 482.195 701.298 492.202 697.144 496.45 692.046 502.68 689.97 506.078 689.97 507.117 690.725 507.778 692.141 507.589 693.368 506.362 700.92 497.11 703.658 494.278 713.192 486.066 714.419 485.31 722.632 482.006 729.618 479.93 733.582 479.269 737.642 479.08 740.662 479.646 742.55 481.157 743.117 482.478 743.683 484.555 743.872 487.482 732.638 491.824 728.296 494.184 711.87 504.379 711.304 505.512 711.682 506.456 712.72 506.834 713.758 506.645 732.072 495.978 740.379 492.296 744.438 491.163 744.25 494.562 743.117 498.998 741.795 501.453 739.341 504.851 736.131 508.25 731.128 512.592 725.275 517.218 714.702 524.581 714.514 525.902 715.269 526.658 715.835 526.846 719.328 525.336 722.254 523.637 729.995 518.067 740.474 508.722 737.17 517.406 734.621 522.976 727.635 536.475 723.576 543.461 719.139 550.258 714.514 556.394 711.21 560.358 704.79 566.494ZM734.904 530.15 739.246 520.899 742.267 513.536 744.722 506.645 747.176 497.205 747.837 492.013 747.27 485.122 746.798 482.856 745.099 479.08 744.155 477.947 742.55 476.626 740.851 475.965 736.792 475.587 746.421 454.536 758.882 429.709 764.734 431.597 770.682 432.918 776.723 433.768 782.859 433.957 788.901 433.674 794.848 432.824 800.795 431.408 806.648 429.52 812.312 426.971 816.938 433.107 821.846 438.771 827.133 444.152 835.723 451.421 845.541 457.651 843.936 462.749 840.066 472.944 833.835 487.01 829.776 494.939 825.056 503.624 819.675 512.309 811.651 524.486 800.134 538.458 790.6 551.202 776.251 571.214 766.717 560.17 756.71 549.502 749.819 542.8 742.55 536.286 734.904 530.15ZM749.064 795.698 745.949 786.258 741.606 769.549 739.624 759.165 737.83 746.893 736.509 729.334 736.226 719.517 736.603 706.678 737.453 694.312 738.774 682.418 740.662 670.995 743.117 659.478 745.854 648.434 749.064 637.766 752.651 627.477 756.71 617.187 761.053 607.37 765.584 597.93 770.493 588.867 775.685 579.899 786.541 563.19 792.205 555.355 800.134 545.066 808.158 535.531 816.182 526.752 832.514 510.232 840.349 503.058 856.019 489.842 873.766 476.626 882.64 470.584 896.989 461.805 897.272 462.088 798.53 685.438 758.882 774.269 749.064 795.698ZM876.504 689.781 876.126 689.403 882.262 675.904 890.664 656.174 895.478 643.242 899.066 631.347 900.198 629.27 905.107 625.778 912.848 621.813 918.606 619.453 924.082 617.754 929.368 616.526 938.242 615.205 945.227 614.827 951.93 615.205 958.443 616.054 876.504 689.781Z" style="fill: var(--s-deco)" transform="matrix(1.00088 0 0 1 4931 2640)"/>
        <path d="M737.17 630.026 736.981 643.147 736.414 653.72 735.376 663.632 734.149 672.883 732.45 682.323 728.39 699.315 726.125 706.867 722.538 716.968 718.856 725.936 715.08 733.96 710.926 741.795 706.867 748.592 698.843 760.203 691.763 768.794 686.666 773.986 683.173 777.195 679.208 779.933 677.698 779.178 677.037 777.667 688.082 765.867 693.085 759.92 698.938 751.99 702.714 746.326 710.738 732.261 714.419 724.614 718.101 716.024 721.594 706.301 725.936 691.291 729.523 673.733 730.75 664.859 731.789 655.325 732.355 645.13 732.544 634.179 732.45 625.872 731.222 609.446 731.411 608.219 732.355 607.086 733.488 606.709 734.432 606.898 735.093 607.464 735.565 608.408 736.037 610.485 736.603 617.565 737.17 630.026Z" style="fill: var(--s-deco)" transform="matrix(1.00088 0 0 1 4931 2640)"/>
        <path d="M917.474 415.926 917.19 417.059 916.53 418.003 915.68 418.57 914.547 418.853 913.037 418.192 911.054 415.549 908.034 407.997 906.334 400.917 906.429 397.518 907.09 396.197 907.656 395.819 908.694 395.63 910.394 396.386 912.282 399.406 913.414 402.238 917.474 415.926Z" style="fill: var(--s-deco)" transform="matrix(1.00088 0 0 1 4931 2640)"/>
        <path d="M481.723 371.842 484.744 386.379 484.083 387.984 482.478 388.645 481.44 388.362 480.59 387.606 479.93 385.53 477.098 371.653 477.57 369.482 479.269 367.877 481.44 367.405 484.744 367.782 479.552 339.368 479.741 338.235 480.496 337.102 481.723 336.725 482.667 336.914 483.328 337.48 483.8 338.707 489.936 370.898 489.842 371.936 489.37 372.691 488.614 373.258 487.67 373.352 481.723 371.842Z" style="fill: var(--s-deco)" transform="matrix(1.00088 0 0 1 4931 2640)"/>
        <path d="M561.208 403.277 565.173 403.654 568.666 404.504 571.875 405.826 576.69 408.752 578.2 410.168 579.333 411.584 579.616 412.434 578.955 413.944 577.445 414.605 576.595 414.322 570.176 410.074 567.816 409.035 565.267 408.28 562.246 407.997 556.866 408.563 555.166 407.997 554.506 406.298 554.694 405.542 555.638 404.41 558.376 403.56 561.208 403.277Z" style="fill: var(--s-deco)" transform="matrix(1.00088 0 0 1 4931 2640)"/>
        <path d="M609.069 341.35 607.936 341.162 606.803 340.406 606.426 339.085 607.086 337.669 613.883 333.798 620.397 330.683 621.246 330.494 622.096 330.683 623.134 331.816 623.134 333.515 622.568 334.365 609.069 341.35Z" style="fill: var(--s-deco)" transform="matrix(1.00088 0 0 1 4931 2640)"/>
        <path d="M576.123 340.218 575.84 341.35 575.368 341.822 573.48 342.389 560.642 337.669 558.754 336.253 558.565 335.403 558.754 334.648 559.792 333.421 561.68 333.326 574.046 337.763 575.746 338.896 576.123 340.218Z" style="fill: var(--s-deco)" transform="matrix(1.00088 0 0 1 4931 2640)"/>
        <path d="M619.453 380.526 618.32 380.243 617.187 379.394 616.904 378.261 617.093 377.317 617.659 376.562 622.568 374.39 627.477 372.408 628.326 372.597 629.459 373.824 629.648 374.674 629.365 375.712 628.704 376.467 619.453 380.526Z" style="fill: var(--s-deco)" transform="matrix(1.00088 0 0 1 4931 2640)"/>
        <path d="M550.918 382.603 545.066 381.47 542.234 380.526 541.667 379.866 541.667 377.978 542.8 376.75 543.744 376.562 550.352 377.789 553.09 378.922 553.562 379.582 553.467 381.376 552.523 382.32 550.918 382.603Z" style="fill: var(--s-deco)" transform="matrix(1.00088 0 0 1 4931 2640)"/>
        <path d="M570.27 362.496 570.365 358.342 570.931 356.926 572.536 356.266 573.574 356.454 574.235 357.021 574.613 358.059 574.896 359.853 574.896 367.027 574.235 368.254 572.725 368.821 571.781 368.632 570.742 367.594 570.365 365.422 570.365 362.496Z" style="fill: var(--s-deco)" transform="matrix(1.00088 0 0 1 4931 2640)"/>
        <path d="M613.034 362.118 612.939 365.8 612.373 367.122 610.768 367.688 609.918 367.594 608.691 366.366 608.408 357.965 609.069 356.266 610.674 355.699 611.618 355.888 612.656 357.021 613.034 358.814 613.034 362.118Z" style="fill: var(--s-deco)" transform="matrix(1.00088 0 0 1 4931 2640)"/>
        <path d="M753.406 349.374 750.952 348.997 749.347 348.43 748.214 347.486 747.554 346.448 747.176 344.466 747.365 342.955 748.97 339.557 750.858 337.008 753.501 334.365 759.826 329.739 763.318 327.851 766.811 326.435 770.21 325.491 773.23 325.208 775.685 325.491 777.195 326.058 778.422 327.002 779.083 328.04 779.461 330.022 779.178 331.816 778.422 333.704 777.006 335.97 773.23 340.029 770.682 342.106 766.622 344.843 762.28 347.109 759.165 348.242 753.406 349.374ZM775.213 330.211 774.835 329.645 772.947 329.55 768.605 330.4 763.224 332.854 760.392 334.554 755.389 338.424 753.595 340.501 752.557 341.917 751.613 344.56 753.595 345.032 757.277 344.277 763.318 341.728 766.622 339.746 769.926 337.197 771.909 335.12 775.213 330.211Z" style="fill: var(--s-deco)" transform="matrix(1.00088 0 0 1 4931 2640)"/>
    </g>
</svg>