<svg viewBox="0 0 229 267" xmlns="http://www.w3.org/2000/svg" xmlns:xlink="http://www.w3.org/1999/xlink"
    xml:space="preserve" overflow="hidden">
    <style>
        :root {
            --s-bg: #FFA891;
            --s-deco: #EB9079;
        }
    </style>
    <defs>
        <clipPath id="clip0">
            <rect x="5741" y="3099" width="229" height="267" />
        </clipPath>
        <clipPath id="clip1">
            <rect x="5820" y="3103" width="136" height="81" />
        </clipPath>
        <clipPath id="clip2">
            <path d="M5817.36 3125.92 5908.19 3073.35 5959.08 3161.59 5868.25 3214.17Z" />
        </clipPath>
        <clipPath id="clip3">
            <path
                d="M5848.07 3108.15 5825.88 3120.99C5822.86 3122.74 5821.01 3125.98 5821.02 3129.48 5821.03 3132.97 5822.91 3136.19 5825.94 3137.92L5898.9 3179.46C5908.06 3184.67 5919.28 3184.63 5928.39 3179.35L5950.58 3166.51C5953.61 3164.76 5955.46 3161.52 5955.45 3158.02 5955.44 3154.53 5953.56 3151.3 5950.52 3149.58L5877.56 3108.04C5868.41 3102.83 5857.19 3102.87 5848.07 3108.15Z" />
        </clipPath>
        <clipPath id="clip4">
            <rect x="5868" y="3252" width="102" height="106" />
        </clipPath>
        <clipPath id="clip5">
            <path
                d="M5969.74 3288.04 5969.74 3262.36C5969.74 3258.87 5967.88 3255.64 5964.85 3253.9 5961.82 3252.16 5958.09 3252.18 5955.08 3253.95L5882.69 3296.46C5873.6 3301.79 5868.02 3311.55 5868.02 3322.09L5868.02 3347.78C5868.02 3351.27 5869.89 3354.5 5872.92 3356.24 5875.95 3357.98 5879.67 3357.96 5882.69 3356.19L5955.08 3313.68C5964.16 3308.35 5969.74 3298.59 5969.74 3288.04Z" />
        </clipPath>
        <clipPath id="clip6">
            <rect x="5740" y="3177" width="53" height="136" />
        </clipPath>
        <clipPath id="clip7">
            <path d="M5786.79 3315.75 5695.95 3263.2 5746.81 3174.94 5837.65 3227.49Z" />
        </clipPath>
        <clipPath id="clip8">
            <path
                d="M5756.07 3297.97 5778.27 3310.82C5781.29 3312.56 5785.02 3312.56 5788.03 3310.8 5791.05 3309.04 5792.9 3305.8 5792.87 3302.3L5792.32 3218.23C5792.26 3207.68 5786.62 3197.96 5777.5 3192.69L5755.3 3179.85C5752.28 3178.1 5748.55 3178.11 5745.53 3179.87 5742.52 3181.62 5740.67 3184.87 5740.69 3188.36L5741.24 3272.44C5741.31 3282.98 5746.96 3292.7 5756.07 3297.97Z" />
        </clipPath>
        <clipPath id="clip9">
            <rect x="5819" y="3173" width="107" height="119" />
        </clipPath>
        <clipPath id="clip10">
            <path
                d="M5919.86 3240.83 5833.83 3290.08C5830.78 3291.83 5827.03 3291.82 5823.99 3290.05 5820.95 3288.28 5819.08 3285.02 5819.08 3281.5L5819.08 3183.27C5819.08 3179.74 5820.95 3176.49 5823.99 3174.72 5827.03 3172.95 5830.78 3172.94 5833.83 3174.69L5919.86 3223.94C5922.89 3225.67 5924.75 3228.89 5924.75 3232.38 5924.75 3235.87 5922.89 3239.1 5919.86 3240.83Z" />
        </clipPath>
    </defs>
    <g clip-path="url(#clip0)" transform="translate(-5741 -3099)">
        <g clip-path="url(#clip1)">
            <g clip-path="url(#clip2)">
                <g clip-path="url(#clip3)">
                    <path d="M121.656 59.6509 224.867 0.0177289 275.753 88.0917 172.542 147.725Z"
                        style="fill:var(--s-bg);" transform="matrix(1 0 0 1.0019 5689.51 3069.75)" />
                </g>
            </g>
        </g>
        <g clip-path="url(#clip4)">
            <g clip-path="url(#clip5)">
                <path d="M280.228 175.254 280.228 294.457 178.509 294.457 178.509 175.254Z" style="fill:var(--s-bg);"
                    transform="matrix(1 0 0 1.0019 5689.51 3069.75)" />
            </g>
        </g>
        <g clip-path="url(#clip6)">
            <g clip-path="url(#clip7)">
                <g clip-path="url(#clip8)">
                    <path d="M103.473 249.106 0.241114 189.505 51.102 101.413 154.331 161.014Z"
                        style="fill:var(--s-bg);" transform="matrix(1 0 0 1.0019 5689.51 3069.75)" />
                </g>
            </g>
        </g>
        <g clip-path="url(#clip9)">
            <g clip-path="url(#clip10)">
                <path d="M245.103 96.3073 245.103 228.541 129.567 228.541 129.567 96.3073Z" style="fill:var(--s-deco);"
                    transform="matrix(1 0 0 1.0019 5689.51 3069.75)" />
            </g>
        </g>
    </g>
</svg>