<svg viewBox="0 0 334 273"
    xmlns="http://www.w3.org/2000/svg"
    xmlns:xlink="http://www.w3.org/1999/xlink" xml:space="preserve" overflow="hidden">
    <style>
        :root {
            --s-deco: #D66447;
            --s-bg: #FDEFEF;
        }
    </style>
    <defs>
        <clipPath id="clip0">
            <path d="M5730.37 3106.1 6019.69 3165.81 5975.8 3378.46 5686.48 3318.75 5730.37 3106.1Z" fill-rule="evenodd" clip-rule="evenodd"/>
        </clipPath>
        <clipPath id="clip1">
            <path d="M5730.37 3106.1 6019.69 3165.81 5975.8 3378.46 5686.48 3318.75Z" fill-rule="evenodd" clip-rule="evenodd"/>
        </clipPath>
        <clipPath id="clip2">
            <path d="M5730.37 3106.1 6019.69 3165.81 5975.8 3378.46 5686.48 3318.75Z" fill-rule="evenodd" clip-rule="evenodd"/>
        </clipPath>
    </defs>
    <g transform="translate(-5686 -3106)">
        <g clip-path="url(#clip0)">
            <g clip-path="url(#clip1)">
                <g clip-path="url(#clip2)">
                    <path d="M168.596 173.773C174.13 196.217 160.427 218.901 137.99 224.443 115.542 229.981 92.8538 216.279 87.3158 193.834 81.774 171.389 95.4764 148.705 117.925 143.163 140.37 137.625 163.05 151.328 168.596 173.773" style="fill: var(--s-deco)" transform="matrix(0.980654 0.202406 -0.202138 0.979357 5692.08 2997.57)"/>
                    <path d="M163.639 194.313C163.639 205.609 154.475 214.777 143.175 214.777 131.874 214.777 122.714 205.609 122.714 194.313 122.714 183.009 131.874 173.845 143.175 173.845 154.475 173.845 163.639 183.009 163.639 194.313" style="fill: var(--s-bg)" transform="matrix(0.980654 0.202406 -0.202138 0.979357 5692.08 2997.57)"/>
                    <path d="M76.3614 179.292C76.3614 179.292 76.8707 178.436 77.7639 176.939 78.661 175.441 79.9723 173.32 81.6523 170.834 82.4961 169.599 83.4578 168.292 84.4536 166.889 85.4913 165.521 86.5784 164.065 87.7909 162.632 89.0262 161.214 90.2691 159.717 91.6869 158.333 92.371 157.618 93.0704 156.908 93.8268 156.246 94.5756 155.585 95.2902 154.87 96.077 154.243 96.8676 153.616 97.662 152.993 98.4526 152.373 99.2812 151.807 100.106 151.24 100.927 150.682 101.733 150.1 102.626 149.667 103.458 149.169 104.295 148.663 105.161 148.253 106.02 147.854 107.7 146.983 109.437 146.402 111.053 145.79 112.706 145.299 114.249 144.764 115.724 144.456 116.454 144.281 117.153 144.114 117.822 143.954 118.495 143.84 119.134 143.73 119.738 143.627 120.935 143.414 121.981 143.247 122.851 143.156 124.588 142.962 125.58 142.852 125.58 142.852 125.58 142.852 124.603 143.053 122.897 143.41 122.038 143.562 121.008 143.806 119.837 144.106 119.248 144.25 118.624 144.406 117.967 144.57 117.317 144.76 116.633 144.961 115.918 145.166 114.477 145.539 112.98 146.136 111.38 146.694 109.821 147.363 108.156 148.017 106.53 148.891 105.705 149.302 104.865 149.72 104.067 150.233 103.265 150.742 102.406 151.176 101.619 151.742 100.824 152.297 100.026 152.852 99.2204 153.411 98.4564 154.023 97.6848 154.638 96.917 155.25 96.1416 155.859 95.4384 156.554 94.701 157.197 93.9522 157.835 93.2643 158.531 92.5839 159.226 91.1889 160.579 89.9118 162.005 88.6651 163.381 87.4526 164.783 86.2971 166.163 85.2062 167.471 84.161 168.816 83.1461 170.074 82.2491 171.268 81.3749 172.473 80.55 173.56 79.8165 174.525 79.0905 175.498 78.4861 176.372 77.9768 177.076 76.9467 178.49 76.3614 179.292 76.3614 179.292" style="fill: var(--s-deco)" transform="matrix(0.980654 0.202406 -0.202138 0.979357 5692.08 2997.57)"/>
                    <path d="M59.3787 156.718C59.3787 156.718 59.4737 156.25 59.6561 155.372 59.7512 154.935 59.869 154.395 60.0058 153.76 60.1275 153.122 60.3175 152.4 60.557 151.594 60.7888 150.784 61.0473 149.883 61.3286 148.907 61.6631 147.949 62.0241 146.911 62.4156 145.805 62.8033 144.695 63.3203 143.555 63.8144 142.327 64.3047 141.099 64.9775 139.883 65.5971 138.564 66.2508 137.264 67.011 135.957 67.7674 134.577 68.1893 133.912 68.615 133.235 69.0483 132.551 69.4778 131.863 69.9226 131.167 70.4167 130.495 72.2982 127.724 74.5293 124.976 76.9961 122.262 79.5162 119.609 82.2871 117.005 85.3089 114.614 88.3496 112.242 91.6185 110.068 95.0203 108.122 98.4564 106.245 102.018 104.591 105.633 103.242 109.251 101.911 112.919 100.919 116.5 100.155 120.099 99.4751 123.611 99.0037 126.956 98.8593 127.788 98.7871 128.613 98.7757 129.427 98.7643 130.236 98.7529 131.034 98.7453 131.821 98.7377 133.391 98.8137 134.908 98.8517 136.356 98.9733 137.8 99.133 139.191 99.1976 140.499 99.4218 141.803 99.6461 143.042 99.8019 144.193 100.049 145.341 100.3 146.417 100.517 147.405 100.748 148.382 101.022 149.279 101.273 150.089 101.501 150.898 101.714 151.617 101.934 152.229 102.166 152.841 102.383 153.365 102.565 153.791 102.713 154.631 103.018 155.083 103.177 155.083 103.177 155.083 103.177 154.608 103.105 153.722 102.964 152.833 102.839 151.556 102.569 149.902 102.387 149.078 102.284 148.169 102.174 147.177 102.052 146.185 101.965 145.109 101.877 143.962 101.782 141.67 101.634 139.085 101.562 136.276 101.588 134.87 101.607 133.41 101.718 131.905 101.786 130.4 101.957 128.841 102.006 127.256 102.25 126.466 102.356 125.66 102.466 124.85 102.577 124.037 102.702 123.223 102.877 122.399 103.025 120.745 103.299 119.088 103.732 117.389 104.101 114.025 104.983 110.604 106.062 107.206 107.377 103.831 108.746 100.479 110.308 97.2439 112.102 94.0245 113.919 90.9381 115.956 88.0037 118.115 85.1036 120.316 82.3973 122.676 79.8811 125.078 77.4447 127.553 75.1147 129.997 73.1382 132.517 72.1043 133.741 71.2491 135.044 70.314 136.234 69.4664 137.481 68.6074 138.671 67.8586 139.857 66.3686 142.24 65.0725 144.478 64.0006 146.512 63.4799 147.542 62.9972 148.5 62.5487 149.389 62.1344 150.298 61.7581 151.13 61.4122 151.883 60.7052 153.384 60.2605 154.631 59.907 155.452 59.5611 156.277 59.3787 156.718 59.3787 156.718" style="fill: var(--s-deco)" transform="matrix(0.980654 0.202406 -0.202138 0.979357 5692.08 2997.57)"/>
                    <path d="M354.364 156.718C354.364 156.718 354.178 156.277 353.836 155.452 353.478 154.631 353.037 153.38 352.327 151.883 351.985 151.13 351.604 150.298 351.194 149.389 350.745 148.5 350.259 147.538 349.742 146.512 348.666 144.478 347.374 142.24 345.884 139.857 345.131 138.671 344.276 137.481 343.429 136.234 342.494 135.044 341.638 133.741 340.601 132.517 338.632 129.993 336.298 127.553 333.862 125.078 331.345 122.672 328.639 120.316 325.739 118.115 322.808 115.952 319.718 113.919 316.499 112.102 313.264 110.308 309.912 108.746 306.536 107.377 303.142 106.058 299.717 104.983 296.354 104.101 294.658 103.728 292.997 103.299 291.344 103.025 290.519 102.877 289.706 102.702 288.896 102.577 288.083 102.466 287.281 102.356 286.486 102.25 284.901 102.006 283.343 101.957 281.842 101.786 280.336 101.718 278.873 101.607 277.47 101.588 274.662 101.562 272.077 101.634 269.781 101.782 268.633 101.877 267.561 101.965 266.565 102.052 265.577 102.174 264.665 102.284 263.844 102.387 262.187 102.569 260.91 102.839 260.024 102.964 259.135 103.105 258.663 103.177 258.663 103.177 258.663 103.177 259.112 103.018 259.956 102.713 260.381 102.565 260.902 102.383 261.518 102.166 262.13 101.934 262.844 101.714 263.654 101.501 264.464 101.273 265.364 101.022 266.337 100.748 267.326 100.517 268.401 100.3 269.553 100.049 270.701 99.8019 271.944 99.6461 273.248 99.4218 274.551 99.1976 275.942 99.133 277.387 98.9733 278.839 98.8517 280.352 98.8137 281.921 98.7377 282.708 98.7453 283.506 98.7529 284.32 98.7643 285.129 98.7757 285.958 98.7871 286.79 98.8593 290.135 99.0037 293.644 99.4751 297.247 100.155 300.827 100.919 304.495 101.911 308.114 103.242 311.725 104.591 315.286 106.241 318.726 108.122 322.128 110.068 325.393 112.242 328.434 114.614 331.459 117.005 334.226 119.605 336.75 122.262 339.213 124.972 341.444 127.724 343.326 130.491 343.82 131.167 344.265 131.863 344.698 132.551 345.128 133.235 345.557 133.912 345.975 134.577 346.732 135.957 347.492 137.264 348.146 138.564 348.765 139.879 349.438 141.096 349.928 142.327 350.422 143.555 350.935 144.695 351.327 145.805 351.715 146.911 352.08 147.949 352.414 148.907 352.695 149.883 352.95 150.784 353.182 151.594 353.425 152.4 353.611 153.122 353.733 153.76 353.87 154.395 353.988 154.935 354.083 155.372 354.265 156.25 354.364 156.718 354.364 156.718" style="fill: var(--s-deco)" transform="matrix(0.980654 0.202406 -0.202138 0.979357 5692.08 2997.57)"/>
                    <path d="M252.202 175.255C247.416 197.874 261.871 220.087 284.491 224.873 307.11 229.658 329.319 215.203 334.109 192.583 338.894 169.964 324.439 147.751 301.816 142.969 279.2 138.18 256.987 152.639 252.202 175.255" style="fill: var(--s-deco)" transform="matrix(0.980654 0.202406 -0.202138 0.979357 5692.08 2997.57)"/>
                    <path d="M258.663 194.313C258.663 205.609 267.824 214.777 279.124 214.777 290.428 214.777 299.588 205.609 299.588 194.313 299.588 183.009 290.428 173.845 279.124 173.845 267.824 173.845 258.663 183.009 258.663 194.313" style="fill: var(--s-bg)" transform="matrix(0.980654 0.202406 -0.202138 0.979357 5692.08 2997.57)"/>
                    <path d="M344.569 177.684C344.569 177.684 343.953 176.901 342.881 175.525 342.345 174.837 341.714 173.985 340.954 173.035 340.19 172.096 339.327 171.032 338.411 169.858 337.476 168.698 336.423 167.474 335.329 166.167 334.196 164.893 332.999 163.556 331.737 162.195 330.448 160.861 329.118 159.477 327.681 158.173 326.978 157.501 326.263 156.828 325.499 156.216 324.735 155.596 324.009 154.927 323.215 154.346 322.428 153.757 321.638 153.167 320.851 152.586 320.03 152.054 319.213 151.522 318.399 150.997 317.597 150.454 316.719 150.051 315.902 149.572 315.085 149.085 314.233 148.694 313.393 148.314 311.74 147.493 310.052 146.896 308.475 146.276 306.856 145.775 305.339 145.227 303.887 144.904 303.169 144.722 302.477 144.543 301.823 144.376 301.158 144.235 300.527 144.102 299.938 143.977 298.752 143.714 297.718 143.505 296.855 143.38 295.137 143.084 294.157 142.912 294.157 142.912 294.157 142.912 295.149 142.988 296.89 143.129 297.764 143.186 298.817 143.319 300.022 143.494 300.626 143.578 301.268 143.665 301.945 143.756 302.618 143.893 303.321 144.034 304.058 144.186 305.541 144.444 307.099 144.927 308.771 145.364 310.406 145.923 312.162 146.444 313.872 147.257 314.739 147.629 315.625 148.01 316.472 148.488 317.324 148.956 318.232 149.359 319.057 149.91 319.897 150.442 320.741 150.982 321.588 151.522 322.398 152.115 323.207 152.711 324.021 153.308 324.83 153.912 325.568 154.6 326.339 155.235 327.119 155.87 327.841 156.558 328.548 157.25 330.011 158.584 331.303 160.04 332.584 161.416 333.843 162.807 334.979 164.228 336.066 165.559 337.104 166.927 338.111 168.2 338.997 169.409 340.76 171.838 342.14 173.913 343.086 175.377 344.029 176.844 344.569 177.684 344.569 177.684" style="fill: var(--s-deco)" transform="matrix(0.980654 0.202406 -0.202138 0.979357 5692.08 2997.57)"/>
                    <path d="M179.827 248.617C197.281 266.075 225.507 266.106 242.939 248.682 242.939 248.682 246.204 311.964 211.315 313.504 211.315 313.504 178.429 315.438 179.827 248.617" style="fill: var(--s-deco)" transform="matrix(0.980654 0.202406 -0.202138 0.979357 5692.08 2997.57)"/>
                    <path d="M107.229 186.969C106.564 192.01 108.419 199.783 95.7197 199.783 108.335 199.783 106.317 208.088 107.229 212.596 107.229 199.292 113.143 200.82 118.738 199.783 106.693 199.646 107.818 191.884 107.229 186.969" style="fill: var(--s-bg)" transform="matrix(0.980654 0.202406 -0.202138 0.979357 5692.08 2997.57)"/>
                    <path d="M98.54 199.783C106.359 200.74 106.754 205.792 107.081 209.939 107.096 210.144 107.111 210.349 107.126 210.554 107.643 200.999 111.855 200.497 116.306 199.969 116.583 199.935 116.853 199.904 117.127 199.866 107.974 199.182 107.575 193.503 107.24 188.889L107.233 188.752C107.218 188.969 107.21 189.189 107.195 189.413 106.974 193.655 106.701 198.844 98.54 199.783ZM107.229 212.751 107.081 212.63C106.917 211.828 106.849 210.923 106.773 209.962 106.419 205.495 105.99 199.935 95.7197 199.935L95.7235 199.817 95.7197 199.627 95.7235 199.627C106.355 199.627 106.64 194.191 106.883 189.394 106.936 188.532 106.978 187.714 107.073 186.947L107.229 186.814 107.385 186.947C107.457 187.555 107.503 188.193 107.548 188.87 107.89 193.606 108.308 199.509 118.738 199.627L118.894 199.767 118.769 199.931C117.959 200.083 117.134 200.182 116.344 200.273 111.539 200.843 107.385 201.337 107.385 212.596L107.244 212.751 107.229 212.751" style="fill: var(--s-deco)" transform="matrix(0.980654 0.202406 -0.202138 0.979357 5692.08 2997.57)"/>
                    <path d="M120.255 148.96C119.385 155.577 121.813 165.783 105.146 165.783 121.707 165.783 119.054 176.684 120.255 182.606 120.255 165.133 128.02 167.144 135.364 165.783 119.552 165.6 121.027 155.41 120.255 148.96" style="fill: var(--s-bg)" transform="matrix(0.980654 0.202406 -0.202138 0.979357 5692.08 2997.57)"/>
                    <path d="M108.852 165.783C119.111 167.037 119.628 173.674 120.057 179.113 120.08 179.387 120.095 179.66 120.118 179.926 120.791 167.375 126.329 166.722 132.175 166.026 132.528 165.981 132.886 165.943 133.25 165.893 121.232 164.992 120.703 157.539 120.266 151.48L120.259 151.301C120.24 151.586 120.228 151.875 120.209 152.168 119.92 157.74 119.559 164.548 108.852 165.783ZM120.255 182.807C120.16 182.807 120.072 182.743 120.061 182.644 119.844 181.599 119.749 180.405 119.654 179.147 119.194 173.282 118.624 165.981 105.146 165.981L105.15 165.821 105.146 165.578 105.15 165.578C119.099 165.578 119.476 158.443 119.803 152.145 119.867 151.009 119.92 149.933 120.05 148.933 120.069 148.827 120.152 148.755 120.255 148.755 120.361 148.755 120.445 148.827 120.456 148.933 120.551 149.728 120.608 150.564 120.677 151.453 121.118 157.679 121.673 165.426 135.364 165.578 135.47 165.578 135.558 165.657 135.565 165.764 135.58 165.867 135.508 165.962 135.402 165.977 134.338 166.174 133.262 166.307 132.22 166.429 125.915 167.178 120.456 167.828 120.456 182.606 120.456 182.709 120.38 182.796 120.274 182.807L120.255 182.807" style="fill: var(--s-deco)" transform="matrix(0.980654 0.202406 -0.202138 0.979357 5692.08 2997.57)"/>
                    <path d="M316.126 187.171C316.795 192.211 314.94 199.984 327.639 199.984 315.028 199.984 317.046 208.289 316.126 212.797 316.126 199.497 310.216 201.025 304.625 199.984 316.666 199.847 315.545 192.086 316.126 187.171" style="fill: var(--s-bg)" transform="matrix(0.980654 0.202406 -0.202138 0.979357 5692.08 2997.57)"/>
                    <path d="M316.16 189.615C316.153 189.394 316.138 189.17 316.126 188.957L316.115 189.094C315.788 193.705 315.381 199.383 306.232 200.071 306.506 200.106 306.78 200.136 307.053 200.174 311.504 200.699 315.72 201.2 316.233 210.756 316.248 210.554 316.263 210.349 316.282 210.14 316.609 205.997 317 200.942 324.811 199.988 316.662 199.045 316.381 193.861 316.16 189.615ZM316.111 212.957 315.974 212.797C315.974 201.542 311.82 201.048 307.015 200.478 306.217 200.387 305.404 200.288 304.594 200.136L304.469 199.973 304.617 199.832C315.047 199.714 315.469 193.815 315.811 189.071 315.856 188.399 315.906 187.756 315.978 187.152L316.126 187.015 316.282 187.152C316.381 187.916 316.427 188.737 316.468 189.6 316.719 194.393 317.008 199.832 327.639 199.832L327.639 200.136C317.369 200.136 316.936 205.701 316.586 210.163 316.514 211.125 316.442 212.033 316.274 212.831L316.126 212.957 316.111 212.957" style="fill: var(--s-deco)" transform="matrix(0.980654 0.202406 -0.202138 0.979357 5692.08 2997.57)"/>
                    <path d="M303.104 149.161C303.978 155.783 301.55 165.984 318.213 165.984 301.656 165.984 304.305 176.889 303.104 182.807 303.104 165.338 295.339 167.349 287.999 165.984 303.811 165.802 302.336 155.619 303.104 149.161" style="fill: var(--s-bg)" transform="matrix(0.980654 0.202406 -0.202138 0.979357 5692.08 2997.57)"/>
                    <path d="M303.15 152.369C303.131 152.077 303.119 151.788 303.104 151.506L303.097 151.681C302.656 157.74 302.127 165.194 290.109 166.095 290.47 166.144 290.831 166.186 291.188 166.228 297.03 166.923 302.564 167.581 303.237 180.128 303.26 179.862 303.283 179.592 303.306 179.314 303.731 173.875 304.248 167.239 314.511 165.988 303.804 164.753 303.442 157.945 303.15 152.369ZM303.085 183.013C302.983 183.001 302.899 182.914 302.899 182.807 302.899 168.029 297.448 167.379 291.135 166.631 290.101 166.509 289.018 166.38 287.961 166.178 287.855 166.163 287.786 166.072 287.794 165.965 287.801 165.859 287.885 165.783 287.992 165.783 301.683 165.627 302.238 157.881 302.686 151.658 302.751 150.769 302.808 149.929 302.906 149.138 302.914 149.036 303.002 148.96 303.104 148.96 303.203 148.96 303.294 149.036 303.306 149.138 303.439 150.142 303.496 151.214 303.553 152.346 303.883 158.645 304.256 165.783 318.213 165.783L318.213 166.186C304.739 166.186 304.165 173.487 303.708 179.349 303.61 180.61 303.518 181.804 303.302 182.853 303.287 182.944 303.199 183.013 303.104 183.013L303.085 183.013" style="fill: var(--s-deco)" transform="matrix(0.980654 0.202406 -0.202138 0.979357 5692.08 2997.57)"/>
                </g>
            </g>
        </g>
    </g>
</svg>