<svg viewBox="0 0 222 223"
    xmlns="http://www.w3.org/2000/svg"
    xmlns:xlink="http://www.w3.org/1999/xlink" xml:space="preserve" overflow="hidden">
    <style>
    :root {
        --s-deco: #D66447;
        --s-bg: #EB9079;
    }
    </style>
    <defs>
        <clipPath id="clip0">
            <rect x="4940" y="3121" width="222" height="223"/>
        </clipPath>
    </defs>
    <g clip-path="url(#clip0)" transform="translate(-4940 -3121)">
        <path d="M35.7113 44.7493 35.7113 150.869 93.3919 150.869C118.392 150.869 138.66 130.6 138.66 105.6L138.66 44.7493 35.7113 44.7493Z" style="fill: var(--s-bg)" transform="matrix(1 0 0 1.0045 4904.16 3076.16)"/>
        <path d="M257.766 266.807 257.766 161.386 201.103 161.386C176.103 161.386 155.834 181.651 155.834 206.654L155.834 266.804 257.766 266.804Z" style="fill: var(--s-bg)" transform="matrix(1 0 0 1.0045 4904.16 3076.16)"/>
        <path d="M232.675 45.9944 180.925 45.9944C167.068 45.9944 155.831 57.228 155.831 71.0856L155.831 122.835C155.831 136.693 167.065 147.926 180.925 147.926L232.675 147.926C246.532 147.926 257.766 136.693 257.766 122.835L257.766 71.0856C257.766 57.228 246.532 45.9944 232.675 45.9944Z" style="fill: var(--s-bg)" transform="matrix(1 0 0 1.0045 4904.16 3076.16)"/>
        <path d="M112.555 164.872 60.8055 164.872C46.948 164.872 35.7113 176.106 35.7113 189.963L35.7113 241.713C35.7113 255.57 46.945 266.807 60.8055 266.807L112.555 266.807C126.412 266.807 137.649 255.573 137.649 241.713L137.649 189.963C137.646 176.106 126.412 164.872 112.555 164.872Z" style="fill: var(--s-deco)" transform="matrix(1 0 0 1.0045 4904.16 3076.16)"/>
    </g>
</svg>