<svg viewBox="450 300 2450 2000"
    xmlns="http://www.w3.org/2000/svg"
    xmlns:xlink="http://www.w3.org/1999/xlink" xml:space="preserve" overflow="hidden">
    <style>
    :root {
        --s-deco: #561504;
        --s-bg: #FFBEAD;
    }
    </style>
    <g transform="translate(-181 -1130)">
        <path d="M2623.83 2140.2 2621.22 2155.86 2618.09 2167.08 2613.92 2178.57 2607.65 2192.14 2602.43 2201.01 2588.34 2219.54 2579.72 2227.9 2569.55 2236.25 2557.54 2244.34 2537.7 2254.26 2525.96 2258.69 2499.86 2265.22 2485.24 2267.57 2451.05 2269.4 2427.3 2268.61 2403.55 2266.52 2379.28 2262.61 2331.25 2251.91 2284.01 2237.03 2238.86 2219.54 2206.23 2205.19 2146.73 2175.7 2121.41 2161.86 2037.63 2112.01 1997.69 2118.28 1966.11 2121.41 1938.97 2121.15 1922.53 2119.32 1907.13 2116.45 1891.99 2112.27 1863.8 2102.36 1843.7 2093.22 1782.37 2062.42 1760.45 2052.5 1736.17 2043.37 1719.47 2038.15 1681.1 2029.28 1661 2026.4 1638.3 2024.58 1612.98 2024.06 1589.23 2024.58 1568.09 2026.4 1549.04 2029.28 1530.24 2032.93 1498.92 2042.33 1484.31 2047.81 1460.3 2059.29 1444.64 2068.43 1412.01 2089.83 1420.88 2170.22 1455.86 2151.68 1472.3 2144.9 1493.7 2138.9 1524.5 2133.68 1520.85 2053.81 1521.37 2050.68 1523.46 2047.02 1528.42 2045.46 1531.29 2045.98 1533.64 2047.55 1535.2 2049.63 1536.51 2061.64 1540.16 2138.11 1539.9 2142.03 1537.81 2146.46 1534.42 2148.03 1502.58 2152.73 1475.43 2160.82 1459.51 2167.34 1407.83 2191.36 1385.39 2200.49 1361.38 2209.37 1310.22 2224.24 1257.24 2235.47 1228.53 2240.42 1157.54 2249.56 1075.84 2256.35 976.401 2261.04 856.863 2262.61 799.965 2262.09 755.856 2260.26 715.662 2257.39 685.908 2254 659.547 2249.56 641.538 2245.12 622.485 2238.34 611.523 2231.81 606.303 2226.07 604.215 2221.89 603.954 2218.76 601.083 2128.98 602.649 2115.93 608.652 2102.62 613.611 2096.09 624.312 2086.17 637.884 2078.08 601.605 2047.28 600.3 2044.15 597.429 2031.62 591.948 1994.3 578.376 1876.33 564.282 1737.22 549.144 1573.05 553.581 1571.22 564.804 1569.13 607.608 1563.39 753.768 1548.51 1133.52 1514.58 1338.15 1497.36 1341.54 1497.88 1344.41 1499.45 1345.98 1501.53 1346.76 1504.4 1346.24 1511.45 1353.29 1575.92 1365.81 1683.97 1371.03 1719.73 1379.65 1706.68 1388.78 1695.2 1407.57 1676.4 1421.41 1665.7 1435.24 1656.57 1449.86 1649 1464.73 1642.47 1495.79 1632.82 1519.28 1627.34 1590.27 1616.37 1613.24 1612.2 1634.9 1606.98 1649 1602.54 1662.31 1597.06 1675.1 1590.8 1692.85 1578.79 1709.03 1563.39 1703.81 1562.35 1602.02 1563.91 1599.41 1563.39 1597.06 1561.56 1595.23 1557.91 1591.84 1539.9 1587.4 1474.65 1579.57 1289.34 1578.79 1284.38 1577.22 1281.51 1566.78 1274.2 1564.17 1271.07 1561.04 1265.07 1558.95 1257.76 1556.87 1245.49 1555.04 1211.04 1555.56 1194.86 1558.43 1166.41 1566.26 1130.91 1577.48 1094.37 1575.66 1086.02 1574.35 1073.75 1573.83 1049.48 1574.35 1027.04 1576.44 1005.11 1579.83 983.187 1584.53 961.263 1590.53 939.861 1597.84 918.72 1606.46 898.362 1616.37 878.265 1627.34 858.69 1639.34 840.159 1652.91 822.15 1667.27 804.924 1682.93 788.742 1699.63 773.865 1717.38 759.771 1736.43 746.721 1752.09 737.325 1768.54 728.712 1785.5 720.882 1803.51 714.096 1822.04 708.093 1840.57 703.134 1860.15 699.219 1880.24 696.609 1901.12 694.782 1922.79 693.999 1949.93 694.782 1975.25 696.609 1998.74 699.741 2020.92 703.656 2041.54 708.615 2062.42 715.14 2082 722.448 2100.53 730.8 2117.49 739.674 2133.68 749.592 2149.34 760.815 2163.95 772.56 2177.78 785.349 2190.83 798.66 2202.84 812.754 2216.67 831.285 2229.72 850.86 2241.47 871.479 2252.17 893.403 2261.57 915.588 2270.18 938.556 2278.01 962.568 2284.79 987.363 2292.36 1020.77 2298.89 1054.96 2304.11 1090.2 2311.16 1161.71 2313.24 1197.73 2315.07 1252.02 2315.59 1305.52 2312.72 1523.98 2311.16 1533.64 2309.07 1535.99 2306.46 1537.55 2298.37 1538.33 2098.44 1538.07 2107.05 1546.43 2123.76 1555.3 2136.29 1560 2162.39 1567.04 2187.96 1572 2208.58 1574.87 2247.47 1576.18 2273.05 1578.01 2297.58 1581.14 2316.11 1584.79 2333.86 1589.23 2351.35 1594.97 2368.58 1601.76 2385.28 1609.59 2401.46 1618.98 2417.64 1629.68 2433.56 1642.21 2448.44 1655.78 2463.06 1671.18 2477.67 1688.93 2492.03 1708.77 2505.08 1729.13 2518.13 1751.83 2530.92 1777.67 2543.71 1806.64 2554.93 1835.09 2565.89 1866.93 2576.85 1902.17 2587.82 1941.32 2597.21 1979.42 2606.35 2021.45 2615.22 2067.38 2623.83 2118.02ZM2066.08 2109.92 2098.96 2131.33 2143.59 2156.9 2201.27 2186.4 2234.16 2201.27 2279.84 2219.28 2303.85 2227.64 2328.12 2235.2 2352.39 2241.47 2376.93 2246.69 2401.46 2250.86 2425.73 2253.21 2449.22 2254.26 2481.59 2252.43 2507.43 2247.73 2523.61 2243.03 2537.44 2237.55 2549.19 2231.29 2560.41 2223.98 2569.81 2216.41 2577.64 2208.58 2584.94 2199.97 2595.38 2183 2601.13 2169.95 2604.78 2158.47 2608.43 2138.9 2609.22 2127.67 2608.7 2113.84 2606.61 2089.57 2602.69 2061.64 2595.91 2024.06 2582.6 1968.2 2572.68 1934.79 2561.98 1901.65 2548.67 1865.37 2532.74 1825.7 2519.43 1795.42 2495.16 1745.05 2482.11 1722.08 2469.32 1701.98 2456.53 1684.76 2445.83 1672.23 2434.87 1661 2423.39 1650.83 2411.12 1641.69 2398.59 1633.6 2384.76 1626.29 2369.62 1619.51 2353.44 1613.5 2319.25 1604.11 2277.49 1597.06 2268.61 1635.17 2250.34 1733.56 2247.47 1744.79 2243.3 1752.62 2241.21 1754.18 2239.12 1754.7 2236.25 1754.18 2233.64 1752.35 2232.07 1750.01 2232.07 1743.48 2261.57 1595.75 2231.81 1591.84 2217.46 1591.32 2216.67 1611.94 2214.59 1627.07 2210.93 1642.21 2205.71 1657.09 2199.45 1671.44 2191.62 1685.28 2182.74 1699.11 2172.3 1712.68 2161.08 1725.21 2148.55 1737.48 2134.72 1749.22 2119.84 1760.71 2104.44 1770.89 2087.74 1780.8 2070.25 1789.94 2051.46 1798.29 2032.41 1805.6 2012.57 1812.12 1991.69 1817.87 1969.77 1822.82 1947.84 1826.48 1925.4 1829.35 1901.91 1830.92 1877.63 1831.7 1838.22 1829.87 1816.82 1827.52 1795.68 1824.39 1774.28 1819.95 1752.62 1814.47 1731.47 1807.69 1710.59 1799.6 1690.24 1790.46 1675.36 1782.37 1647.69 1764.1 1634.64 1753.92 1622.64 1742.44 1611.15 1730.43 1600.97 1717.12 1591.32 1703.03 1583.23 1688.41 1575.92 1672.23 1570.18 1655 1565.22 1636.47 1538.86 1639.6 1515.37 1643.52 1494.75 1648.22 1477 1653.7 1458.47 1660.74 1442.81 1668.05 1429.5 1675.88 1418.01 1684.23 1407.31 1693.89 1398.18 1703.55 1391.13 1713.47 1385.39 1723.38 1380.95 1734.35 1377.82 1744.79 1375.73 1755.49 1375.21 1766.19 1400.27 1989.6 1410.44 2073.12 1439.15 2054.07 1466.04 2039.45 1493.96 2027.71 1509.1 2022.75 1545.9 2014.14 1565.48 2011.27 1587.66 2009.44 1612.2 2008.66 1638.3 2009.44 1661.79 2011.27 1682.67 2014.14 1703.55 2018.05 1722.34 2022.75 1739.3 2027.97 1764.1 2037.37 1786.02 2047.02 1847.1 2077.82 1866.93 2086.96 1894.86 2097.14 1909.74 2101.05 1924.88 2103.92 1941.32 2105.75 1959.33 2106.53 1977.34 2105.49 2020.4 2100.53 1997.69 2079.39 1987.78 2068.95 1976.81 2055.9 1966.37 2041.54 1956.2 2024.84 1944.97 2000.57 1940.27 1987.25 1936.88 1973.42 1934.79 1959.07 1934.01 1943.67 1935.84 1924.88 1941.06 1908.95 1945.23 1901.65 1949.67 1895.38 1955.15 1889.9 1961.15 1885.2 1967.68 1881.29 1974.73 1878.68 1982.56 1877.11 1991.17 1876.33 2001.09 1877.11 2010.48 1878.68 2019.62 1881.55 2032.67 1887.03 2044.67 1893.82 2065.55 1909.48 2089.57 1933.49 2105.75 1924.61 2120.36 1918.09 2133.41 1913.39 2146.99 1909.74 2158.73 1907.91 2168.91 1907.39 2183 1908.69 2190.83 1910.52 2198.4 1913.39 2206.23 1917.83 2214.85 1926.44 2218.5 1932.18 2221.11 1938.45 2222.94 1946.28 2223.72 1955.93 2222.94 1965.85 2220.59 1976.81 2216.41 1989.08 2210.93 2000.83 2203.88 2012.83 2195.27 2025.62 2185.61 2037.63 2174.39 2049.37 2161.86 2060.86 2148.55 2071.56 2134.2 2081.48 2118.28 2090.61 2101.83 2098.44 2084.61 2104.97 2066.08 2109.92ZM968.049 2041.8 965.961 2016.49 945.081 2032.93 924.984 2046.76 905.67 2058.51 885.573 2068.95 866.781 2077.56 849.033 2084.35 814.581 2095.05 778.041 2101.83 746.199 2104.44 725.058 2104.44 740.457 2110.97 756.117 2116.45 780.39 2123.5 807.534 2130.54 867.042 2142.03 925.245 2149.6 955.782 2152.21 989.19 2153.77 1025.47 2154.29 1063.05 2153.77 1098.03 2151.95 1130.91 2149.34 1163.8 2145.42 1222 2136.02 1249.67 2130.02 1297.17 2117.75 1329.53 2107.58 1355.37 2098.18 1378.86 2088.52 1395.57 2080.43 1331.1 1513.8 565.587 1580.09 580.203 1740.35 599.778 1935.84 610.479 2023.27 613.872 2037.89 627.705 2050.68 640.494 2061.12 649.629 2067.38 668.421 2077.04 678.339 2080.69 689.04 2083.82 712.269 2087.74 740.457 2089.04 759.51 2088.52 778.563 2086.43 796.833 2083.04 815.103 2078.6 832.59 2073.65 865.737 2061.12 894.708 2047.02 914.544 2035.8 930.465 2025.36 944.559 2014.92 953.694 2007.09 961.524 1997.96 962.307 1995.87 961.785 1993 943.776 1939.23 934.119 1913.39 922.635 1884.94 920.808 1882.07 908.019 1888.34 903.06 1888.86 897.579 1888.07 891.837 1885.99 886.095 1882.07 880.875 1877.37 870.957 1864.32 862.866 1848.14 857.646 1829.35 855.558 1809.51 857.646 1787.33 863.649 1766.71 873.306 1747.66 885.834 1731.21 893.403 1723.91 901.755 1717.38 910.368 1711.64 920.025 1706.94 929.943 1703.03 940.383 1700.42 951.345 1698.59 963.09 1697.81 975.357 1698.85 984.231 1700.68 995.976 1704.07 1011.64 1710.86 1028.34 1721.82 1036.17 1729.13 1043.74 1738 1050.26 1747.66 1056.01 1759.14 1061.23 1772.97 1066.19 1795.16 1068.01 1823.61 1067.23 1841.09 1065.14 1857.8 1061.49 1873.2 1057.05 1888.6 1045.31 1916.26 1034.87 1935.05 1024.16 1951.76 1012.94 1966.9 986.841 1998.22 981.621 2005.26 980.316 2008.4 982.665 2027.19 983.187 2040.76 982.665 2053.55 980.577 2068.43 976.401 2080.69 974.313 2083.56 969.615 2085.65 966.744 2085.13 964.395 2083.56 962.829 2080.95 962.829 2075.21 966.483 2059.81 967.527 2052.5 968.049 2041.8ZM1580.62 1633.34 1585.05 1650.83 1590.53 1667.27 1597.32 1682.15 1605.15 1695.98 1614.02 1709.29 1623.94 1721.82 1634.9 1733.3 1646.39 1743.74 1671.97 1762.27 1699.63 1777.93 1719.21 1786.55 1739.04 1794.11 1759.4 1800.38 1780.28 1805.6 1820.74 1812.65 1841.09 1814.73 1878.16 1816.3 1921.74 1814.21 1942.88 1811.86 1983.6 1804.03 2003.44 1798.81 2040.24 1786.02 2058.25 1778.45 2091.13 1761.23 2120.62 1741.13 2133.94 1730.43 2146.2 1719.21 2157.17 1707.72 2167.61 1695.2 2176.48 1682.41 2184.05 1669.36 2190.31 1656.31 2195.53 1642.47 2199.19 1628.38 2201.27 1614.29 2202.06 1599.93 2201.54 1588.97 2150.12 1581.4 2142.29 1578.79 2110.97 1564.96 2101.57 1560 2087.74 1549.56 2083.56 1544.86 2080.69 1540.16 2078.6 1534.94 2077.82 1529.46 2066.6 1269.5 2066.08 1255.67 2066.6 1250.97 2069.47 1247.32 2076.78 1245.75 2093.22 1247.84 2109.92 1248.62 2106.53 1215.22 2106.79 1212.08 2108.36 1209.47 2110.97 1207.39 2114.1 1206.86 2117.23 1207.39 2119.58 1208.95 2120.89 1211.82 2125.58 1248.36 2139.42 1245.49 2145.16 1243.4 2150.38 1240.53 2156.12 1234.53 2158.73 1229.83 2161.86 1221.48 2164.73 1208.69 2166.82 1193.81 2168.13 1172.93 2169.43 1118.91 2168.65 1063.58 2167.61 1047.13 2163.69 1021.29 2161.08 1012.42 2154.29 999.369 2150.38 994.41 2145.42 990.495 2139.68 987.624 2132.89 985.797 2124.8 985.014 2114.1 985.536 2105.23 986.841 2098.18 988.929 2091.65 992.322 2085.91 997.281 2081.21 1003.55 2077.56 1010.59 2074.17 1019.99 2071.56 1032.26 2068.95 1052.09 2067.38 1079.5 2066.6 1109.51 2066.08 1172.41 2064.77 1176.07 2060.33 1178.68 2049.37 1178.42 2042.85 1176.59 2036.58 1173.46 2030.32 1169.28 2014.66 1154.66 2006.83 1144.49 1970.81 1092.29 1947.84 1061.75 1926.96 1039.82 1915.48 1030.17 1903.21 1021.82 1889.9 1015.03 1879.72 1010.85 1868.5 1007.98 1856.75 1006.16 1816.3 1004.59 1808.21 1002.76 1800.12 999.369 1795.16 995.976 1784.98 985.275 1775.58 969.615 1770.36 958.392 1763.84 940.122 1756.53 914.805 1728.34 930.204 1714.25 939.861 1687.1 962.046 1661.79 987.624 1649.52 1001.98 1634.64 1021.82 1620.81 1042.96 1608.28 1065.14 1592.36 1099.85 1580.62 1136.13 1576.18 1154.66 1573.05 1173.2 1571.22 1191.99 1570.44 1231.14 1572.26 1250.19 1576.18 1260.37 1579.31 1264.02 1583.49 1267.16 1595.49 1271.33 1614.55 1273.68 1689.98 1274.2 1696.5 1274.99 1699.89 1276.29 1702.5 1278.38 1704.59 1281.77 1705.9 1287.25 1725.73 1551.65 1723.64 1564.7 1718.16 1576.18 1712.68 1582.97 1706.16 1589.23 1698.33 1595.23 1680.58 1605.15 1655 1615.07 1638.82 1620.03 1580.62 1633.34ZM1397.13 2096.87 1371.03 2108.62 1326.66 2124.8 1295.87 2133.94 1262.72 2142.81 1222.79 2151.42 1164.84 2160.56 1131.7 2164.47 1098.29 2167.34 1062.53 2169.17 1023.64 2169.69 982.404 2168.91 944.82 2167.08 911.151 2163.95 877.482 2159.78 847.728 2154.82 821.106 2149.34 794.484 2143.07 751.419 2130.54 722.97 2120.36 701.046 2111.75 656.676 2092.44 651.195 2091.39 645.975 2091.92 635.535 2096.61 626.139 2104.7 619.353 2115.67 617.526 2121.93 616.743 2128.46 619.092 2211.45 620.919 2217.2 624.051 2220.59 630.315 2224.76 638.667 2228.42 653.022 2232.86 669.726 2236.51 694.26 2240.16 722.187 2243.03 760.032 2245.38 801.792 2246.95 855.819 2247.47 916.893 2246.69 975.879 2244.86 1034.34 2241.99 1089.41 2238.08 1142.92 2233.38 1191.73 2227.9 1238.45 2221.63 1278.9 2215.11 1316.48 2208.06 1346.24 2201.01 1379.65 2190.83 1390.09 2186.4 1397.92 2182.22 1402.35 2178.31 1404.7 2175.17 1405.49 2172.3 1397.13 2096.87ZM2075.73 1942.1 2063.99 1928.79 2055.11 1920.7 2044.15 1912.09 2032.15 1904.26 2019.1 1897.73 2009.96 1894.34 2000.83 1892.25 1991.43 1891.47 1983.6 1892.25 1976.29 1894.34 1969.77 1897.47 1964.03 1902.17 1959.07 1907.91 1954.89 1915.48 1952.02 1923.57 1950.19 1933.49 1949.41 1945.49 1950.19 1957.24 1952.02 1969.25 1954.89 1981.25 1963.76 2004.48 1969.25 2015.96 1978.9 2032.15 1989.34 2047.28 2000.3 2061.12 2011.27 2072.6 2022.75 2082.52 2032.41 2089.57 2039.45 2093.22 2049.37 2095.57 2060.33 2095.05 2072.08 2092.96 2084.35 2089.31 2096.09 2084.87 2120.1 2072.34 2143.07 2056.68 2153.77 2047.55 2164.21 2038.15 2181.96 2018.05 2196.05 1996.91 2201.27 1986.47 2205.19 1975.77 2207.54 1965.59 2208.32 1955.93 2207.54 1947.58 2205.45 1941.06 2202.58 1935.84 2198.4 1931.4 2193.44 1928.01 2187.96 1925.4 2178.83 1923.31 2169.69 1922.53 2159.25 1923.31 2148.29 1925.14 2127.41 1931.66 2109.92 1939.49 2099.48 1946.02 2104.44 1955.67 2104.97 1959.85 2103.4 1966.64 2098.18 1973.16 2093.74 1976.03 2089.04 1977.6 2084.09 1978.12 2079.65 1977.6 2075.21 1976.29 2071.04 1973.68 2067.38 1970.29 2064.51 1964.03 2064.25 1960.37 2064.77 1955.67 2066.34 1952.02 2068.69 1948.89 2075.73 1942.1ZM976.14 1985.69 994.41 1966.9 1012.42 1942.88 1028.6 1915.74 1035.39 1901.12 1041.13 1885.99 1046.09 1870.59 1049.74 1854.93 1052.09 1839.27 1052.87 1823.61 1051.31 1805.6 1046.09 1780.8 1041.13 1766.97 1036.95 1758.1 1025.47 1740.87 1018.42 1733.3 1009.81 1726.78 999.891 1720.77 992.061 1717.64 983.448 1715.29 973.53 1713.47 962.046 1712.94 952.65 1713.47 935.163 1717.38 926.811 1720.77 916.371 1726.25 906.714 1733.3 897.84 1741.39 890.01 1750.53 883.746 1760.71 878.265 1771.67 874.35 1783.15 872.001 1795.16 871.218 1807.69 871.479 1817.08 874.611 1834.05 878.265 1845.79 882.702 1855.19 888.183 1863.54 896.796 1872.41 902.016 1874.24 908.019 1872.68 915.588 1866.15 905.409 1833.26 901.233 1814.47 900.45 1805.86 900.711 1797.77 903.843 1783.41 906.453 1776.63 910.107 1770.36 914.544 1765.4 922.113 1761.49 926.55 1760.71 931.248 1761.49 935.424 1763.32 938.817 1766.19 942.993 1771.93 946.125 1778.98 949.779 1794.9 950.823 1808.73 950.04 1820.21 945.342 1840.83 934.641 1867.72 934.38 1872.94 947.169 1903.47 959.175 1935.32 976.14 1985.69ZM925.506 1848.14 931.77 1831.7 935.163 1815.26 935.424 1801.68 933.075 1787.85 931.248 1782.37 928.116 1777.41 926.55 1776.89 924.723 1777.41 919.764 1784.2 916.371 1795.94 915.849 1803.51 917.154 1816.56 920.025 1830.13 925.506 1848.14ZM2084.09 1962.72 2087.22 1961.94 2089.57 1960.11 2086.17 1954.37 2082 1956.98 2079.91 1960.89 2084.09 1962.72Z" style="fill: var(--s-deco)" transform="matrix(1.00004 0 0 1 181 1130)"/>
        <path d="M1367.12 1107.16 1366.6 1119.95 1362.68 1144.22 1359.55 1155.45 1354.07 1170.32 1347.28 1184.16 1339.45 1196.95 1330.58 1209.21 1321.18 1220.7 1311 1230.88 1300.04 1240.53 1288.82 1248.89 1265.85 1262.72 1243.4 1272.11 1232.18 1275.25 1221.74 1277.07 1212.35 1277.6 1185.2 1274.72 1170.06 1271.33 1154.4 1266.89 1136.92 1260.11 1125.43 1254.37 1102.46 1239.75 1091.76 1230.62 1081.32 1220.18 1071.67 1207.91 1059.4 1187.29 1049.22 1162.23 1045.83 1148.92 1043.22 1134.31 1041.39 1117.86 1040.87 1099.85 1041.39 1086.28 1043.22 1073.23 1046.35 1060.44 1050.53 1047.92 1061.75 1024.16 1068.53 1012.94 1085.24 992.322 1104.81 974.313 1115.51 966.222 1126.74 959.175 1150.75 947.169 1176.33 938.817 1189.38 936.207 1202.69 934.641 1216.26 934.119 1226.7 934.641 1237.14 936.207 1247.84 939.078 1258.54 942.993 1272.38 949.779 1285.95 958.131 1299.26 968.31 1311.79 979.533 1323.27 992.061 1333.97 1006.16 1343.37 1021.03 1351.46 1036.69 1357.98 1053.4 1361.9 1066.45 1364.77 1079.76 1366.34 1093.33 1367.12 1107.16Z" style="fill: var(--s-deco)" transform="matrix(1.00004 0 0 1 181 1130)"/>
        <path d="M683.298 1178.68 688.518 1164.32 690.345 1155.97 692.433 1143.18 696.609 1102.46 701.046 1078.97 706.527 1066.45 709.92 1062.01 714.096 1058.62 719.577 1056.53 726.102 1055.74 730.8 1056.27 738.369 1059.92 744.633 1067.75 749.331 1080.8 751.68 1092.02 757.422 1138.22 759.771 1145.79 762.12 1149.71 764.73 1152.05 768.123 1152.84 770.733 1152.32 773.343 1150.49 775.953 1147.1 779.607 1140.83 791.874 1110.03 796.05 1101.68 800.748 1094.11 812.232 1082.11 823.977 1074.28 830.241 1071.67 839.637 1069.84 844.857 1070.36 853.47 1074.28 861.039 1082.63 867.564 1096.72 870.696 1108.47 873.045 1121.52 877.221 1157.54 880.092 1170.32 881.658 1172.67 883.224 1173.2 898.101 1165.89 902.799 1165.37 907.236 1166.15 911.412 1168.5 915.066 1172.15 917.937 1177.89 920.808 1187.29 923.679 1200.08 927.594 1228.79 930.465 1258.28 932.292 1300.56 932.031 1308.65 929.943 1319.88 926.028 1326.66 923.157 1329.27 913.761 1332.41 629.532 1350.94 623.79 1349.37 621.441 1346.76 621.18 1344.67 621.702 1338.15 620.397 1326.92 604.476 1209.47 608.391 1185.2 613.872 1165.37 622.224 1146.05 625.878 1140.31 633.969 1131.44 638.406 1128.04 643.626 1126.22 649.107 1125.43 654.066 1126.22 658.242 1127.78 661.113 1130.39 664.767 1135.87 673.641 1160.41 677.556 1169.54 683.298 1178.68Z" style="fill: var(--s-deco)" transform="matrix(1.00004 0 0 1 181 1130)"/>
        <path d="M541.836 961.263 539.487 975.096 537.66 977.706 535.05 979.272 529.047 979.533 526.437 978.228 524.871 975.879 524.349 973.008 536.355 930.987 539.487 925.767 542.88 924.984 549.666 926.811 555.669 929.943 561.15 934.119 578.376 956.043 580.725 961.785 578.637 966.744 576.549 968.049 571.59 968.31 565.326 962.568 558.54 953.955 557.235 954.477 619.614 1357.2 951.606 1336.84 949.257 1330.06 949.779 1327.71 953.172 1324.31 955.521 1323.79 962.829 1326.66 975.357 1335.8 979.533 1338.93 982.665 1343.37 982.404 1348.07 980.838 1350.41 977.445 1352.76 956.043 1363.46 943.515 1368.68 940.383 1368.16 938.295 1366.6 936.207 1361.9 937.773 1357.72 943.254 1351.98 620.136 1371.56 617.787 1370.51 615.177 1367.12 611.262 1359.29 607.086 1345.98 597.168 1303.7 582.552 1217.57 555.93 1034.08 548.883 989.19 543.402 961.524Z" style="fill: var(--s-deco)" transform="matrix(1.00004 0 0 1 181 1130)"/>
        <path d="M1409.92 1405.75 1396.61 1416.97 1387.48 1421.15 1381.73 1421.67 1377.04 1421.15 1368.42 1417.23 1364.77 1414.1 1359.55 1406.01 1358.24 1396.35 1359.55 1387.22 1363.73 1379.39 1369.99 1373.9 1373.9 1372.08 1382.52 1370.51 1388.26 1371.29 1394 1373.12 1407.05 1379.91 1406.27 1366.34 1403.92 1358.51 1399.74 1350.94 1394.78 1344.15 1382 1331.62 1366.86 1321.97 1351.2 1315.7 1343.63 1314.14 1326.4 1313.87 1328.49 1324.84 1333.19 1340.24 1332.67 1342.58 1329.27 1345.72 1324.58 1345.46 1323.01 1344.41 1319.62 1339.45 1311.79 1312.05 1311.79 1306.31 1314.14 1301.61 1316.22 1299.78 1348.07 1277.6 1353.02 1274.72 1355.63 1274.2 1358.24 1274.72 1361.64 1278.38 1362.16 1280.99 1361.9 1283.34 1360.33 1285.69 1340.5 1298.48 1356.16 1302.91 1369.21 1307.61 1379.65 1313.09 1389.56 1319.62 1397.66 1326.14 1409.14 1339.71 1416.19 1352.24 1419.58 1361.12 1421.67 1374.43 1421.15 1381.21 1419.06 1390.09 1428.19 1411.75 1432.11 1430.28 1432.63 1443.59 1431.85 1458.47 1429.76 1473.35 1426.37 1487.7 1421.93 1500.75 1417.23 1513.28 1406.79 1533.11 1402.35 1539.38 1396.61 1544.6 1392.44 1544.6 1389.3 1541.47 1389.04 1539.38 1389.83 1535.72 1403.66 1508.32 1408.88 1495.53 1413.58 1479.87 1416.19 1469.17 1418.27 1444.11 1417.49 1431.59 1414.1 1414.62 1409.92 1405.75ZM1400.27 1393.22 1390.35 1386.95 1386.43 1385.65 1382.78 1384.87 1378.86 1385.65 1375.47 1388 1373.12 1392.96 1373.12 1400 1375.73 1404.7 1378.6 1406.79 1381.73 1407.31 1385.39 1406.53 1389.3 1404.7 1395.83 1398.7 1400.27 1393.22Z" style="fill: var(--s-deco)" transform="matrix(1.00004 0 0 1 181 1130)"/>
        <path d="M1506.49 793.44 1503.1 792.918 1501.01 791.091 1492.4 766.035 1489.01 758.205 1485.09 752.985 1476.48 746.199 1462.12 739.674 1460.3 737.586 1459.77 733.932 1460.56 730.539 1462.38 728.451 1478.04 720.36 1485.09 714.357 1493.18 703.134 1499.45 690.084 1501.53 687.735 1504.4 686.952 1507.54 687.474 1510.15 689.823 1511.19 703.656 1514.58 715.923 1521.89 727.929 1529.46 733.41 1530.77 735.498 1531.55 738.108 1530.77 740.718 1523.72 749.07 1520.06 755.334 1517.72 762.12 1513.28 786.393 1511.97 790.047 1508.84 792.918 1506.49 793.44ZM1503.88 756.117 1511.97 739.413 1499.97 720.36 1484.83 734.193 1490.83 738.63 1495.79 743.589 1503.88 756.117Z" style="fill: var(--s-deco)" transform="matrix(1.00004 0 0 1 181 1130)"/>
        <path d="M2441.39 877.743 2439.83 880.614 2432.52 887.661 2428.87 892.881 2424.17 904.104 2421.04 926.811 2417.64 930.465 2414.51 931.248 2411.64 930.726 2409.55 929.16 2408.25 926.55 2401.46 905.931 2397.02 894.969 2393.37 890.01 2389.98 886.878 2385.8 885.051 2375.88 881.919 2373.53 879.048 2373.27 876.438 2373.53 874.089 2376.41 870.696 2385.28 866.781 2390.5 863.91 2394.41 860.256 2398.85 853.992 2401.72 847.467 2406.42 824.238 2407.46 822.15 2411.64 820.323 2414.77 820.845 2416.6 822.411 2418.17 825.021 2422.08 840.942 2428.34 857.907 2433.04 865.737 2440.09 872.262 2441.39 877.743ZM2399.9 875.394 2412.68 892.098 2422.08 876.438 2412.68 858.951 2399.9 875.394Z" style="fill: var(--s-deco)" transform="matrix(1.00004 0 0 1 181 1130)"/>
        <path d="M2551.54 1533.64 2548.93 1533.11 2545.27 1529.98 2540.31 1507.8 2537.96 1502.32 2535.09 1497.62 2529.61 1493.7 2525.96 1493.18 2516.56 1494.23 2513.43 1493.96 2510.82 1492.4 2508.99 1489.79 2508.47 1486.92 2509.52 1483.79 2526.48 1467.6 2531.18 1461.08 2535.62 1450.12 2538.23 1439.68 2540.05 1437.07 2544.75 1433.41 2548.14 1432.11 2550.49 1432.63 2554.15 1436.54 2558.32 1451.42 2563.8 1464.73 2568.5 1470.21 2573.2 1473.35 2574.24 1477.26 2573.72 1479.87 2567.98 1490.31 2562.76 1503.1 2557.8 1529.72 2556.5 1531.81 2554.41 1533.11 2551.54 1533.64ZM2550.75 1493.18 2556.5 1480.39 2546.06 1462.91 2535.62 1479.09 2550.75 1493.18Z" style="fill: var(--s-deco)" transform="matrix(1.00004 0 0 1 181 1130)"/>
        <path d="M992.583 1060.7 1007.72 1060.97 1012.16 1063.05 1013.46 1064.88 1013.99 1067.75 1013.46 1070.36 1010.07 1073.75 998.847 1075.06 977.445 1075.58 972.486 1073.23 970.137 1068.01 970.659 1064.88 973.791 1062.01 981.099 1060.97 992.583 1060.97Z" style="fill: var(--s-deco)" transform="matrix(1.00004 0 0 1 181 1130)"/>
        <path d="M1188.33 876.96 1188.86 873.306 1189.9 870.957 1191.99 869.391 1195.38 868.869 1207.39 869.913 1219.39 872.001 1223.05 874.35 1224.61 878.787 1223.83 882.18 1221.74 884.007 1219.13 885.312 1195.12 887.661 1190.68 886.095 1189.12 882.18 1188.33 876.96Z" style="fill: var(--s-deco)" transform="matrix(1.00004 0 0 1 181 1130)"/>
        <path d="M1410.44 1085.5 1416.97 1086.8 1420.62 1090.2 1421.41 1093.33 1420.1 1097.77 1416.19 1100.12 1392.44 1104.81 1389.83 1104.29 1386.17 1100.9 1385.39 1098.29 1387.48 1092.02 1389.56 1089.94 1393.74 1088.11 1410.44 1085.5Z" style="fill: var(--s-deco)" transform="matrix(1.00004 0 0 1 181 1130)"/>
        <path d="M536.877 1077.67 539.487 1078.19 541.314 1079.76 542.619 1082.37 542.88 1088.63 541.575 1090.98 539.226 1092.55 536.616 1093.07 533.745 1092.29 531.396 1090.72 529.83 1088.37 529.047 1085.5 529.83 1082.63 531.396 1080.02 533.745 1078.45 536.877 1077.67Z" style="fill: var(--s-deco)" transform="matrix(1.00004 0 0 1 181 1130)"/>
        <path d="M529.83 1040.61 526.437 1039.82 523.305 1038 520.956 1035.39 520.173 1032.52 522.261 1028.08 526.698 1026.51 532.701 1028.6 535.572 1032.26 535.572 1036.95 534.267 1039.04 529.83 1040.61Z" style="fill: var(--s-deco)" transform="matrix(1.00004 0 0 1 181 1130)"/>
        <path d="M579.159 1375.21 574.2 1373.12 571.851 1368.16 574.2 1363.46 578.898 1361.38 583.857 1363.2 585.423 1365.55 585.945 1368.16 583.857 1373.12 581.769 1374.69 579.159 1375.21Z" style="fill: var(--s-deco)" transform="matrix(1.00004 0 0 1 181 1130)"/>
        <path d="M565.326 1286.21 567.936 1286.47 571.329 1288.56 572.895 1292.73 570.807 1297.43 565.848 1299.26 563.238 1298.74 560.889 1297.43 559.323 1295.34 558.54 1292.47 559.062 1289.86 560.628 1287.77 562.977 1286.47 565.326 1286.21Z" style="fill: var(--s-deco)" transform="matrix(1.00004 0 0 1 181 1130)"/>
        <path d="M560.628 1222.79 558.018 1222.52 555.408 1220.96 553.842 1218.87 553.32 1216.26 555.147 1211.56 559.845 1210 564.804 1211.82 567.414 1216.78 565.326 1221.22 560.628 1222.79Z" style="fill: var(--s-deco)" transform="matrix(1.00004 0 0 1 181 1130)"/>
        <path d="M541.575 1143.18 543.402 1139 547.578 1137.18 551.754 1139 553.581 1143.18 552.015 1147.36 547.578 1149.18 543.402 1147.36 541.575 1143.18Z" style="fill: var(--s-deco)" transform="matrix(1.00004 0 0 1 181 1130)"/>
        <path d="M2122.45 1053.92 2121.41 1090.2 2122.97 1119.69 2132.89 1118.12 2136.29 1118.65 2138.9 1119.95 2141.51 1122.56 2143.07 1125.69 2144.38 1130.91 2144.9 1138.74 2142.55 1188.33 2140.2 1193.03 2135.24 1194.86 2132.11 1194.34 2130.02 1192.77 2128.72 1190.16 2127.67 1177.89 2129.5 1134.57 2120.89 1135.35 2116.45 1135.09 2113.32 1133.78 2110.71 1131.44 2108.88 1127.26 2107.31 1113.17 2106.79 1061.75 2108.1 1044.78 2109.66 1040.09 2111.23 1038.52 2113.06 1037.74 2117.75 1038 2119.58 1039.3 2121.15 1041.65 2122.19 1046.61 2122.45 1053.92Z" style="fill: var(--s-deco)" transform="matrix(1.00004 0 0 1 181 1130)"/>
        <path d="M1805.86 1265.07 1795.68 1262.98 1788.11 1260.37 1785.76 1258.02 1784.98 1254.63 1785.5 1252.02 1787.07 1249.67 1789.16 1248.1 1792.03 1247.84 1800.64 1249.67 1806.12 1249.93 1812.91 1249.41 1819.43 1247.32 1825.7 1244.19 1831.96 1240.01 1839.27 1233.49 1847.88 1222 1854.14 1209.47 1856.49 1207.39 1859.63 1206.6 1864.58 1208.69 1866.15 1211.04 1866.15 1216.52 1861.19 1227.48 1851.53 1241.32 1844.75 1248.1 1836.92 1254.37 1827.52 1259.59 1813.69 1264.02 1805.86 1265.07Z" style="fill: var(--s-deco)" transform="matrix(1.00004 0 0 1 181 1130)"/>
        <path d="M1683.19 1063.58 1686.32 1056.53 1694.41 1045.04 1701.72 1038 1716.34 1027.82 1722.6 1024.95 1731.47 1022.34 1734.61 1022.86 1736.96 1024.69 1738.52 1027.04 1739.04 1029.91 1738.52 1032.52 1735.91 1035.91 1724.17 1040.87 1713.47 1047.92 1707.2 1053.92 1696.5 1068.53 1692.59 1071.93 1688.41 1071.93 1685.8 1070.62 1683.45 1066.97 1683.19 1063.58Z" style="fill: var(--s-deco)" transform="matrix(1.00004 0 0 1 181 1130)"/>
        <path d="M1767.75 1122.3 1766.19 1129.09 1764.36 1131.7 1761.49 1133.52 1756.53 1134.31 1753.92 1133.78 1750.27 1130.91 1747.4 1123.87 1746.87 1115.25 1748.96 1108.99 1753.14 1104.81 1756.53 1104.03 1760.18 1104.55 1762.53 1106.38 1764.36 1108.99 1767.75 1122.3Z" style="fill: var(--s-deco)" transform="matrix(1.00004 0 0 1 181 1130)"/>
        <path d="M1838.75 1114.21 1837.7 1121.26 1836.4 1123.87 1834.31 1125.95 1828.57 1126.48 1823.87 1124.13 1821.78 1121.26 1820.48 1117.34 1819.69 1111.6 1820.21 1105.6 1821.78 1101.68 1825.7 1098.55 1831.96 1098.55 1834.05 1100.12 1836.92 1105.6 1839.27 1113.95Z" style="fill: var(--s-deco)" transform="matrix(1.00004 0 0 1 181 1130)"/>
        <path d="M1735.91 1161.97 1732.26 1160.67 1719.47 1153.36 1716.08 1149.18 1716.08 1143.96 1717.64 1141.61 1719.99 1140.05 1722.86 1139.27 1727.04 1140.31 1738 1146.31 1742.96 1150.49 1744.26 1154.14 1743.48 1157.27 1741.65 1159.88 1739.04 1161.45 1735.91 1161.97Z" style="fill: var(--s-deco)" transform="matrix(1.00004 0 0 1 181 1130)"/>
        <path d="M1866.41 1152.32 1863.8 1151.79 1861.45 1150.23 1859.89 1147.88 1859.89 1142.92 1869.28 1136.13 1879.98 1129.87 1881.55 1129.61 1884.42 1130.39 1886.77 1132.22 1888.86 1137.44 1888.07 1140.57 1881.81 1145.01 1866.41 1152.32Z" style="fill: var(--s-deco)" transform="matrix(1.00004 0 0 1 181 1130)"/>
        <path d="M935.685 1807.69 933.075 1787.85 931.248 1782.37 928.116 1777.41 926.55 1776.89 924.723 1777.41 922.113 1780.28 917.676 1789.68 916.371 1795.94 915.849 1803.51 917.154 1817.34 923.94 1842.92 927.594 1843.97 931.77 1832.22 934.38 1819.95 935.685 1807.69Z" style="fill: var(--s-bg)" transform="matrix(1.00004 0 0 1 181 1130)"/>
        <path d="M2075.73 1942.1 2063.99 1928.79 2044.15 1912.09 2032.15 1904.26 2019.1 1897.73 2009.96 1894.34 2000.83 1892.25 1991.43 1891.47 1983.6 1892.25 1976.29 1894.34 1969.77 1897.47 1964.03 1902.17 1959.07 1907.91 1954.89 1915.48 1952.02 1923.57 1950.19 1933.49 1949.41 1945.49 1950.19 1957.24 1952.02 1969.25 1954.89 1981.25 1963.76 2004.48 1969.25 2015.96 1978.9 2032.15 1989.34 2047.28 2000.3 2061.12 2011.27 2072.6 2022.75 2082.52 2032.41 2089.57 2039.45 2093.22 2049.37 2095.57 2060.33 2095.05 2072.08 2092.96 2084.35 2089.31 2096.09 2084.87 2120.1 2072.34 2143.07 2056.68 2153.77 2047.55 2164.21 2038.15 2181.96 2018.05 2189.79 2007.35 2196.05 1996.91 2201.27 1986.47 2205.19 1975.77 2207.54 1965.59 2208.32 1955.93 2207.54 1947.58 2205.45 1941.06 2202.58 1935.84 2198.4 1931.4 2193.44 1928.01 2187.96 1925.4 2178.83 1923.31 2169.69 1922.53 2159.25 1923.31 2148.29 1925.14 2127.41 1931.66 2109.92 1939.49 2099.48 1946.02 2104.44 1955.67 2104.97 1959.85 2103.4 1966.64 2098.18 1973.16 2093.74 1976.03 2089.04 1977.6 2084.09 1978.12 2075.21 1976.29 2071.04 1973.68 2067.38 1970.29 2064.51 1964.03 2064.25 1960.37 2064.77 1955.67 2066.34 1952.02 2068.69 1948.89 2075.73 1942.1Z" style="fill: var(--s-bg)" transform="matrix(1.00004 0 0 1 181 1130)"/>
        <path d="M2086.17 1954.37 2082 1956.98 2079.91 1960.89 2084.09 1962.72 2087.22 1961.94 2089.57 1960.11 2086.17 1954.37Z" style="fill: var(--s-bg)" transform="matrix(1.00004 0 0 1 181 1130)"/>
        <path d="M1372.6 1396.35 1373.12 1400 1375.73 1404.7 1378.6 1406.79 1381.73 1407.31 1385.39 1406.53 1389.3 1404.7 1395.83 1398.7 1400.27 1393.22 1390.35 1386.95 1382.78 1384.87 1378.86 1385.65 1375.47 1388 1373.12 1392.96 1372.6 1396.35Z" style="fill: var(--s-bg)" transform="matrix(1.00004 0 0 1 181 1130)"/>
        <path d="M2399.9 875.394 2412.68 892.098 2422.08 876.438 2412.68 858.951 2399.9 875.394Z" style="fill: var(--s-bg)" transform="matrix(1.00004 0 0 1 181 1130)"/>
        <path d="M2855.86 1692.32 2854.04 1637.51 2851.95 1616.11 2848.82 1594.71 2844.9 1576.18 2840.72 1560.78 2835.24 1545.38 2829.5 1532.07 2815.93 1509.1 2800.01 1489.01 2786.7 1474.91 2739.98 1429.76 2723.01 1411.75 2704.74 1390.09 2692.74 1374.69 2666.9 1335.8 2654.63 1314.66 2641.58 1289.86 2627.75 1261.15 2614.96 1232.18 2601.65 1198.51 2587.55 1160.15 2574.77 1121.26 2561.45 1076.89 2547.62 1026.77 2535.09 976.14 2501.42 824.499 2493.59 795.528 2484.72 767.862 2474.8 741.762 2464.1 716.967 2452.1 692.172 2439.05 668.682 2425.47 646.497 2411.12 625.356 2395.98 605.52 2379.8 585.945 2363.09 567.414 2345.87 549.927 2328.12 533.484 2309.85 518.085 2285.84 499.554 2261.57 482.328 2236.51 466.407 2211.19 452.052 2185.09 438.219 2158.73 425.952 2132.11 414.468 2105.49 404.289 2069.47 391.761 2033.97 381.06 1998.74 372.186 1963.5 364.356 1929.31 357.831 1863.54 348.435 1804.29 343.215 1762.53 341.127 1727.82 340.605 1692.32 341.127 1659.18 343.215 1628.12 346.347 1599.41 350.262 1570.18 355.743 1543.03 362.268 1517.45 369.576 1493.44 377.667 1469.69 387.063 1447.25 396.981 1426.1 407.682 1406.27 419.166 1367.9 444.222 1333.45 471.366 1311.79 490.68 1291.17 510.777 1271.59 531.396 1243.14 563.238 1137.7 693.477 1110.82 724.536 1092.29 744.633 1072.97 763.947 1052.87 782.478 1033.3 798.66 1014.51 812.493 996.237 824.238 977.184 835.2 940.644 852.687 913.239 863.388 886.356 872.262 807.012 896.274 780.912 905.409 746.46 919.764 729.234 928.377 712.269 938.034 695.304 949.257 678.078 962.307 661.635 976.401 644.67 992.844 627.444 1011.9 611.262 1031.99 594.297 1055.22 577.071 1082.11 619.614 1357.2 951.606 1336.84 949.257 1330.06 949.779 1327.71 953.172 1324.31 955.521 1323.79 962.829 1326.66 975.357 1335.8 981.621 1341.02 983.187 1345.46 982.404 1348.07 980.838 1350.41 977.445 1352.76 956.043 1363.46 943.515 1368.68 940.383 1368.16 938.295 1366.6 936.207 1361.9 937.773 1357.72 943.254 1351.98 631.62 1371.03 620.136 1371.56 618.048 1370.77 615.177 1367.38 611.523 1359.81 607.347 1347.28 597.951 1307.09 583.596 1224.87 565.587 1101.42 546.273 1137.44 549.927 1137.7 551.754 1139 553.581 1143.18 553.059 1145.53 549.927 1148.66 547.578 1149.18 544.185 1148.14 542.097 1145.27 519.129 1194.86 513.126 1211.04 508.167 1227.48 504.252 1244.19 501.381 1261.15 499.815 1278.38 499.293 1295.6 501.381 1328.49 507.123 1360.07 512.865 1380.43 519.651 1400.27 527.742 1419.58 547.056 1456.38 569.241 1490.31 592.992 1520.85 611.784 1542.25 629.532 1561.04 780.39 1545.9 965.7 1528.94 1283.86 1501.79 1338.15 1497.36 1341.54 1497.88 1344.41 1499.45 1345.98 1501.53 1346.76 1504.4 1346.24 1511.45 1353.29 1575.92 1365.81 1683.97 1371.03 1719.73 1379.65 1706.68 1388.78 1695.2 1398.18 1685.28 1407.57 1676.4 1421.41 1665.7 1435.24 1656.57 1449.86 1649 1464.73 1642.47 1480.13 1636.99 1495.79 1632.82 1519.28 1627.34 1613.24 1612.2 1634.9 1606.98 1649 1602.54 1662.31 1597.06 1675.1 1590.8 1684.23 1585.31 1700.94 1571.48 1709.03 1563.39 1703.81 1562.35 1602.02 1563.91 1599.41 1563.39 1597.06 1561.56 1595.23 1557.91 1591.84 1539.9 1587.4 1474.65 1579.57 1289.34 1578.79 1284.38 1577.22 1281.51 1566.78 1274.2 1564.17 1271.07 1561.04 1265.07 1558.95 1257.76 1556.87 1245.49 1555.04 1211.04 1555.56 1194.86 1558.43 1166.41 1562.35 1146.83 1566.26 1130.91 1577.48 1094.37 1575.66 1086.02 1574.35 1073.75 1573.83 1049.48 1574.35 1027.04 1576.44 1005.11 1579.83 983.187 1584.53 961.263 1590.53 939.861 1597.84 918.72 1606.46 898.362 1616.37 878.265 1627.34 858.69 1639.34 840.159 1652.91 822.15 1667.27 804.924 1682.93 788.742 1699.63 773.865 1717.38 759.771 1736.43 746.721 1752.09 737.325 1768.54 728.712 1785.5 720.882 1803.51 714.096 1822.04 708.093 1840.57 703.134 1860.15 699.219 1880.24 696.609 1901.12 694.782 1922.79 693.999 1949.93 694.782 1975.25 696.609 1998.74 699.741 2020.92 703.656 2041.54 708.615 2062.42 715.14 2082 722.448 2100.53 730.8 2117.49 739.674 2133.68 749.592 2149.34 760.815 2163.95 772.56 2177.78 785.349 2190.83 798.66 2202.84 812.754 2216.67 831.285 2229.72 850.86 2241.47 871.479 2252.17 893.403 2261.57 915.588 2270.18 938.556 2278.01 962.568 2284.79 987.363 2292.36 1020.77 2298.89 1054.96 2304.11 1090.2 2311.16 1161.71 2313.24 1197.73 2315.07 1252.02 2315.59 1305.52 2314.81 1383.04 2312.72 1523.98 2311.16 1533.64 2309.07 1535.99 2306.46 1537.55 2298.37 1538.33 2098.44 1538.07 2107.05 1546.43 2123.76 1555.3 2136.29 1560 2162.39 1567.04 2187.96 1572 2208.58 1574.87 2247.47 1576.18 2273.05 1578.01 2297.58 1581.14 2316.11 1584.79 2333.86 1589.23 2351.35 1594.97 2368.58 1601.76 2385.28 1609.59 2401.46 1618.98 2417.64 1629.68 2433.56 1642.21 2448.44 1655.78 2463.06 1671.18 2477.67 1688.93 2492.03 1708.77 2505.08 1729.13 2518.13 1751.83 2530.92 1777.67 2543.71 1806.64 2554.93 1835.09 2565.89 1866.93 2576.85 1902.17 2587.82 1941.32 2597.21 1979.42 2606.35 2021.45 2615.22 2067.38 2623.83 2118.02 2623.83 2140.2 2621.75 2153.25 2618.35 2166.3 2613.92 2178.83 2608.17 2190.83 2601.65 2202.32 2593.82 2213.02 2604.78 2211.19 2616 2207.8 2627.23 2203.36 2638.71 2197.88 2650.19 2190.83 2663.51 2181.18 2676.82 2169.69 2690.39 2156.64 2703.96 2141.51 2728.49 2109.4 2752.77 2071.56 2767.38 2044.67 2781.22 2016.23 2794.53 1985.95 2806.53 1954.89 2817.23 1923.05 2827.15 1890.42 2835.5 1857.28 2842.55 1823.87 2848.29 1790.72 2852.47 1757.05 2854.82 1724.17 2855.86 1692.32ZM913.761 1332.41 629.532 1350.94 626.139 1350.41 622.224 1348.07 621.18 1344.67 621.702 1338.15 620.397 1326.92 604.476 1209.47 608.391 1185.2 613.872 1165.37 622.224 1146.05 625.878 1140.31 633.969 1131.44 638.406 1128.04 643.626 1126.22 649.107 1125.43 654.066 1126.22 658.242 1127.78 661.113 1130.39 664.767 1135.87 673.641 1160.41 677.556 1169.54 683.298 1178.68 688.518 1164.32 690.345 1155.97 692.433 1143.18 696.609 1102.46 701.046 1078.97 703.395 1071.93 709.92 1062.01 714.096 1058.62 719.577 1056.53 726.102 1055.74 734.715 1057.57 741.24 1062.79 744.633 1067.75 749.331 1080.8 751.68 1092.02 757.422 1138.22 759.771 1145.79 762.12 1149.71 764.73 1152.05 768.123 1152.84 770.733 1152.32 773.343 1150.49 775.953 1147.1 779.607 1140.83 791.874 1110.03 796.05 1101.68 800.748 1094.11 812.232 1082.11 823.977 1074.28 830.241 1071.67 839.637 1069.84 844.857 1070.36 853.47 1074.28 861.039 1082.63 867.564 1096.72 870.696 1108.47 873.045 1121.52 877.221 1157.54 880.092 1170.32 881.658 1172.67 883.224 1173.2 885.573 1172.67 894.447 1167.45 902.799 1165.37 907.236 1166.15 911.412 1168.5 915.066 1172.15 917.937 1177.89 923.679 1200.08 927.594 1228.79 930.465 1258.28 931.77 1284.12 932.031 1308.65 929.943 1319.88 926.028 1326.66 918.981 1331.1 913.761 1332.41ZM553.32 1216.26 555.147 1211.56 559.845 1210 564.804 1211.82 567.414 1216.78 565.326 1221.22 560.628 1222.79 558.018 1222.52 555.408 1220.96 553.842 1218.87 553.32 1216.26ZM565.848 1299.26 563.238 1298.74 560.889 1297.43 559.323 1295.34 558.54 1292.47 559.062 1289.86 560.628 1287.77 562.977 1286.47 567.936 1286.47 571.329 1288.56 572.373 1290.12 572.895 1292.73 572.112 1295.34 568.458 1298.74 565.848 1299.26ZM579.159 1375.21 574.2 1373.12 571.851 1368.16 574.2 1363.46 578.898 1361.38 581.769 1361.9 585.423 1365.55 585.423 1370.77 581.769 1374.69 579.159 1375.21ZM1410.44 1085.5 1416.97 1086.8 1420.62 1090.2 1421.41 1093.33 1420.1 1097.77 1416.19 1100.12 1392.44 1104.81 1389.83 1104.29 1386.17 1100.9 1385.39 1098.29 1387.48 1092.02 1389.56 1089.94 1393.74 1088.11 1410.44 1085.5ZM1195.38 868.869 1207.39 869.913 1221.48 873.045 1224.09 876.438 1224.61 878.787 1223.83 882.18 1221.74 884.007 1219.13 885.312 1197.21 887.4 1192.25 887.139 1189.64 884.268 1188.33 876.438 1188.86 873.306 1189.9 870.957 1191.99 869.391 1195.38 868.869ZM1007.72 1074.54 977.445 1075.58 974.574 1074.8 970.92 1070.88 970.137 1068.01 970.659 1064.88 973.791 1062.01 981.099 1060.97 1003.02 1060.7 1010.07 1061.75 1013.46 1064.88 1013.99 1067.75 1013.46 1070.36 1010.07 1073.75 1007.72 1074.54ZM1040.87 1099.85 1041.39 1086.28 1043.22 1073.23 1046.35 1060.44 1050.53 1047.92 1055.48 1035.65 1061.75 1024.16 1068.53 1012.94 1076.62 1002.5 1094.63 982.926 1115.51 966.222 1126.74 959.175 1150.75 947.169 1176.33 938.817 1189.38 936.207 1202.69 934.641 1216.26 934.119 1226.7 934.641 1237.14 936.207 1247.84 939.078 1258.54 942.993 1272.38 949.779 1285.95 958.131 1299.26 968.31 1311.79 979.533 1323.27 992.061 1333.97 1006.16 1343.37 1021.03 1351.46 1036.69 1357.98 1053.4 1361.9 1066.45 1364.77 1079.76 1366.34 1093.33 1367.12 1107.16 1366.6 1119.95 1362.68 1144.22 1359.55 1155.45 1354.07 1170.32 1347.28 1184.16 1339.45 1196.95 1330.58 1209.21 1321.18 1220.7 1311 1230.88 1288.82 1248.89 1265.85 1262.72 1243.4 1272.11 1232.18 1275.25 1221.74 1277.07 1212.35 1277.6 1196.95 1276.55 1170.06 1271.33 1154.4 1266.89 1136.92 1260.11 1125.43 1254.37 1102.46 1239.75 1091.76 1230.62 1081.32 1220.18 1071.67 1207.91 1065.14 1198.25 1059.4 1187.29 1053.92 1175.54 1049.22 1162.23 1045.83 1148.92 1043.22 1134.31 1041.39 1117.86 1040.87 1099.85ZM1394.78 1545.12 1392.44 1544.6 1389.3 1541.47 1389.04 1539.38 1389.83 1535.72 1403.66 1508.32 1408.88 1495.53 1413.58 1479.87 1416.19 1469.17 1418.27 1444.11 1417.49 1431.59 1416.19 1422.45 1414.1 1414.62 1409.92 1405.75 1401.05 1413.58 1392.17 1419.32 1387.48 1421.15 1381.73 1421.67 1372.34 1419.58 1364.77 1414.1 1361.64 1410.18 1358.51 1401.31 1358.24 1396.35 1358.51 1391.39 1361.38 1383.04 1366.6 1376.51 1373.9 1372.08 1382.52 1370.51 1388.26 1371.29 1394 1373.12 1407.05 1379.91 1406.27 1366.34 1403.92 1358.51 1399.74 1350.94 1394.78 1344.15 1382 1331.62 1366.86 1321.97 1351.2 1315.7 1343.63 1314.14 1326.4 1313.87 1328.49 1324.84 1333.19 1340.24 1332.67 1342.58 1329.27 1345.72 1324.58 1345.46 1323.01 1344.41 1319.62 1339.45 1311.79 1312.05 1311.79 1306.31 1314.14 1301.61 1353.02 1274.72 1355.63 1274.2 1360.33 1276.29 1361.64 1278.38 1361.9 1283.34 1357.98 1287.51 1340.5 1298.48 1356.16 1302.91 1369.21 1307.61 1379.65 1313.09 1389.56 1319.62 1397.66 1326.14 1409.14 1339.71 1416.19 1352.24 1419.58 1361.12 1421.67 1374.43 1421.15 1381.21 1419.06 1390.09 1425.84 1405.22 1430.54 1420.36 1432.11 1430.28 1432.63 1443.59 1431.85 1458.47 1429.76 1473.35 1426.37 1487.7 1421.93 1500.75 1412.27 1523.72 1402.35 1539.38 1398.96 1542.77 1394.78 1545.12ZM1529.2 743.067 1523.72 749.07 1520.06 755.334 1517.72 762.12 1513.28 786.393 1511.97 790.047 1508.84 792.918 1506.49 793.44 1503.1 792.918 1501.01 791.091 1492.4 766.035 1489.01 758.205 1485.09 752.985 1476.48 746.199 1462.12 739.674 1460.3 737.586 1459.77 733.932 1460.56 730.539 1465.25 726.624 1478.04 720.36 1485.09 714.357 1493.18 703.134 1499.45 690.084 1501.53 687.735 1504.4 686.952 1507.54 687.474 1510.15 689.823 1511.19 703.656 1514.58 715.923 1521.89 727.929 1529.46 733.41 1530.77 735.498 1531.55 738.108 1530.77 740.718 1529.2 743.067ZM2441.39 878.004 2428.87 892.881 2424.17 904.104 2421.04 926.811 2417.64 930.465 2414.51 931.248 2411.64 930.726 2409.55 929.16 2408.25 926.55 2401.46 905.931 2397.02 894.969 2393.37 890.01 2389.98 886.878 2385.8 885.051 2375.88 881.919 2373.53 879.048 2373.01 876.438 2373.53 874.089 2376.41 870.696 2385.28 866.781 2390.5 863.91 2394.41 860.256 2398.85 853.992 2401.72 847.467 2406.42 824.238 2407.46 822.15 2411.64 820.323 2414.77 820.845 2416.6 822.411 2418.17 825.021 2422.08 840.942 2428.34 857.907 2433.04 865.737 2440.09 872.262 2441.39 877.743ZM2572.42 1482.48 2567.98 1490.31 2562.76 1503.1 2557.8 1529.72 2554.41 1533.11 2551.54 1533.64 2548.93 1533.11 2545.27 1529.98 2540.31 1507.8 2537.96 1502.32 2535.09 1497.62 2529.61 1493.7 2525.96 1493.18 2516.56 1494.23 2513.43 1493.96 2510.82 1492.4 2508.99 1489.79 2508.47 1486.92 2509.52 1483.79 2526.48 1467.6 2533.79 1456.12 2538.23 1439.68 2542.4 1434.72 2548.14 1432.11 2550.49 1432.63 2554.15 1436.54 2558.32 1451.42 2563.8 1464.73 2568.5 1470.21 2573.2 1473.35 2573.98 1474.39 2574.24 1477.26 2572.42 1482.48Z" style="fill: var(--s-bg)" transform="matrix(1.00004 0 0 1 181 1130)"/>
        <path d="M2535.62 1479.09 2550.75 1493.18 2556.5 1480.39 2546.06 1462.91 2535.62 1479.09Z" style="fill: var(--s-bg)" transform="matrix(1.00004 0 0 1 181 1130)"/>
        <path d="M1484.83 734.193 1490.83 738.63 1495.79 743.589 1503.88 756.117 1511.97 739.413 1499.97 720.36 1484.83 734.193Z" style="fill: var(--s-bg)" transform="matrix(1.00004 0 0 1 181 1130)"/>
    </g>
</svg>